; NON-PLATED HOLES START AT T1
; THROUGH (PLATED) HOLES START AT T100
M48
INCH
T100C0.040639
T101C0.038000
T102C0.031496
%
T100
X020438Y009093
X020438Y010093
X012438Y010093
X005438Y009093
X018438Y010093
X013438Y009093
X006438Y010093
X016438Y010093
X001438Y010093
X016438Y009093
X002437Y010093
X007437Y009093
X014437Y010093
X011438Y010093
X002437Y009093
X019437Y009093
X004437Y009093
X004437Y010093
X010438Y010093
X007437Y010093
X019437Y010093
X006438Y009093
X001438Y009093
X008438Y010093
X015438Y010093
X014437Y009093
X008438Y009093
X017438Y009093
X018438Y009093
X012438Y009093
X010438Y009093
X009437Y009093
X003438Y009093
X009437Y010093
X003438Y010093
X011438Y009093
X017438Y010093
X015438Y009093
X013438Y010093
X005438Y010093
T101
X006437Y003093
X006437Y004093
X006437Y007093
X006437Y005093
X006437Y006093
X006437Y002093
T102
X003437Y003093
X001437Y007093
X002437Y006093
X003437Y005093
T00
M30
