G04 MADE WITH FRITZING*
G04 WWW.FRITZING.ORG*
G04 DOUBLE SIDED*
G04 HOLES PLATED*
G04 CONTOUR ON CENTER OF CONTOUR VECTOR*
%ASAXBY*%
%FSLAX23Y23*%
%MOIN*%
%OFA0B0*%
%SFA1.0B1.0*%
%ADD10C,0.094488*%
%ADD11C,0.078000*%
%ADD12C,0.075361*%
%ADD13R,0.078000X0.078000*%
%ADD14C,0.024000*%
%ADD15R,0.001000X0.001000*%
%LNCOPPER1*%
G90*
G70*
G54D10*
X344Y509D03*
X244Y609D03*
X144Y709D03*
X344Y309D03*
G54D11*
X644Y709D03*
X644Y609D03*
X644Y509D03*
X644Y409D03*
X644Y309D03*
X644Y209D03*
G54D12*
X144Y909D03*
X244Y909D03*
X344Y909D03*
X444Y909D03*
X544Y909D03*
X644Y909D03*
X744Y909D03*
X844Y909D03*
X944Y909D03*
X1044Y909D03*
X1144Y909D03*
X1244Y909D03*
X1344Y909D03*
X1444Y909D03*
X1544Y909D03*
X1644Y909D03*
X1744Y909D03*
X1844Y909D03*
X1944Y909D03*
X2044Y909D03*
X2044Y1009D03*
X1944Y1009D03*
X1844Y1009D03*
X1744Y1009D03*
X1644Y1009D03*
X1544Y1009D03*
X1444Y1009D03*
X1344Y1009D03*
X1244Y1009D03*
X1144Y1009D03*
X1044Y1009D03*
X944Y1009D03*
X844Y1009D03*
X744Y1009D03*
X644Y1009D03*
X544Y1009D03*
X444Y1009D03*
X344Y1009D03*
X244Y1009D03*
X144Y1009D03*
G54D13*
X644Y709D03*
G54D14*
X43Y1110D02*
X344Y1110D01*
D02*
X344Y1110D02*
X344Y1041D01*
D02*
X45Y310D02*
X43Y1110D01*
D02*
X317Y309D02*
X45Y310D01*
D02*
X144Y736D02*
X144Y878D01*
D02*
X244Y636D02*
X244Y878D01*
D02*
X344Y536D02*
X344Y878D01*
G54D15*
X772Y818D02*
X776Y818D01*
X771Y817D02*
X777Y817D01*
X727Y816D02*
X738Y816D01*
X771Y816D02*
X778Y816D01*
X881Y816D02*
X889Y816D01*
X726Y815D02*
X741Y815D01*
X771Y815D02*
X778Y815D01*
X879Y815D02*
X890Y815D01*
X725Y814D02*
X742Y814D01*
X771Y814D02*
X778Y814D01*
X879Y814D02*
X891Y814D01*
X725Y813D02*
X743Y813D01*
X771Y813D02*
X777Y813D01*
X879Y813D02*
X891Y813D01*
X726Y812D02*
X743Y812D01*
X771Y812D02*
X777Y812D01*
X879Y812D02*
X891Y812D01*
X727Y811D02*
X744Y811D01*
X773Y811D02*
X775Y811D01*
X881Y811D02*
X891Y811D01*
X730Y810D02*
X735Y810D01*
X739Y810D02*
X744Y810D01*
X887Y810D02*
X891Y810D01*
X730Y809D02*
X735Y809D01*
X740Y809D02*
X745Y809D01*
X887Y809D02*
X891Y809D01*
X730Y808D02*
X735Y808D01*
X741Y808D02*
X745Y808D01*
X887Y808D02*
X891Y808D01*
X730Y807D02*
X735Y807D01*
X741Y807D02*
X746Y807D01*
X887Y807D02*
X891Y807D01*
X730Y806D02*
X735Y806D01*
X742Y806D02*
X746Y806D01*
X840Y806D02*
X841Y806D01*
X849Y806D02*
X853Y806D01*
X887Y806D02*
X891Y806D01*
X730Y805D02*
X735Y805D01*
X742Y805D02*
X747Y805D01*
X768Y805D02*
X775Y805D01*
X807Y805D02*
X819Y805D01*
X839Y805D02*
X842Y805D01*
X847Y805D02*
X855Y805D01*
X887Y805D02*
X891Y805D01*
X921Y805D02*
X932Y805D01*
X954Y805D02*
X954Y805D01*
X975Y805D02*
X975Y805D01*
X730Y804D02*
X735Y804D01*
X743Y804D02*
X747Y804D01*
X766Y804D02*
X777Y804D01*
X804Y804D02*
X822Y804D01*
X839Y804D02*
X843Y804D01*
X846Y804D02*
X857Y804D01*
X887Y804D02*
X891Y804D01*
X920Y804D02*
X935Y804D01*
X952Y804D02*
X956Y804D01*
X973Y804D02*
X976Y804D01*
X730Y803D02*
X735Y803D01*
X743Y803D02*
X748Y803D01*
X766Y803D02*
X777Y803D01*
X803Y803D02*
X824Y803D01*
X838Y803D02*
X843Y803D01*
X845Y803D02*
X858Y803D01*
X887Y803D02*
X891Y803D01*
X919Y803D02*
X936Y803D01*
X952Y803D02*
X956Y803D01*
X973Y803D02*
X977Y803D01*
X730Y802D02*
X735Y802D01*
X744Y802D02*
X748Y802D01*
X766Y802D02*
X778Y802D01*
X802Y802D02*
X824Y802D01*
X838Y802D02*
X859Y802D01*
X887Y802D02*
X891Y802D01*
X919Y802D02*
X937Y802D01*
X952Y802D02*
X956Y802D01*
X973Y802D02*
X977Y802D01*
X730Y801D02*
X735Y801D01*
X744Y801D02*
X749Y801D01*
X766Y801D02*
X778Y801D01*
X802Y801D02*
X825Y801D01*
X838Y801D02*
X860Y801D01*
X887Y801D02*
X891Y801D01*
X920Y801D02*
X938Y801D01*
X952Y801D02*
X956Y801D01*
X973Y801D02*
X977Y801D01*
X730Y800D02*
X735Y800D01*
X745Y800D02*
X749Y800D01*
X767Y800D02*
X778Y800D01*
X801Y800D02*
X825Y800D01*
X838Y800D02*
X848Y800D01*
X854Y800D02*
X861Y800D01*
X887Y800D02*
X891Y800D01*
X921Y800D02*
X938Y800D01*
X952Y800D02*
X956Y800D01*
X973Y800D02*
X977Y800D01*
X730Y799D02*
X735Y799D01*
X745Y799D02*
X750Y799D01*
X773Y799D02*
X778Y799D01*
X801Y799D02*
X806Y799D01*
X821Y799D02*
X825Y799D01*
X838Y799D02*
X847Y799D01*
X855Y799D02*
X862Y799D01*
X887Y799D02*
X891Y799D01*
X933Y799D02*
X938Y799D01*
X952Y799D02*
X956Y799D01*
X973Y799D02*
X977Y799D01*
X730Y798D02*
X735Y798D01*
X745Y798D02*
X750Y798D01*
X773Y798D02*
X778Y798D01*
X801Y798D02*
X806Y798D01*
X822Y798D02*
X824Y798D01*
X838Y798D02*
X846Y798D01*
X856Y798D02*
X863Y798D01*
X887Y798D02*
X891Y798D01*
X934Y798D02*
X938Y798D01*
X952Y798D02*
X956Y798D01*
X972Y798D02*
X977Y798D01*
X730Y797D02*
X735Y797D01*
X746Y797D02*
X750Y797D01*
X773Y797D02*
X778Y797D01*
X802Y797D02*
X806Y797D01*
X838Y797D02*
X845Y797D01*
X858Y797D02*
X863Y797D01*
X887Y797D02*
X891Y797D01*
X934Y797D02*
X939Y797D01*
X952Y797D02*
X957Y797D01*
X972Y797D02*
X977Y797D01*
X730Y796D02*
X735Y796D01*
X746Y796D02*
X750Y796D01*
X773Y796D02*
X778Y796D01*
X802Y796D02*
X809Y796D01*
X838Y796D02*
X844Y796D01*
X859Y796D02*
X863Y796D01*
X887Y796D02*
X891Y796D01*
X934Y796D02*
X939Y796D01*
X952Y796D02*
X957Y796D01*
X972Y796D02*
X976Y796D01*
X730Y795D02*
X735Y795D01*
X746Y795D02*
X750Y795D01*
X773Y795D02*
X778Y795D01*
X802Y795D02*
X811Y795D01*
X838Y795D02*
X843Y795D01*
X859Y795D02*
X864Y795D01*
X887Y795D02*
X891Y795D01*
X934Y795D02*
X939Y795D01*
X953Y795D02*
X958Y795D01*
X971Y795D02*
X976Y795D01*
X730Y794D02*
X735Y794D01*
X746Y794D02*
X750Y794D01*
X773Y794D02*
X778Y794D01*
X803Y794D02*
X813Y794D01*
X838Y794D02*
X843Y794D01*
X859Y794D02*
X864Y794D01*
X887Y794D02*
X891Y794D01*
X934Y794D02*
X939Y794D01*
X953Y794D02*
X958Y794D01*
X971Y794D02*
X975Y794D01*
X730Y793D02*
X735Y793D01*
X745Y793D02*
X750Y793D01*
X773Y793D02*
X778Y793D01*
X804Y793D02*
X816Y793D01*
X838Y793D02*
X843Y793D01*
X859Y793D02*
X864Y793D01*
X887Y793D02*
X891Y793D01*
X918Y793D02*
X939Y793D01*
X954Y793D02*
X959Y793D01*
X970Y793D02*
X975Y793D01*
X730Y792D02*
X735Y792D01*
X745Y792D02*
X750Y792D01*
X773Y792D02*
X778Y792D01*
X806Y792D02*
X818Y792D01*
X838Y792D02*
X843Y792D01*
X859Y792D02*
X864Y792D01*
X887Y792D02*
X891Y792D01*
X917Y792D02*
X939Y792D01*
X954Y792D02*
X959Y792D01*
X970Y792D02*
X975Y792D01*
X730Y791D02*
X735Y791D01*
X744Y791D02*
X749Y791D01*
X773Y791D02*
X778Y791D01*
X808Y791D02*
X820Y791D01*
X838Y791D02*
X843Y791D01*
X859Y791D02*
X864Y791D01*
X887Y791D02*
X891Y791D01*
X916Y791D02*
X939Y791D01*
X955Y791D02*
X959Y791D01*
X969Y791D02*
X974Y791D01*
X730Y790D02*
X735Y790D01*
X744Y790D02*
X749Y790D01*
X773Y790D02*
X778Y790D01*
X810Y790D02*
X822Y790D01*
X838Y790D02*
X843Y790D01*
X859Y790D02*
X864Y790D01*
X887Y790D02*
X891Y790D01*
X915Y790D02*
X939Y790D01*
X955Y790D02*
X960Y790D01*
X969Y790D02*
X974Y790D01*
X730Y789D02*
X735Y789D01*
X743Y789D02*
X748Y789D01*
X773Y789D02*
X778Y789D01*
X813Y789D02*
X823Y789D01*
X838Y789D02*
X843Y789D01*
X859Y789D02*
X864Y789D01*
X887Y789D02*
X891Y789D01*
X915Y789D02*
X939Y789D01*
X956Y789D02*
X960Y789D01*
X968Y789D02*
X973Y789D01*
X730Y788D02*
X735Y788D01*
X743Y788D02*
X748Y788D01*
X773Y788D02*
X778Y788D01*
X815Y788D02*
X824Y788D01*
X838Y788D02*
X843Y788D01*
X859Y788D02*
X864Y788D01*
X887Y788D02*
X891Y788D01*
X914Y788D02*
X919Y788D01*
X934Y788D02*
X939Y788D01*
X956Y788D02*
X961Y788D01*
X968Y788D02*
X973Y788D01*
X730Y787D02*
X735Y787D01*
X742Y787D02*
X747Y787D01*
X773Y787D02*
X778Y787D01*
X817Y787D02*
X825Y787D01*
X838Y787D02*
X843Y787D01*
X859Y787D02*
X864Y787D01*
X887Y787D02*
X891Y787D01*
X914Y787D02*
X919Y787D01*
X934Y787D02*
X939Y787D01*
X956Y787D02*
X961Y787D01*
X968Y787D02*
X972Y787D01*
X730Y786D02*
X735Y786D01*
X742Y786D02*
X747Y786D01*
X773Y786D02*
X778Y786D01*
X820Y786D02*
X825Y786D01*
X838Y786D02*
X843Y786D01*
X859Y786D02*
X864Y786D01*
X887Y786D02*
X891Y786D01*
X914Y786D02*
X918Y786D01*
X935Y786D02*
X939Y786D01*
X957Y786D02*
X962Y786D01*
X967Y786D02*
X972Y786D01*
X730Y785D02*
X735Y785D01*
X741Y785D02*
X746Y785D01*
X773Y785D02*
X778Y785D01*
X821Y785D02*
X826Y785D01*
X838Y785D02*
X843Y785D01*
X859Y785D02*
X864Y785D01*
X887Y785D02*
X891Y785D01*
X914Y785D02*
X918Y785D01*
X935Y785D02*
X939Y785D01*
X957Y785D02*
X962Y785D01*
X967Y785D02*
X972Y785D01*
X730Y784D02*
X735Y784D01*
X741Y784D02*
X746Y784D01*
X773Y784D02*
X778Y784D01*
X821Y784D02*
X826Y784D01*
X838Y784D02*
X844Y784D01*
X858Y784D02*
X863Y784D01*
X887Y784D02*
X891Y784D01*
X914Y784D02*
X918Y784D01*
X934Y784D02*
X939Y784D01*
X958Y784D02*
X962Y784D01*
X966Y784D02*
X971Y784D01*
X730Y783D02*
X735Y783D01*
X740Y783D02*
X745Y783D01*
X773Y783D02*
X778Y783D01*
X821Y783D02*
X826Y783D01*
X838Y783D02*
X845Y783D01*
X857Y783D02*
X863Y783D01*
X887Y783D02*
X891Y783D01*
X914Y783D02*
X918Y783D01*
X933Y783D02*
X939Y783D01*
X958Y783D02*
X963Y783D01*
X966Y783D02*
X971Y783D01*
X730Y782D02*
X735Y782D01*
X740Y782D02*
X745Y782D01*
X773Y782D02*
X778Y782D01*
X801Y782D02*
X804Y782D01*
X821Y782D02*
X826Y782D01*
X838Y782D02*
X846Y782D01*
X856Y782D02*
X863Y782D01*
X887Y782D02*
X891Y782D01*
X914Y782D02*
X919Y782D01*
X931Y782D02*
X939Y782D01*
X959Y782D02*
X970Y782D01*
X730Y781D02*
X735Y781D01*
X739Y781D02*
X744Y781D01*
X773Y781D02*
X778Y781D01*
X801Y781D02*
X806Y781D01*
X820Y781D02*
X825Y781D01*
X838Y781D02*
X847Y781D01*
X855Y781D02*
X862Y781D01*
X887Y781D02*
X891Y781D01*
X914Y781D02*
X920Y781D01*
X930Y781D02*
X939Y781D01*
X959Y781D02*
X970Y781D01*
X726Y780D02*
X744Y780D01*
X767Y780D02*
X784Y780D01*
X801Y780D02*
X825Y780D01*
X838Y780D02*
X849Y780D01*
X854Y780D02*
X861Y780D01*
X880Y780D02*
X898Y780D01*
X915Y780D02*
X939Y780D01*
X959Y780D02*
X969Y780D01*
X725Y779D02*
X743Y779D01*
X766Y779D02*
X785Y779D01*
X801Y779D02*
X824Y779D01*
X838Y779D02*
X860Y779D01*
X879Y779D02*
X898Y779D01*
X915Y779D02*
X939Y779D01*
X960Y779D02*
X969Y779D01*
X725Y778D02*
X742Y778D01*
X765Y778D02*
X785Y778D01*
X802Y778D02*
X824Y778D01*
X838Y778D02*
X859Y778D01*
X879Y778D02*
X899Y778D01*
X916Y778D02*
X939Y778D01*
X961Y778D02*
X968Y778D01*
X725Y777D02*
X741Y777D01*
X766Y777D02*
X785Y777D01*
X803Y777D02*
X823Y777D01*
X838Y777D02*
X843Y777D01*
X845Y777D02*
X857Y777D01*
X879Y777D02*
X899Y777D01*
X917Y777D02*
X932Y777D01*
X935Y777D02*
X939Y777D01*
X963Y777D02*
X968Y777D01*
X726Y776D02*
X740Y776D01*
X766Y776D02*
X784Y776D01*
X805Y776D02*
X821Y776D01*
X838Y776D02*
X843Y776D01*
X846Y776D02*
X856Y776D01*
X880Y776D02*
X898Y776D01*
X919Y776D02*
X931Y776D01*
X936Y776D02*
X938Y776D01*
X963Y776D02*
X968Y776D01*
X838Y775D02*
X843Y775D01*
X848Y775D02*
X855Y775D01*
X962Y775D02*
X967Y775D01*
X838Y774D02*
X843Y774D01*
X962Y774D02*
X967Y774D01*
X838Y773D02*
X843Y773D01*
X961Y773D02*
X966Y773D01*
X838Y772D02*
X843Y772D01*
X961Y772D02*
X966Y772D01*
X838Y771D02*
X843Y771D01*
X961Y771D02*
X965Y771D01*
X838Y770D02*
X843Y770D01*
X960Y770D02*
X965Y770D01*
X838Y769D02*
X843Y769D01*
X953Y769D02*
X965Y769D01*
X838Y768D02*
X843Y768D01*
X952Y768D02*
X964Y768D01*
X838Y767D02*
X843Y767D01*
X952Y767D02*
X964Y767D01*
X839Y766D02*
X843Y766D01*
X952Y766D02*
X963Y766D01*
X839Y765D02*
X842Y765D01*
X953Y765D02*
X962Y765D01*
X767Y735D02*
X769Y735D01*
X786Y735D02*
X788Y735D01*
X811Y735D02*
X823Y735D01*
X846Y735D02*
X858Y735D01*
X766Y734D02*
X769Y734D01*
X785Y734D02*
X789Y734D01*
X809Y734D02*
X823Y734D01*
X844Y734D02*
X858Y734D01*
X766Y733D02*
X770Y733D01*
X785Y733D02*
X789Y733D01*
X808Y733D02*
X824Y733D01*
X843Y733D02*
X859Y733D01*
X766Y732D02*
X770Y732D01*
X785Y732D02*
X789Y732D01*
X807Y732D02*
X823Y732D01*
X842Y732D02*
X858Y732D01*
X766Y731D02*
X770Y731D01*
X785Y731D02*
X789Y731D01*
X806Y731D02*
X823Y731D01*
X841Y731D02*
X858Y731D01*
X766Y730D02*
X770Y730D01*
X785Y730D02*
X789Y730D01*
X806Y730D02*
X811Y730D01*
X841Y730D02*
X846Y730D01*
X766Y729D02*
X770Y729D01*
X785Y729D02*
X789Y729D01*
X805Y729D02*
X810Y729D01*
X840Y729D02*
X845Y729D01*
X766Y728D02*
X770Y728D01*
X785Y728D02*
X789Y728D01*
X805Y728D02*
X810Y728D01*
X840Y728D02*
X844Y728D01*
X766Y727D02*
X770Y727D01*
X785Y727D02*
X789Y727D01*
X804Y727D02*
X809Y727D01*
X839Y727D02*
X844Y727D01*
X766Y726D02*
X770Y726D01*
X785Y726D02*
X789Y726D01*
X804Y726D02*
X809Y726D01*
X839Y726D02*
X843Y726D01*
X766Y725D02*
X770Y725D01*
X785Y725D02*
X789Y725D01*
X804Y725D02*
X808Y725D01*
X838Y725D02*
X843Y725D01*
X766Y724D02*
X770Y724D01*
X785Y724D02*
X789Y724D01*
X803Y724D02*
X808Y724D01*
X838Y724D02*
X842Y724D01*
X766Y723D02*
X771Y723D01*
X784Y723D02*
X788Y723D01*
X803Y723D02*
X807Y723D01*
X837Y723D02*
X842Y723D01*
X767Y722D02*
X771Y722D01*
X784Y722D02*
X788Y722D01*
X802Y722D02*
X807Y722D01*
X837Y722D02*
X841Y722D01*
X767Y721D02*
X771Y721D01*
X783Y721D02*
X788Y721D01*
X802Y721D02*
X806Y721D01*
X836Y721D02*
X841Y721D01*
X767Y720D02*
X772Y720D01*
X783Y720D02*
X787Y720D01*
X801Y720D02*
X805Y720D01*
X836Y720D02*
X840Y720D01*
X768Y719D02*
X772Y719D01*
X783Y719D02*
X787Y719D01*
X801Y719D02*
X805Y719D01*
X836Y719D02*
X840Y719D01*
X768Y718D02*
X772Y718D01*
X782Y718D02*
X786Y718D01*
X801Y718D02*
X805Y718D01*
X836Y718D02*
X840Y718D01*
X769Y717D02*
X773Y717D01*
X782Y717D02*
X786Y717D01*
X801Y717D02*
X805Y717D01*
X836Y717D02*
X839Y717D01*
X769Y716D02*
X773Y716D01*
X781Y716D02*
X786Y716D01*
X801Y716D02*
X805Y716D01*
X836Y716D02*
X839Y716D01*
X769Y715D02*
X774Y715D01*
X781Y715D02*
X785Y715D01*
X801Y715D02*
X805Y715D01*
X836Y715D02*
X840Y715D01*
X770Y714D02*
X774Y714D01*
X781Y714D02*
X785Y714D01*
X801Y714D02*
X805Y714D01*
X836Y714D02*
X840Y714D01*
X770Y713D02*
X774Y713D01*
X780Y713D02*
X784Y713D01*
X801Y713D02*
X806Y713D01*
X836Y713D02*
X840Y713D01*
X771Y712D02*
X775Y712D01*
X780Y712D02*
X784Y712D01*
X802Y712D02*
X806Y712D01*
X837Y712D02*
X841Y712D01*
X771Y711D02*
X775Y711D01*
X779Y711D02*
X784Y711D01*
X802Y711D02*
X807Y711D01*
X837Y711D02*
X841Y711D01*
X771Y710D02*
X776Y710D01*
X779Y710D02*
X783Y710D01*
X803Y710D02*
X807Y710D01*
X837Y710D02*
X842Y710D01*
X772Y709D02*
X776Y709D01*
X779Y709D02*
X783Y709D01*
X803Y709D02*
X808Y709D01*
X838Y709D02*
X842Y709D01*
X772Y708D02*
X776Y708D01*
X778Y708D02*
X783Y708D01*
X804Y708D02*
X808Y708D01*
X838Y708D02*
X843Y708D01*
X772Y707D02*
X782Y707D01*
X804Y707D02*
X809Y707D01*
X839Y707D02*
X843Y707D01*
X773Y706D02*
X782Y706D01*
X805Y706D02*
X809Y706D01*
X839Y706D02*
X844Y706D01*
X773Y705D02*
X781Y705D01*
X805Y705D02*
X810Y705D01*
X840Y705D02*
X844Y705D01*
X774Y704D02*
X781Y704D01*
X806Y704D02*
X810Y704D01*
X840Y704D02*
X845Y704D01*
X774Y703D02*
X781Y703D01*
X806Y703D02*
X811Y703D01*
X841Y703D02*
X846Y703D01*
X774Y702D02*
X780Y702D01*
X807Y702D02*
X823Y702D01*
X841Y702D02*
X858Y702D01*
X775Y701D02*
X780Y701D01*
X807Y701D02*
X824Y701D01*
X842Y701D02*
X858Y701D01*
X775Y700D02*
X779Y700D01*
X808Y700D02*
X824Y700D01*
X843Y700D02*
X859Y700D01*
X776Y699D02*
X779Y699D01*
X809Y699D02*
X823Y699D01*
X844Y699D02*
X858Y699D01*
X777Y698D02*
X778Y698D01*
X811Y698D02*
X822Y698D01*
X846Y698D02*
X857Y698D01*
X767Y636D02*
X779Y636D01*
X812Y636D02*
X813Y636D01*
X836Y636D02*
X859Y636D01*
X881Y636D02*
X883Y636D01*
X766Y635D02*
X781Y635D01*
X811Y635D02*
X814Y635D01*
X836Y635D02*
X859Y635D01*
X881Y635D02*
X884Y635D01*
X766Y634D02*
X782Y634D01*
X810Y634D02*
X814Y634D01*
X836Y634D02*
X859Y634D01*
X880Y634D02*
X884Y634D01*
X766Y633D02*
X782Y633D01*
X810Y633D02*
X815Y633D01*
X836Y633D02*
X859Y633D01*
X880Y633D02*
X884Y633D01*
X767Y632D02*
X783Y632D01*
X810Y632D02*
X815Y632D01*
X836Y632D02*
X859Y632D01*
X879Y632D02*
X885Y632D01*
X771Y631D02*
X775Y631D01*
X779Y631D02*
X784Y631D01*
X809Y631D02*
X815Y631D01*
X836Y631D02*
X840Y631D01*
X845Y631D02*
X849Y631D01*
X855Y631D02*
X859Y631D01*
X879Y631D02*
X885Y631D01*
X771Y630D02*
X775Y630D01*
X780Y630D02*
X784Y630D01*
X809Y630D02*
X816Y630D01*
X836Y630D02*
X840Y630D01*
X845Y630D02*
X849Y630D01*
X855Y630D02*
X859Y630D01*
X879Y630D02*
X885Y630D01*
X771Y629D02*
X775Y629D01*
X780Y629D02*
X785Y629D01*
X809Y629D02*
X816Y629D01*
X836Y629D02*
X839Y629D01*
X845Y629D02*
X849Y629D01*
X855Y629D02*
X859Y629D01*
X879Y629D02*
X886Y629D01*
X771Y628D02*
X775Y628D01*
X781Y628D02*
X785Y628D01*
X809Y628D02*
X816Y628D01*
X837Y628D02*
X839Y628D01*
X845Y628D02*
X849Y628D01*
X856Y628D02*
X858Y628D01*
X878Y628D02*
X886Y628D01*
X771Y627D02*
X775Y627D01*
X781Y627D02*
X786Y627D01*
X808Y627D02*
X816Y627D01*
X845Y627D02*
X849Y627D01*
X878Y627D02*
X886Y627D01*
X771Y626D02*
X775Y626D01*
X782Y626D02*
X786Y626D01*
X808Y626D02*
X817Y626D01*
X845Y626D02*
X849Y626D01*
X878Y626D02*
X886Y626D01*
X771Y625D02*
X775Y625D01*
X782Y625D02*
X787Y625D01*
X808Y625D02*
X817Y625D01*
X845Y625D02*
X849Y625D01*
X877Y625D02*
X887Y625D01*
X771Y624D02*
X775Y624D01*
X783Y624D02*
X787Y624D01*
X807Y624D02*
X811Y624D01*
X813Y624D02*
X817Y624D01*
X845Y624D02*
X849Y624D01*
X877Y624D02*
X881Y624D01*
X883Y624D02*
X887Y624D01*
X771Y623D02*
X775Y623D01*
X783Y623D02*
X788Y623D01*
X807Y623D02*
X811Y623D01*
X813Y623D02*
X818Y623D01*
X845Y623D02*
X849Y623D01*
X877Y623D02*
X881Y623D01*
X883Y623D02*
X887Y623D01*
X771Y622D02*
X775Y622D01*
X784Y622D02*
X788Y622D01*
X807Y622D02*
X811Y622D01*
X814Y622D02*
X818Y622D01*
X845Y622D02*
X849Y622D01*
X877Y622D02*
X881Y622D01*
X884Y622D02*
X888Y622D01*
X771Y621D02*
X775Y621D01*
X784Y621D02*
X788Y621D01*
X806Y621D02*
X811Y621D01*
X814Y621D02*
X818Y621D01*
X845Y621D02*
X849Y621D01*
X876Y621D02*
X880Y621D01*
X884Y621D02*
X888Y621D01*
X771Y620D02*
X775Y620D01*
X785Y620D02*
X789Y620D01*
X806Y620D02*
X810Y620D01*
X814Y620D02*
X818Y620D01*
X845Y620D02*
X849Y620D01*
X876Y620D02*
X880Y620D01*
X884Y620D02*
X888Y620D01*
X771Y619D02*
X775Y619D01*
X785Y619D02*
X789Y619D01*
X806Y619D02*
X810Y619D01*
X815Y619D02*
X819Y619D01*
X845Y619D02*
X849Y619D01*
X876Y619D02*
X880Y619D01*
X884Y619D02*
X889Y619D01*
X771Y618D02*
X775Y618D01*
X785Y618D02*
X789Y618D01*
X806Y618D02*
X810Y618D01*
X815Y618D02*
X819Y618D01*
X845Y618D02*
X849Y618D01*
X875Y618D02*
X879Y618D01*
X885Y618D02*
X889Y618D01*
X771Y617D02*
X775Y617D01*
X785Y617D02*
X789Y617D01*
X805Y617D02*
X809Y617D01*
X815Y617D02*
X819Y617D01*
X845Y617D02*
X849Y617D01*
X875Y617D02*
X879Y617D01*
X885Y617D02*
X889Y617D01*
X771Y616D02*
X775Y616D01*
X785Y616D02*
X789Y616D01*
X805Y616D02*
X809Y616D01*
X816Y616D02*
X820Y616D01*
X845Y616D02*
X849Y616D01*
X875Y616D02*
X879Y616D01*
X885Y616D02*
X889Y616D01*
X771Y615D02*
X775Y615D01*
X785Y615D02*
X789Y615D01*
X805Y615D02*
X809Y615D01*
X816Y615D02*
X820Y615D01*
X845Y615D02*
X849Y615D01*
X874Y615D02*
X879Y615D01*
X886Y615D02*
X890Y615D01*
X771Y614D02*
X775Y614D01*
X784Y614D02*
X788Y614D01*
X804Y614D02*
X809Y614D01*
X816Y614D02*
X820Y614D01*
X845Y614D02*
X849Y614D01*
X874Y614D02*
X878Y614D01*
X886Y614D02*
X890Y614D01*
X771Y613D02*
X775Y613D01*
X784Y613D02*
X788Y613D01*
X804Y613D02*
X808Y613D01*
X816Y613D02*
X821Y613D01*
X845Y613D02*
X849Y613D01*
X874Y613D02*
X878Y613D01*
X886Y613D02*
X890Y613D01*
X771Y612D02*
X775Y612D01*
X783Y612D02*
X788Y612D01*
X804Y612D02*
X808Y612D01*
X817Y612D02*
X821Y612D01*
X845Y612D02*
X849Y612D01*
X874Y612D02*
X878Y612D01*
X886Y612D02*
X891Y612D01*
X771Y611D02*
X775Y611D01*
X783Y611D02*
X787Y611D01*
X804Y611D02*
X821Y611D01*
X845Y611D02*
X849Y611D01*
X873Y611D02*
X891Y611D01*
X771Y610D02*
X775Y610D01*
X782Y610D02*
X787Y610D01*
X803Y610D02*
X821Y610D01*
X845Y610D02*
X849Y610D01*
X873Y610D02*
X891Y610D01*
X771Y609D02*
X775Y609D01*
X782Y609D02*
X786Y609D01*
X803Y609D02*
X822Y609D01*
X845Y609D02*
X849Y609D01*
X873Y609D02*
X891Y609D01*
X771Y608D02*
X775Y608D01*
X781Y608D02*
X786Y608D01*
X803Y608D02*
X822Y608D01*
X845Y608D02*
X849Y608D01*
X872Y608D02*
X892Y608D01*
X771Y607D02*
X775Y607D01*
X781Y607D02*
X785Y607D01*
X802Y607D02*
X822Y607D01*
X845Y607D02*
X849Y607D01*
X872Y607D02*
X892Y607D01*
X771Y606D02*
X775Y606D01*
X780Y606D02*
X785Y606D01*
X802Y606D02*
X806Y606D01*
X818Y606D02*
X823Y606D01*
X845Y606D02*
X849Y606D01*
X872Y606D02*
X876Y606D01*
X888Y606D02*
X892Y606D01*
X771Y605D02*
X775Y605D01*
X780Y605D02*
X784Y605D01*
X802Y605D02*
X806Y605D01*
X819Y605D02*
X823Y605D01*
X845Y605D02*
X849Y605D01*
X872Y605D02*
X876Y605D01*
X889Y605D02*
X893Y605D01*
X771Y604D02*
X775Y604D01*
X779Y604D02*
X784Y604D01*
X802Y604D02*
X806Y604D01*
X819Y604D02*
X823Y604D01*
X845Y604D02*
X849Y604D01*
X871Y604D02*
X875Y604D01*
X889Y604D02*
X893Y604D01*
X767Y603D02*
X783Y603D01*
X801Y603D02*
X805Y603D01*
X819Y603D02*
X823Y603D01*
X845Y603D02*
X849Y603D01*
X871Y603D02*
X875Y603D01*
X889Y603D02*
X893Y603D01*
X766Y602D02*
X783Y602D01*
X801Y602D02*
X805Y602D01*
X820Y602D02*
X824Y602D01*
X845Y602D02*
X849Y602D01*
X871Y602D02*
X875Y602D01*
X889Y602D02*
X893Y602D01*
X766Y601D02*
X782Y601D01*
X801Y601D02*
X805Y601D01*
X820Y601D02*
X824Y601D01*
X845Y601D02*
X849Y601D01*
X870Y601D02*
X875Y601D01*
X890Y601D02*
X894Y601D01*
X766Y600D02*
X781Y600D01*
X801Y600D02*
X804Y600D01*
X820Y600D02*
X824Y600D01*
X846Y600D02*
X849Y600D01*
X871Y600D02*
X874Y600D01*
X890Y600D02*
X893Y600D01*
X767Y599D02*
X779Y599D01*
X802Y599D02*
X803Y599D01*
X821Y599D02*
X823Y599D01*
X847Y599D02*
X848Y599D01*
X872Y599D02*
X873Y599D01*
X891Y599D02*
X892Y599D01*
X777Y539D02*
X791Y539D01*
X804Y539D02*
X806Y539D01*
X838Y539D02*
X841Y539D01*
X858Y539D02*
X860Y539D01*
X776Y538D02*
X791Y538D01*
X803Y538D02*
X807Y538D01*
X838Y538D02*
X842Y538D01*
X856Y538D02*
X861Y538D01*
X775Y537D02*
X791Y537D01*
X803Y537D02*
X807Y537D01*
X838Y537D02*
X842Y537D01*
X855Y537D02*
X861Y537D01*
X774Y536D02*
X791Y536D01*
X803Y536D02*
X807Y536D01*
X838Y536D02*
X842Y536D01*
X854Y536D02*
X860Y536D01*
X774Y535D02*
X780Y535D01*
X803Y535D02*
X807Y535D01*
X838Y535D02*
X842Y535D01*
X853Y535D02*
X859Y535D01*
X773Y534D02*
X778Y534D01*
X803Y534D02*
X807Y534D01*
X838Y534D02*
X842Y534D01*
X852Y534D02*
X858Y534D01*
X773Y533D02*
X777Y533D01*
X803Y533D02*
X807Y533D01*
X838Y533D02*
X842Y533D01*
X851Y533D02*
X857Y533D01*
X772Y532D02*
X777Y532D01*
X803Y532D02*
X807Y532D01*
X838Y532D02*
X842Y532D01*
X849Y532D02*
X856Y532D01*
X772Y531D02*
X776Y531D01*
X803Y531D02*
X807Y531D01*
X838Y531D02*
X842Y531D01*
X848Y531D02*
X855Y531D01*
X771Y530D02*
X776Y530D01*
X803Y530D02*
X807Y530D01*
X838Y530D02*
X842Y530D01*
X847Y530D02*
X854Y530D01*
X771Y529D02*
X775Y529D01*
X803Y529D02*
X807Y529D01*
X838Y529D02*
X842Y529D01*
X846Y529D02*
X852Y529D01*
X770Y528D02*
X775Y528D01*
X803Y528D02*
X807Y528D01*
X838Y528D02*
X842Y528D01*
X845Y528D02*
X851Y528D01*
X770Y527D02*
X774Y527D01*
X803Y527D02*
X807Y527D01*
X838Y527D02*
X842Y527D01*
X844Y527D02*
X850Y527D01*
X769Y526D02*
X774Y526D01*
X803Y526D02*
X807Y526D01*
X838Y526D02*
X849Y526D01*
X769Y525D02*
X773Y525D01*
X803Y525D02*
X807Y525D01*
X838Y525D02*
X848Y525D01*
X769Y524D02*
X773Y524D01*
X803Y524D02*
X807Y524D01*
X838Y524D02*
X847Y524D01*
X768Y523D02*
X772Y523D01*
X803Y523D02*
X807Y523D01*
X838Y523D02*
X845Y523D01*
X768Y522D02*
X772Y522D01*
X803Y522D02*
X807Y522D01*
X838Y522D02*
X844Y522D01*
X768Y521D02*
X772Y521D01*
X803Y521D02*
X807Y521D01*
X838Y521D02*
X843Y521D01*
X768Y520D02*
X772Y520D01*
X803Y520D02*
X807Y520D01*
X838Y520D02*
X844Y520D01*
X768Y519D02*
X772Y519D01*
X803Y519D02*
X807Y519D01*
X838Y519D02*
X846Y519D01*
X769Y518D02*
X773Y518D01*
X803Y518D02*
X807Y518D01*
X838Y518D02*
X847Y518D01*
X769Y517D02*
X773Y517D01*
X803Y517D02*
X807Y517D01*
X838Y517D02*
X848Y517D01*
X769Y516D02*
X774Y516D01*
X803Y516D02*
X807Y516D01*
X838Y516D02*
X849Y516D01*
X770Y515D02*
X774Y515D01*
X803Y515D02*
X807Y515D01*
X838Y515D02*
X842Y515D01*
X844Y515D02*
X850Y515D01*
X770Y514D02*
X775Y514D01*
X803Y514D02*
X807Y514D01*
X838Y514D02*
X842Y514D01*
X845Y514D02*
X851Y514D01*
X771Y513D02*
X775Y513D01*
X803Y513D02*
X807Y513D01*
X838Y513D02*
X842Y513D01*
X846Y513D02*
X853Y513D01*
X771Y512D02*
X776Y512D01*
X803Y512D02*
X807Y512D01*
X838Y512D02*
X842Y512D01*
X847Y512D02*
X854Y512D01*
X772Y511D02*
X776Y511D01*
X803Y511D02*
X807Y511D01*
X838Y511D02*
X842Y511D01*
X848Y511D02*
X855Y511D01*
X772Y510D02*
X777Y510D01*
X803Y510D02*
X807Y510D01*
X838Y510D02*
X842Y510D01*
X850Y510D02*
X856Y510D01*
X773Y509D02*
X777Y509D01*
X803Y509D02*
X807Y509D01*
X838Y509D02*
X842Y509D01*
X851Y509D02*
X857Y509D01*
X773Y508D02*
X778Y508D01*
X803Y508D02*
X807Y508D01*
X838Y508D02*
X842Y508D01*
X852Y508D02*
X858Y508D01*
X774Y507D02*
X789Y507D01*
X803Y507D02*
X824Y507D01*
X838Y507D02*
X842Y507D01*
X853Y507D02*
X860Y507D01*
X774Y506D02*
X791Y506D01*
X803Y506D02*
X826Y506D01*
X838Y506D02*
X842Y506D01*
X854Y506D02*
X861Y506D01*
X775Y505D02*
X791Y505D01*
X803Y505D02*
X826Y505D01*
X838Y505D02*
X842Y505D01*
X855Y505D02*
X861Y505D01*
X776Y504D02*
X791Y504D01*
X803Y504D02*
X826Y504D01*
X838Y504D02*
X842Y504D01*
X857Y504D02*
X861Y504D01*
X778Y503D02*
X791Y503D01*
X803Y503D02*
X825Y503D01*
X839Y503D02*
X841Y503D01*
X858Y503D02*
X860Y503D01*
X776Y438D02*
X788Y438D01*
X811Y438D02*
X822Y438D01*
X773Y437D02*
X790Y437D01*
X808Y437D02*
X825Y437D01*
X772Y436D02*
X792Y436D01*
X807Y436D02*
X826Y436D01*
X771Y435D02*
X792Y435D01*
X806Y435D02*
X827Y435D01*
X771Y434D02*
X793Y434D01*
X806Y434D02*
X828Y434D01*
X770Y433D02*
X775Y433D01*
X788Y433D02*
X793Y433D01*
X805Y433D02*
X810Y433D01*
X823Y433D02*
X828Y433D01*
X770Y432D02*
X775Y432D01*
X789Y432D02*
X793Y432D01*
X805Y432D02*
X809Y432D01*
X824Y432D02*
X828Y432D01*
X771Y431D02*
X775Y431D01*
X790Y431D02*
X793Y431D01*
X806Y431D02*
X810Y431D01*
X825Y431D02*
X828Y431D01*
X771Y430D02*
X776Y430D01*
X790Y430D02*
X793Y430D01*
X806Y430D02*
X811Y430D01*
X825Y430D02*
X828Y430D01*
X772Y429D02*
X777Y429D01*
X807Y429D02*
X812Y429D01*
X772Y428D02*
X778Y428D01*
X807Y428D02*
X813Y428D01*
X773Y427D02*
X778Y427D01*
X808Y427D02*
X813Y427D01*
X774Y426D02*
X779Y426D01*
X809Y426D02*
X814Y426D01*
X775Y425D02*
X780Y425D01*
X810Y425D02*
X815Y425D01*
X775Y424D02*
X781Y424D01*
X810Y424D02*
X816Y424D01*
X776Y423D02*
X782Y423D01*
X811Y423D02*
X816Y423D01*
X777Y422D02*
X782Y422D01*
X812Y422D02*
X817Y422D01*
X778Y421D02*
X783Y421D01*
X813Y421D02*
X818Y421D01*
X779Y420D02*
X784Y420D01*
X813Y420D02*
X819Y420D01*
X779Y419D02*
X785Y419D01*
X814Y419D02*
X820Y419D01*
X780Y418D02*
X785Y418D01*
X815Y418D02*
X820Y418D01*
X781Y417D02*
X786Y417D01*
X816Y417D02*
X821Y417D01*
X782Y416D02*
X787Y416D01*
X817Y416D02*
X822Y416D01*
X782Y415D02*
X788Y415D01*
X817Y415D02*
X823Y415D01*
X783Y414D02*
X789Y414D01*
X818Y414D02*
X823Y414D01*
X784Y413D02*
X789Y413D01*
X819Y413D02*
X824Y413D01*
X785Y412D02*
X790Y412D01*
X820Y412D02*
X825Y412D01*
X786Y411D02*
X791Y411D01*
X820Y411D02*
X826Y411D01*
X786Y410D02*
X792Y410D01*
X821Y410D02*
X827Y410D01*
X772Y409D02*
X773Y409D01*
X787Y409D02*
X792Y409D01*
X807Y409D02*
X808Y409D01*
X822Y409D02*
X827Y409D01*
X771Y408D02*
X774Y408D01*
X788Y408D02*
X793Y408D01*
X806Y408D02*
X809Y408D01*
X823Y408D02*
X828Y408D01*
X770Y407D02*
X774Y407D01*
X789Y407D02*
X793Y407D01*
X805Y407D02*
X809Y407D01*
X824Y407D02*
X828Y407D01*
X770Y406D02*
X775Y406D01*
X789Y406D02*
X793Y406D01*
X805Y406D02*
X809Y406D01*
X824Y406D02*
X828Y406D01*
X771Y405D02*
X793Y405D01*
X806Y405D02*
X828Y405D01*
X771Y404D02*
X793Y404D01*
X806Y404D02*
X828Y404D01*
X772Y403D02*
X793Y403D01*
X807Y403D02*
X827Y403D01*
X773Y402D02*
X792Y402D01*
X808Y402D02*
X827Y402D01*
X774Y401D02*
X791Y401D01*
X809Y401D02*
X825Y401D01*
X772Y338D02*
X784Y338D01*
X796Y338D02*
X802Y338D01*
X816Y338D02*
X819Y338D01*
X832Y338D02*
X845Y338D01*
X771Y337D02*
X785Y337D01*
X796Y337D02*
X803Y337D01*
X816Y337D02*
X819Y337D01*
X831Y337D02*
X847Y337D01*
X770Y336D02*
X785Y336D01*
X796Y336D02*
X803Y336D01*
X816Y336D02*
X820Y336D01*
X831Y336D02*
X848Y336D01*
X769Y335D02*
X784Y335D01*
X796Y335D02*
X804Y335D01*
X816Y335D02*
X820Y335D01*
X832Y335D02*
X848Y335D01*
X769Y334D02*
X782Y334D01*
X796Y334D02*
X804Y334D01*
X816Y334D02*
X820Y334D01*
X834Y334D02*
X849Y334D01*
X768Y333D02*
X773Y333D01*
X796Y333D02*
X805Y333D01*
X816Y333D02*
X820Y333D01*
X836Y333D02*
X840Y333D01*
X845Y333D02*
X849Y333D01*
X767Y332D02*
X772Y332D01*
X796Y332D02*
X805Y332D01*
X816Y332D02*
X820Y332D01*
X836Y332D02*
X840Y332D01*
X845Y332D02*
X850Y332D01*
X766Y331D02*
X772Y331D01*
X796Y331D02*
X805Y331D01*
X816Y331D02*
X820Y331D01*
X836Y331D02*
X840Y331D01*
X846Y331D02*
X850Y331D01*
X766Y330D02*
X771Y330D01*
X796Y330D02*
X806Y330D01*
X816Y330D02*
X820Y330D01*
X836Y330D02*
X840Y330D01*
X846Y330D02*
X851Y330D01*
X765Y329D02*
X770Y329D01*
X796Y329D02*
X806Y329D01*
X816Y329D02*
X820Y329D01*
X836Y329D02*
X840Y329D01*
X847Y329D02*
X851Y329D01*
X764Y328D02*
X769Y328D01*
X796Y328D02*
X800Y328D01*
X802Y328D02*
X807Y328D01*
X816Y328D02*
X820Y328D01*
X836Y328D02*
X840Y328D01*
X847Y328D02*
X852Y328D01*
X763Y327D02*
X768Y327D01*
X796Y327D02*
X800Y327D01*
X803Y327D02*
X807Y327D01*
X816Y327D02*
X820Y327D01*
X836Y327D02*
X840Y327D01*
X848Y327D02*
X852Y327D01*
X763Y326D02*
X768Y326D01*
X796Y326D02*
X800Y326D01*
X803Y326D02*
X808Y326D01*
X816Y326D02*
X820Y326D01*
X836Y326D02*
X840Y326D01*
X848Y326D02*
X853Y326D01*
X762Y325D02*
X767Y325D01*
X796Y325D02*
X800Y325D01*
X804Y325D02*
X808Y325D01*
X816Y325D02*
X820Y325D01*
X836Y325D02*
X840Y325D01*
X849Y325D02*
X853Y325D01*
X762Y324D02*
X766Y324D01*
X796Y324D02*
X800Y324D01*
X804Y324D02*
X808Y324D01*
X816Y324D02*
X820Y324D01*
X836Y324D02*
X840Y324D01*
X849Y324D02*
X854Y324D01*
X762Y323D02*
X766Y323D01*
X796Y323D02*
X800Y323D01*
X805Y323D02*
X809Y323D01*
X816Y323D02*
X820Y323D01*
X836Y323D02*
X840Y323D01*
X850Y323D02*
X854Y323D01*
X762Y322D02*
X766Y322D01*
X796Y322D02*
X800Y322D01*
X805Y322D02*
X809Y322D01*
X816Y322D02*
X820Y322D01*
X836Y322D02*
X840Y322D01*
X850Y322D02*
X854Y322D01*
X762Y321D02*
X765Y321D01*
X796Y321D02*
X800Y321D01*
X805Y321D02*
X810Y321D01*
X816Y321D02*
X820Y321D01*
X836Y321D02*
X840Y321D01*
X850Y321D02*
X854Y321D01*
X762Y320D02*
X765Y320D01*
X796Y320D02*
X800Y320D01*
X806Y320D02*
X810Y320D01*
X816Y320D02*
X820Y320D01*
X836Y320D02*
X840Y320D01*
X851Y320D02*
X854Y320D01*
X762Y319D02*
X765Y319D01*
X796Y319D02*
X800Y319D01*
X806Y319D02*
X811Y319D01*
X816Y319D02*
X820Y319D01*
X836Y319D02*
X840Y319D01*
X850Y319D02*
X854Y319D01*
X762Y318D02*
X765Y318D01*
X775Y318D02*
X785Y318D01*
X796Y318D02*
X800Y318D01*
X807Y318D02*
X811Y318D01*
X816Y318D02*
X820Y318D01*
X836Y318D02*
X840Y318D01*
X850Y318D02*
X854Y318D01*
X762Y317D02*
X765Y317D01*
X774Y317D02*
X785Y317D01*
X796Y317D02*
X800Y317D01*
X807Y317D02*
X812Y317D01*
X816Y317D02*
X820Y317D01*
X836Y317D02*
X840Y317D01*
X850Y317D02*
X854Y317D01*
X762Y316D02*
X765Y316D01*
X774Y316D02*
X785Y316D01*
X796Y316D02*
X800Y316D01*
X808Y316D02*
X812Y316D01*
X816Y316D02*
X820Y316D01*
X836Y316D02*
X840Y316D01*
X849Y316D02*
X854Y316D01*
X762Y315D02*
X765Y315D01*
X774Y315D02*
X785Y315D01*
X796Y315D02*
X800Y315D01*
X808Y315D02*
X812Y315D01*
X816Y315D02*
X820Y315D01*
X836Y315D02*
X840Y315D01*
X849Y315D02*
X853Y315D01*
X762Y314D02*
X765Y314D01*
X775Y314D02*
X785Y314D01*
X796Y314D02*
X800Y314D01*
X808Y314D02*
X813Y314D01*
X816Y314D02*
X820Y314D01*
X836Y314D02*
X840Y314D01*
X848Y314D02*
X853Y314D01*
X762Y313D02*
X765Y313D01*
X781Y313D02*
X785Y313D01*
X796Y313D02*
X800Y313D01*
X809Y313D02*
X813Y313D01*
X816Y313D02*
X820Y313D01*
X836Y313D02*
X840Y313D01*
X848Y313D02*
X852Y313D01*
X762Y312D02*
X765Y312D01*
X781Y312D02*
X785Y312D01*
X796Y312D02*
X800Y312D01*
X809Y312D02*
X814Y312D01*
X816Y312D02*
X820Y312D01*
X836Y312D02*
X840Y312D01*
X847Y312D02*
X852Y312D01*
X762Y311D02*
X765Y311D01*
X781Y311D02*
X785Y311D01*
X796Y311D02*
X800Y311D01*
X810Y311D02*
X814Y311D01*
X816Y311D02*
X820Y311D01*
X836Y311D02*
X840Y311D01*
X847Y311D02*
X851Y311D01*
X762Y310D02*
X765Y310D01*
X781Y310D02*
X785Y310D01*
X796Y310D02*
X800Y310D01*
X810Y310D02*
X820Y310D01*
X836Y310D02*
X840Y310D01*
X846Y310D02*
X851Y310D01*
X762Y309D02*
X765Y309D01*
X781Y309D02*
X785Y309D01*
X796Y309D02*
X800Y309D01*
X811Y309D02*
X820Y309D01*
X836Y309D02*
X840Y309D01*
X846Y309D02*
X850Y309D01*
X762Y308D02*
X766Y308D01*
X781Y308D02*
X785Y308D01*
X796Y308D02*
X800Y308D01*
X811Y308D02*
X820Y308D01*
X836Y308D02*
X840Y308D01*
X845Y308D02*
X850Y308D01*
X762Y307D02*
X766Y307D01*
X780Y307D02*
X785Y307D01*
X796Y307D02*
X800Y307D01*
X812Y307D02*
X820Y307D01*
X836Y307D02*
X840Y307D01*
X845Y307D02*
X849Y307D01*
X762Y306D02*
X784Y306D01*
X796Y306D02*
X800Y306D01*
X812Y306D02*
X820Y306D01*
X834Y306D02*
X849Y306D01*
X762Y305D02*
X784Y305D01*
X796Y305D02*
X800Y305D01*
X812Y305D02*
X820Y305D01*
X832Y305D02*
X848Y305D01*
X763Y304D02*
X783Y304D01*
X796Y304D02*
X800Y304D01*
X813Y304D02*
X820Y304D01*
X831Y304D02*
X848Y304D01*
X764Y303D02*
X782Y303D01*
X797Y303D02*
X800Y303D01*
X813Y303D02*
X820Y303D01*
X831Y303D02*
X847Y303D01*
X765Y302D02*
X781Y302D01*
X797Y302D02*
X800Y302D01*
X814Y302D02*
X820Y302D01*
X832Y302D02*
X845Y302D01*
X768Y236D02*
X785Y236D01*
X801Y236D02*
X814Y236D01*
X844Y236D02*
X849Y236D01*
X766Y235D02*
X786Y235D01*
X800Y235D02*
X815Y235D01*
X842Y235D02*
X851Y235D01*
X766Y234D02*
X787Y234D01*
X800Y234D02*
X816Y234D01*
X842Y234D02*
X851Y234D01*
X765Y233D02*
X788Y233D01*
X801Y233D02*
X817Y233D01*
X841Y233D02*
X852Y233D01*
X765Y232D02*
X770Y232D01*
X783Y232D02*
X788Y232D01*
X804Y232D02*
X809Y232D01*
X812Y232D02*
X817Y232D01*
X841Y232D02*
X852Y232D01*
X765Y231D02*
X769Y231D01*
X784Y231D02*
X788Y231D01*
X805Y231D02*
X809Y231D01*
X813Y231D02*
X818Y231D01*
X840Y231D02*
X845Y231D01*
X848Y231D02*
X853Y231D01*
X765Y230D02*
X770Y230D01*
X784Y230D02*
X788Y230D01*
X805Y230D02*
X809Y230D01*
X814Y230D02*
X818Y230D01*
X840Y230D02*
X844Y230D01*
X849Y230D02*
X853Y230D01*
X766Y229D02*
X771Y229D01*
X785Y229D02*
X788Y229D01*
X805Y229D02*
X809Y229D01*
X814Y229D02*
X819Y229D01*
X839Y229D02*
X844Y229D01*
X849Y229D02*
X854Y229D01*
X766Y228D02*
X772Y228D01*
X805Y228D02*
X809Y228D01*
X815Y228D02*
X819Y228D01*
X839Y228D02*
X843Y228D01*
X850Y228D02*
X854Y228D01*
X767Y227D02*
X772Y227D01*
X805Y227D02*
X809Y227D01*
X815Y227D02*
X820Y227D01*
X838Y227D02*
X843Y227D01*
X850Y227D02*
X855Y227D01*
X768Y226D02*
X773Y226D01*
X805Y226D02*
X809Y226D01*
X816Y226D02*
X820Y226D01*
X838Y226D02*
X842Y226D01*
X851Y226D02*
X855Y226D01*
X769Y225D02*
X774Y225D01*
X805Y225D02*
X809Y225D01*
X817Y225D02*
X821Y225D01*
X837Y225D02*
X842Y225D01*
X851Y225D02*
X856Y225D01*
X769Y224D02*
X775Y224D01*
X805Y224D02*
X809Y224D01*
X817Y224D02*
X821Y224D01*
X837Y224D02*
X841Y224D01*
X852Y224D02*
X856Y224D01*
X770Y223D02*
X775Y223D01*
X805Y223D02*
X809Y223D01*
X818Y223D02*
X822Y223D01*
X836Y223D02*
X841Y223D01*
X852Y223D02*
X857Y223D01*
X771Y222D02*
X776Y222D01*
X805Y222D02*
X809Y222D01*
X818Y222D02*
X822Y222D01*
X836Y222D02*
X840Y222D01*
X853Y222D02*
X857Y222D01*
X772Y221D02*
X777Y221D01*
X805Y221D02*
X809Y221D01*
X819Y221D02*
X823Y221D01*
X835Y221D02*
X840Y221D01*
X853Y221D02*
X858Y221D01*
X773Y220D02*
X778Y220D01*
X805Y220D02*
X809Y220D01*
X819Y220D02*
X823Y220D01*
X835Y220D02*
X839Y220D01*
X854Y220D02*
X858Y220D01*
X773Y219D02*
X779Y219D01*
X805Y219D02*
X809Y219D01*
X819Y219D02*
X823Y219D01*
X835Y219D02*
X839Y219D01*
X854Y219D02*
X858Y219D01*
X774Y218D02*
X779Y218D01*
X805Y218D02*
X809Y218D01*
X819Y218D02*
X823Y218D01*
X835Y218D02*
X839Y218D01*
X854Y218D02*
X858Y218D01*
X775Y217D02*
X780Y217D01*
X805Y217D02*
X809Y217D01*
X819Y217D02*
X823Y217D01*
X835Y217D02*
X839Y217D01*
X854Y217D02*
X858Y217D01*
X776Y216D02*
X781Y216D01*
X805Y216D02*
X809Y216D01*
X819Y216D02*
X823Y216D01*
X835Y216D02*
X839Y216D01*
X854Y216D02*
X858Y216D01*
X776Y215D02*
X782Y215D01*
X805Y215D02*
X809Y215D01*
X818Y215D02*
X823Y215D01*
X835Y215D02*
X840Y215D01*
X853Y215D02*
X858Y215D01*
X777Y214D02*
X782Y214D01*
X805Y214D02*
X809Y214D01*
X818Y214D02*
X822Y214D01*
X836Y214D02*
X840Y214D01*
X853Y214D02*
X857Y214D01*
X778Y213D02*
X783Y213D01*
X805Y213D02*
X809Y213D01*
X817Y213D02*
X822Y213D01*
X836Y213D02*
X841Y213D01*
X852Y213D02*
X857Y213D01*
X779Y212D02*
X784Y212D01*
X805Y212D02*
X809Y212D01*
X817Y212D02*
X821Y212D01*
X837Y212D02*
X841Y212D01*
X852Y212D02*
X856Y212D01*
X780Y211D02*
X785Y211D01*
X805Y211D02*
X809Y211D01*
X816Y211D02*
X821Y211D01*
X837Y211D02*
X842Y211D01*
X851Y211D02*
X856Y211D01*
X780Y210D02*
X786Y210D01*
X805Y210D02*
X809Y210D01*
X816Y210D02*
X820Y210D01*
X838Y210D02*
X842Y210D01*
X851Y210D02*
X855Y210D01*
X781Y209D02*
X786Y209D01*
X805Y209D02*
X809Y209D01*
X815Y209D02*
X820Y209D01*
X838Y209D02*
X843Y209D01*
X850Y209D02*
X855Y209D01*
X767Y208D02*
X767Y208D01*
X782Y208D02*
X787Y208D01*
X805Y208D02*
X809Y208D01*
X815Y208D02*
X819Y208D01*
X839Y208D02*
X843Y208D01*
X850Y208D02*
X854Y208D01*
X766Y207D02*
X769Y207D01*
X783Y207D02*
X788Y207D01*
X805Y207D02*
X809Y207D01*
X814Y207D02*
X819Y207D01*
X839Y207D02*
X844Y207D01*
X849Y207D02*
X854Y207D01*
X765Y206D02*
X769Y206D01*
X783Y206D02*
X788Y206D01*
X805Y206D02*
X809Y206D01*
X814Y206D02*
X818Y206D01*
X840Y206D02*
X844Y206D01*
X849Y206D02*
X853Y206D01*
X765Y205D02*
X769Y205D01*
X784Y205D02*
X788Y205D01*
X805Y205D02*
X809Y205D01*
X813Y205D02*
X818Y205D01*
X840Y205D02*
X845Y205D01*
X848Y205D02*
X853Y205D01*
X765Y204D02*
X788Y204D01*
X802Y204D02*
X817Y204D01*
X841Y204D02*
X852Y204D01*
X766Y203D02*
X788Y203D01*
X800Y203D02*
X817Y203D01*
X841Y203D02*
X852Y203D01*
X766Y202D02*
X787Y202D01*
X800Y202D02*
X816Y202D01*
X842Y202D02*
X851Y202D01*
X767Y201D02*
X787Y201D01*
X800Y201D02*
X815Y201D01*
X843Y201D02*
X850Y201D01*
X769Y200D02*
X785Y200D01*
X801Y200D02*
X814Y200D01*
X844Y200D02*
X849Y200D01*
X69Y111D02*
X73Y111D01*
X322Y111D02*
X326Y111D01*
X466Y111D02*
X470Y111D01*
X650Y111D02*
X654Y111D01*
X68Y110D02*
X74Y110D01*
X321Y110D02*
X327Y110D01*
X465Y110D02*
X471Y110D01*
X649Y110D02*
X655Y110D01*
X67Y109D02*
X75Y109D01*
X320Y109D02*
X328Y109D01*
X464Y109D02*
X472Y109D01*
X648Y109D02*
X656Y109D01*
X67Y108D02*
X75Y108D01*
X320Y108D02*
X329Y108D01*
X464Y108D02*
X473Y108D01*
X648Y108D02*
X656Y108D01*
X66Y107D02*
X75Y107D01*
X320Y107D02*
X329Y107D01*
X464Y107D02*
X473Y107D01*
X647Y107D02*
X656Y107D01*
X66Y106D02*
X76Y106D01*
X320Y106D02*
X329Y106D01*
X464Y106D02*
X473Y106D01*
X647Y106D02*
X657Y106D01*
X66Y105D02*
X76Y105D01*
X320Y105D02*
X329Y105D01*
X464Y105D02*
X473Y105D01*
X647Y105D02*
X657Y105D01*
X66Y104D02*
X76Y104D01*
X320Y104D02*
X329Y104D01*
X464Y104D02*
X473Y104D01*
X647Y104D02*
X657Y104D01*
X66Y103D02*
X76Y103D01*
X320Y103D02*
X329Y103D01*
X464Y103D02*
X473Y103D01*
X647Y103D02*
X657Y103D01*
X66Y102D02*
X76Y102D01*
X320Y102D02*
X329Y102D01*
X464Y102D02*
X473Y102D01*
X647Y102D02*
X657Y102D01*
X66Y101D02*
X76Y101D01*
X320Y101D02*
X329Y101D01*
X464Y101D02*
X473Y101D01*
X647Y101D02*
X657Y101D01*
X66Y100D02*
X76Y100D01*
X320Y100D02*
X329Y100D01*
X464Y100D02*
X473Y100D01*
X647Y100D02*
X657Y100D01*
X66Y99D02*
X76Y99D01*
X320Y99D02*
X329Y99D01*
X464Y99D02*
X473Y99D01*
X647Y99D02*
X657Y99D01*
X66Y98D02*
X76Y98D01*
X320Y98D02*
X329Y98D01*
X464Y98D02*
X473Y98D01*
X647Y98D02*
X657Y98D01*
X66Y97D02*
X76Y97D01*
X320Y97D02*
X329Y97D01*
X464Y97D02*
X473Y97D01*
X647Y97D02*
X657Y97D01*
X66Y96D02*
X76Y96D01*
X320Y96D02*
X329Y96D01*
X464Y96D02*
X473Y96D01*
X647Y96D02*
X657Y96D01*
X66Y95D02*
X76Y95D01*
X320Y95D02*
X329Y95D01*
X464Y95D02*
X473Y95D01*
X647Y95D02*
X657Y95D01*
X66Y94D02*
X76Y94D01*
X320Y94D02*
X329Y94D01*
X464Y94D02*
X473Y94D01*
X647Y94D02*
X657Y94D01*
X66Y93D02*
X76Y93D01*
X320Y93D02*
X329Y93D01*
X464Y93D02*
X473Y93D01*
X647Y93D02*
X657Y93D01*
X66Y92D02*
X76Y92D01*
X320Y92D02*
X329Y92D01*
X464Y92D02*
X473Y92D01*
X647Y92D02*
X657Y92D01*
X66Y91D02*
X76Y91D01*
X320Y91D02*
X329Y91D01*
X464Y91D02*
X473Y91D01*
X647Y91D02*
X657Y91D01*
X66Y90D02*
X76Y90D01*
X117Y90D02*
X140Y90D01*
X196Y90D02*
X221Y90D01*
X263Y90D02*
X281Y90D01*
X320Y90D02*
X329Y90D01*
X340Y90D02*
X353Y90D01*
X464Y90D02*
X473Y90D01*
X549Y90D02*
X572Y90D01*
X623Y90D02*
X636Y90D01*
X647Y90D02*
X657Y90D01*
X693Y90D02*
X716Y90D01*
X755Y90D02*
X758Y90D01*
X776Y90D02*
X788Y90D01*
X66Y89D02*
X76Y89D01*
X115Y89D02*
X142Y89D01*
X193Y89D02*
X223Y89D01*
X260Y89D02*
X284Y89D01*
X320Y89D02*
X329Y89D01*
X337Y89D02*
X356Y89D01*
X464Y89D02*
X473Y89D01*
X547Y89D02*
X574Y89D01*
X620Y89D02*
X639Y89D01*
X647Y89D02*
X657Y89D01*
X691Y89D02*
X718Y89D01*
X753Y89D02*
X759Y89D01*
X773Y89D02*
X790Y89D01*
X66Y88D02*
X76Y88D01*
X114Y88D02*
X144Y88D01*
X191Y88D02*
X224Y88D01*
X258Y88D02*
X286Y88D01*
X320Y88D02*
X329Y88D01*
X335Y88D02*
X358Y88D01*
X464Y88D02*
X473Y88D01*
X546Y88D02*
X576Y88D01*
X618Y88D02*
X641Y88D01*
X647Y88D02*
X657Y88D01*
X690Y88D02*
X720Y88D01*
X753Y88D02*
X760Y88D01*
X771Y88D02*
X792Y88D01*
X66Y87D02*
X76Y87D01*
X114Y87D02*
X146Y87D01*
X189Y87D02*
X224Y87D01*
X257Y87D02*
X287Y87D01*
X320Y87D02*
X329Y87D01*
X334Y87D02*
X359Y87D01*
X464Y87D02*
X473Y87D01*
X546Y87D02*
X578Y87D01*
X617Y87D02*
X642Y87D01*
X647Y87D02*
X657Y87D01*
X690Y87D02*
X722Y87D01*
X752Y87D02*
X760Y87D01*
X770Y87D02*
X794Y87D01*
X66Y86D02*
X76Y86D01*
X114Y86D02*
X147Y86D01*
X188Y86D02*
X224Y86D01*
X256Y86D02*
X288Y86D01*
X320Y86D02*
X329Y86D01*
X332Y86D02*
X360Y86D01*
X464Y86D02*
X473Y86D01*
X546Y86D02*
X579Y86D01*
X616Y86D02*
X643Y86D01*
X647Y86D02*
X657Y86D01*
X690Y86D02*
X723Y86D01*
X752Y86D02*
X761Y86D01*
X768Y86D02*
X795Y86D01*
X66Y85D02*
X76Y85D01*
X114Y85D02*
X148Y85D01*
X187Y85D02*
X224Y85D01*
X255Y85D02*
X290Y85D01*
X320Y85D02*
X329Y85D01*
X331Y85D02*
X362Y85D01*
X464Y85D02*
X473Y85D01*
X546Y85D02*
X580Y85D01*
X614Y85D02*
X645Y85D01*
X647Y85D02*
X657Y85D01*
X690Y85D02*
X724Y85D01*
X752Y85D02*
X761Y85D01*
X767Y85D02*
X796Y85D01*
X66Y84D02*
X76Y84D01*
X114Y84D02*
X148Y84D01*
X186Y84D02*
X224Y84D01*
X253Y84D02*
X291Y84D01*
X320Y84D02*
X363Y84D01*
X464Y84D02*
X473Y84D01*
X546Y84D02*
X580Y84D01*
X613Y84D02*
X657Y84D01*
X690Y84D02*
X724Y84D01*
X752Y84D02*
X761Y84D01*
X765Y84D02*
X796Y84D01*
X66Y83D02*
X76Y83D01*
X114Y83D02*
X149Y83D01*
X185Y83D02*
X224Y83D01*
X252Y83D02*
X292Y83D01*
X320Y83D02*
X364Y83D01*
X464Y83D02*
X473Y83D01*
X546Y83D02*
X581Y83D01*
X612Y83D02*
X657Y83D01*
X690Y83D02*
X725Y83D01*
X752Y83D02*
X761Y83D01*
X764Y83D02*
X797Y83D01*
X66Y82D02*
X76Y82D01*
X115Y82D02*
X150Y82D01*
X184Y82D02*
X223Y82D01*
X251Y82D02*
X293Y82D01*
X320Y82D02*
X365Y82D01*
X464Y82D02*
X473Y82D01*
X547Y82D02*
X582Y82D01*
X611Y82D02*
X657Y82D01*
X691Y82D02*
X726Y82D01*
X752Y82D02*
X798Y82D01*
X66Y81D02*
X76Y81D01*
X116Y81D02*
X150Y81D01*
X183Y81D02*
X222Y81D01*
X251Y81D02*
X294Y81D01*
X320Y81D02*
X366Y81D01*
X464Y81D02*
X473Y81D01*
X548Y81D02*
X582Y81D01*
X611Y81D02*
X657Y81D01*
X692Y81D02*
X726Y81D01*
X752Y81D02*
X798Y81D01*
X66Y80D02*
X76Y80D01*
X139Y80D02*
X150Y80D01*
X182Y80D02*
X197Y80D01*
X250Y80D02*
X264Y80D01*
X280Y80D02*
X294Y80D01*
X320Y80D02*
X341Y80D01*
X352Y80D02*
X366Y80D01*
X464Y80D02*
X473Y80D01*
X571Y80D02*
X582Y80D01*
X610Y80D02*
X624Y80D01*
X635Y80D02*
X657Y80D01*
X715Y80D02*
X726Y80D01*
X752Y80D02*
X777Y80D01*
X787Y80D02*
X798Y80D01*
X66Y79D02*
X76Y79D01*
X141Y79D02*
X151Y79D01*
X181Y79D02*
X195Y79D01*
X249Y79D02*
X262Y79D01*
X282Y79D02*
X295Y79D01*
X320Y79D02*
X339Y79D01*
X354Y79D02*
X367Y79D01*
X464Y79D02*
X473Y79D01*
X573Y79D02*
X583Y79D01*
X609Y79D02*
X622Y79D01*
X637Y79D02*
X657Y79D01*
X717Y79D02*
X727Y79D01*
X752Y79D02*
X775Y79D01*
X788Y79D02*
X799Y79D01*
X66Y78D02*
X76Y78D01*
X141Y78D02*
X151Y78D01*
X180Y78D02*
X194Y78D01*
X249Y78D02*
X261Y78D01*
X284Y78D02*
X295Y78D01*
X320Y78D02*
X338Y78D01*
X355Y78D02*
X367Y78D01*
X464Y78D02*
X473Y78D01*
X573Y78D02*
X583Y78D01*
X609Y78D02*
X621Y78D01*
X638Y78D02*
X657Y78D01*
X717Y78D02*
X727Y78D01*
X752Y78D02*
X774Y78D01*
X789Y78D02*
X799Y78D01*
X66Y77D02*
X76Y77D01*
X142Y77D02*
X151Y77D01*
X179Y77D02*
X193Y77D01*
X249Y77D02*
X260Y77D01*
X285Y77D02*
X296Y77D01*
X320Y77D02*
X337Y77D01*
X357Y77D02*
X368Y77D01*
X464Y77D02*
X473Y77D01*
X574Y77D02*
X583Y77D01*
X608Y77D02*
X620Y77D01*
X639Y77D02*
X657Y77D01*
X718Y77D02*
X727Y77D01*
X752Y77D02*
X772Y77D01*
X790Y77D02*
X799Y77D01*
X66Y76D02*
X76Y76D01*
X142Y76D02*
X151Y76D01*
X178Y76D02*
X192Y76D01*
X248Y76D02*
X259Y76D01*
X286Y76D02*
X296Y76D01*
X320Y76D02*
X336Y76D01*
X358Y76D02*
X368Y76D01*
X464Y76D02*
X473Y76D01*
X574Y76D02*
X583Y76D01*
X608Y76D02*
X619Y76D01*
X641Y76D02*
X657Y76D01*
X718Y76D02*
X727Y76D01*
X752Y76D02*
X770Y76D01*
X790Y76D02*
X799Y76D01*
X66Y75D02*
X76Y75D01*
X142Y75D02*
X151Y75D01*
X177Y75D02*
X190Y75D01*
X248Y75D02*
X258Y75D01*
X287Y75D02*
X296Y75D01*
X320Y75D02*
X334Y75D01*
X358Y75D02*
X368Y75D01*
X464Y75D02*
X473Y75D01*
X574Y75D02*
X583Y75D01*
X608Y75D02*
X618Y75D01*
X642Y75D02*
X657Y75D01*
X718Y75D02*
X727Y75D01*
X752Y75D02*
X769Y75D01*
X790Y75D02*
X799Y75D01*
X66Y74D02*
X76Y74D01*
X142Y74D02*
X151Y74D01*
X177Y74D02*
X189Y74D01*
X248Y74D02*
X257Y74D01*
X287Y74D02*
X296Y74D01*
X320Y74D02*
X333Y74D01*
X359Y74D02*
X368Y74D01*
X464Y74D02*
X473Y74D01*
X574Y74D02*
X583Y74D01*
X608Y74D02*
X617Y74D01*
X643Y74D02*
X657Y74D01*
X718Y74D02*
X727Y74D01*
X752Y74D02*
X767Y74D01*
X790Y74D02*
X799Y74D01*
X66Y73D02*
X76Y73D01*
X142Y73D02*
X151Y73D01*
X177Y73D02*
X188Y73D01*
X248Y73D02*
X257Y73D01*
X287Y73D02*
X296Y73D01*
X320Y73D02*
X332Y73D01*
X359Y73D02*
X368Y73D01*
X464Y73D02*
X473Y73D01*
X574Y73D02*
X583Y73D01*
X608Y73D02*
X617Y73D01*
X644Y73D02*
X657Y73D01*
X718Y73D02*
X727Y73D01*
X752Y73D02*
X766Y73D01*
X790Y73D02*
X799Y73D01*
X66Y72D02*
X76Y72D01*
X142Y72D02*
X151Y72D01*
X176Y72D02*
X187Y72D01*
X248Y72D02*
X257Y72D01*
X287Y72D02*
X297Y72D01*
X320Y72D02*
X331Y72D01*
X359Y72D02*
X369Y72D01*
X464Y72D02*
X473Y72D01*
X574Y72D02*
X583Y72D01*
X608Y72D02*
X617Y72D01*
X645Y72D02*
X657Y72D01*
X718Y72D02*
X727Y72D01*
X752Y72D02*
X764Y72D01*
X790Y72D02*
X799Y72D01*
X66Y71D02*
X76Y71D01*
X142Y71D02*
X151Y71D01*
X176Y71D02*
X186Y71D01*
X248Y71D02*
X257Y71D01*
X287Y71D02*
X297Y71D01*
X320Y71D02*
X330Y71D01*
X359Y71D02*
X369Y71D01*
X464Y71D02*
X473Y71D01*
X574Y71D02*
X583Y71D01*
X608Y71D02*
X617Y71D01*
X646Y71D02*
X657Y71D01*
X718Y71D02*
X727Y71D01*
X752Y71D02*
X763Y71D01*
X790Y71D02*
X799Y71D01*
X66Y70D02*
X76Y70D01*
X142Y70D02*
X151Y70D01*
X176Y70D02*
X185Y70D01*
X248Y70D02*
X257Y70D01*
X287Y70D02*
X297Y70D01*
X320Y70D02*
X329Y70D01*
X359Y70D02*
X369Y70D01*
X464Y70D02*
X473Y70D01*
X574Y70D02*
X583Y70D01*
X608Y70D02*
X617Y70D01*
X647Y70D02*
X657Y70D01*
X718Y70D02*
X727Y70D01*
X752Y70D02*
X761Y70D01*
X790Y70D02*
X799Y70D01*
X41Y69D02*
X42Y69D01*
X66Y69D02*
X76Y69D01*
X116Y69D02*
X139Y69D01*
X142Y69D02*
X151Y69D01*
X176Y69D02*
X185Y69D01*
X248Y69D02*
X257Y69D01*
X287Y69D02*
X297Y69D01*
X320Y69D02*
X329Y69D01*
X359Y69D02*
X369Y69D01*
X464Y69D02*
X473Y69D01*
X548Y69D02*
X571Y69D01*
X574Y69D02*
X583Y69D01*
X608Y69D02*
X617Y69D01*
X647Y69D02*
X657Y69D01*
X692Y69D02*
X715Y69D01*
X718Y69D02*
X727Y69D01*
X752Y69D02*
X761Y69D01*
X790Y69D02*
X799Y69D01*
X39Y68D02*
X44Y68D01*
X66Y68D02*
X76Y68D01*
X113Y68D02*
X151Y68D01*
X176Y68D02*
X185Y68D01*
X248Y68D02*
X257Y68D01*
X287Y68D02*
X297Y68D01*
X320Y68D02*
X329Y68D01*
X359Y68D02*
X369Y68D01*
X464Y68D02*
X473Y68D01*
X545Y68D02*
X583Y68D01*
X608Y68D02*
X617Y68D01*
X647Y68D02*
X657Y68D01*
X689Y68D02*
X727Y68D01*
X752Y68D02*
X761Y68D01*
X790Y68D02*
X799Y68D01*
X38Y67D02*
X45Y67D01*
X66Y67D02*
X76Y67D01*
X111Y67D02*
X152Y67D01*
X176Y67D02*
X185Y67D01*
X248Y67D02*
X257Y67D01*
X287Y67D02*
X297Y67D01*
X320Y67D02*
X329Y67D01*
X359Y67D02*
X369Y67D01*
X464Y67D02*
X473Y67D01*
X543Y67D02*
X584Y67D01*
X608Y67D02*
X617Y67D01*
X647Y67D02*
X657Y67D01*
X687Y67D02*
X728Y67D01*
X752Y67D02*
X761Y67D01*
X790Y67D02*
X799Y67D01*
X37Y66D02*
X45Y66D01*
X66Y66D02*
X76Y66D01*
X110Y66D02*
X152Y66D01*
X176Y66D02*
X185Y66D01*
X248Y66D02*
X257Y66D01*
X287Y66D02*
X297Y66D01*
X320Y66D02*
X329Y66D01*
X359Y66D02*
X369Y66D01*
X464Y66D02*
X473Y66D01*
X542Y66D02*
X584Y66D01*
X608Y66D02*
X617Y66D01*
X647Y66D02*
X657Y66D01*
X686Y66D02*
X728Y66D01*
X752Y66D02*
X761Y66D01*
X790Y66D02*
X800Y66D01*
X37Y65D02*
X46Y65D01*
X66Y65D02*
X76Y65D01*
X108Y65D02*
X152Y65D01*
X176Y65D02*
X185Y65D01*
X248Y65D02*
X257Y65D01*
X287Y65D02*
X297Y65D01*
X320Y65D02*
X329Y65D01*
X359Y65D02*
X369Y65D01*
X464Y65D02*
X473Y65D01*
X540Y65D02*
X584Y65D01*
X608Y65D02*
X617Y65D01*
X647Y65D02*
X657Y65D01*
X684Y65D02*
X728Y65D01*
X752Y65D02*
X761Y65D01*
X790Y65D02*
X800Y65D01*
X37Y64D02*
X46Y64D01*
X66Y64D02*
X76Y64D01*
X107Y64D02*
X152Y64D01*
X176Y64D02*
X185Y64D01*
X248Y64D02*
X257Y64D01*
X287Y64D02*
X297Y64D01*
X320Y64D02*
X329Y64D01*
X359Y64D02*
X369Y64D01*
X464Y64D02*
X473Y64D01*
X539Y64D02*
X584Y64D01*
X608Y64D02*
X617Y64D01*
X647Y64D02*
X657Y64D01*
X683Y64D02*
X728Y64D01*
X752Y64D02*
X761Y64D01*
X790Y64D02*
X800Y64D01*
X37Y63D02*
X46Y63D01*
X66Y63D02*
X76Y63D01*
X107Y63D02*
X152Y63D01*
X176Y63D02*
X185Y63D01*
X248Y63D02*
X257Y63D01*
X287Y63D02*
X297Y63D01*
X320Y63D02*
X329Y63D01*
X359Y63D02*
X369Y63D01*
X464Y63D02*
X473Y63D01*
X539Y63D02*
X584Y63D01*
X608Y63D02*
X617Y63D01*
X647Y63D02*
X657Y63D01*
X683Y63D02*
X728Y63D01*
X752Y63D02*
X761Y63D01*
X791Y63D02*
X800Y63D01*
X37Y62D02*
X46Y62D01*
X66Y62D02*
X76Y62D01*
X106Y62D02*
X152Y62D01*
X176Y62D02*
X185Y62D01*
X248Y62D02*
X257Y62D01*
X287Y62D02*
X297Y62D01*
X320Y62D02*
X329Y62D01*
X359Y62D02*
X369Y62D01*
X464Y62D02*
X473Y62D01*
X538Y62D02*
X584Y62D01*
X608Y62D02*
X617Y62D01*
X647Y62D02*
X657Y62D01*
X682Y62D02*
X728Y62D01*
X752Y62D02*
X761Y62D01*
X791Y62D02*
X800Y62D01*
X37Y61D02*
X46Y61D01*
X66Y61D02*
X76Y61D01*
X105Y61D02*
X152Y61D01*
X176Y61D02*
X185Y61D01*
X248Y61D02*
X257Y61D01*
X287Y61D02*
X297Y61D01*
X320Y61D02*
X329Y61D01*
X359Y61D02*
X369Y61D01*
X464Y61D02*
X473Y61D01*
X537Y61D02*
X584Y61D01*
X608Y61D02*
X617Y61D01*
X647Y61D02*
X657Y61D01*
X681Y61D02*
X728Y61D01*
X752Y61D02*
X761Y61D01*
X791Y61D02*
X800Y61D01*
X37Y60D02*
X46Y60D01*
X66Y60D02*
X76Y60D01*
X105Y60D02*
X152Y60D01*
X176Y60D02*
X185Y60D01*
X248Y60D02*
X257Y60D01*
X287Y60D02*
X297Y60D01*
X320Y60D02*
X329Y60D01*
X359Y60D02*
X369Y60D01*
X464Y60D02*
X473Y60D01*
X537Y60D02*
X584Y60D01*
X608Y60D02*
X617Y60D01*
X647Y60D02*
X657Y60D01*
X681Y60D02*
X728Y60D01*
X752Y60D02*
X761Y60D01*
X791Y60D02*
X800Y60D01*
X37Y59D02*
X46Y59D01*
X66Y59D02*
X76Y59D01*
X105Y59D02*
X117Y59D01*
X138Y59D02*
X152Y59D01*
X176Y59D02*
X185Y59D01*
X248Y59D02*
X257Y59D01*
X287Y59D02*
X297Y59D01*
X320Y59D02*
X329Y59D01*
X359Y59D02*
X369Y59D01*
X464Y59D02*
X473Y59D01*
X537Y59D02*
X549Y59D01*
X570Y59D02*
X584Y59D01*
X608Y59D02*
X617Y59D01*
X647Y59D02*
X657Y59D01*
X681Y59D02*
X693Y59D01*
X714Y59D02*
X728Y59D01*
X752Y59D02*
X761Y59D01*
X791Y59D02*
X800Y59D01*
X37Y58D02*
X46Y58D01*
X66Y58D02*
X76Y58D01*
X104Y58D02*
X115Y58D01*
X141Y58D02*
X152Y58D01*
X176Y58D02*
X185Y58D01*
X248Y58D02*
X257Y58D01*
X287Y58D02*
X297Y58D01*
X320Y58D02*
X329Y58D01*
X359Y58D02*
X369Y58D01*
X464Y58D02*
X473Y58D01*
X536Y58D02*
X547Y58D01*
X573Y58D02*
X584Y58D01*
X608Y58D02*
X617Y58D01*
X647Y58D02*
X657Y58D01*
X680Y58D02*
X691Y58D01*
X717Y58D02*
X728Y58D01*
X752Y58D02*
X761Y58D01*
X791Y58D02*
X800Y58D01*
X37Y57D02*
X46Y57D01*
X66Y57D02*
X76Y57D01*
X104Y57D02*
X114Y57D01*
X142Y57D02*
X152Y57D01*
X176Y57D02*
X185Y57D01*
X248Y57D02*
X257Y57D01*
X287Y57D02*
X297Y57D01*
X320Y57D02*
X329Y57D01*
X359Y57D02*
X369Y57D01*
X464Y57D02*
X473Y57D01*
X536Y57D02*
X546Y57D01*
X574Y57D02*
X584Y57D01*
X608Y57D02*
X617Y57D01*
X647Y57D02*
X657Y57D01*
X680Y57D02*
X690Y57D01*
X718Y57D02*
X728Y57D01*
X752Y57D02*
X761Y57D01*
X791Y57D02*
X800Y57D01*
X37Y56D02*
X46Y56D01*
X66Y56D02*
X76Y56D01*
X104Y56D02*
X113Y56D01*
X142Y56D02*
X152Y56D01*
X176Y56D02*
X185Y56D01*
X248Y56D02*
X257Y56D01*
X287Y56D02*
X297Y56D01*
X320Y56D02*
X329Y56D01*
X359Y56D02*
X369Y56D01*
X464Y56D02*
X473Y56D01*
X536Y56D02*
X545Y56D01*
X574Y56D02*
X584Y56D01*
X608Y56D02*
X617Y56D01*
X647Y56D02*
X657Y56D01*
X680Y56D02*
X689Y56D01*
X718Y56D02*
X728Y56D01*
X752Y56D02*
X761Y56D01*
X791Y56D02*
X800Y56D01*
X37Y55D02*
X46Y55D01*
X66Y55D02*
X76Y55D01*
X104Y55D02*
X113Y55D01*
X143Y55D02*
X152Y55D01*
X176Y55D02*
X185Y55D01*
X248Y55D02*
X257Y55D01*
X287Y55D02*
X297Y55D01*
X320Y55D02*
X329Y55D01*
X359Y55D02*
X369Y55D01*
X464Y55D02*
X473Y55D01*
X536Y55D02*
X545Y55D01*
X575Y55D02*
X584Y55D01*
X608Y55D02*
X617Y55D01*
X647Y55D02*
X657Y55D01*
X680Y55D02*
X689Y55D01*
X719Y55D02*
X728Y55D01*
X752Y55D02*
X761Y55D01*
X791Y55D02*
X800Y55D01*
X37Y54D02*
X46Y54D01*
X66Y54D02*
X76Y54D01*
X104Y54D02*
X113Y54D01*
X143Y54D02*
X152Y54D01*
X176Y54D02*
X185Y54D01*
X248Y54D02*
X257Y54D01*
X287Y54D02*
X297Y54D01*
X320Y54D02*
X329Y54D01*
X359Y54D02*
X369Y54D01*
X464Y54D02*
X473Y54D01*
X536Y54D02*
X545Y54D01*
X575Y54D02*
X584Y54D01*
X608Y54D02*
X617Y54D01*
X647Y54D02*
X657Y54D01*
X680Y54D02*
X689Y54D01*
X719Y54D02*
X728Y54D01*
X752Y54D02*
X761Y54D01*
X791Y54D02*
X800Y54D01*
X37Y53D02*
X46Y53D01*
X66Y53D02*
X76Y53D01*
X104Y53D02*
X113Y53D01*
X143Y53D02*
X152Y53D01*
X176Y53D02*
X186Y53D01*
X248Y53D02*
X257Y53D01*
X287Y53D02*
X297Y53D01*
X320Y53D02*
X330Y53D01*
X359Y53D02*
X369Y53D01*
X464Y53D02*
X473Y53D01*
X536Y53D02*
X545Y53D01*
X575Y53D02*
X584Y53D01*
X608Y53D02*
X617Y53D01*
X646Y53D02*
X657Y53D01*
X680Y53D02*
X689Y53D01*
X719Y53D02*
X728Y53D01*
X752Y53D02*
X761Y53D01*
X791Y53D02*
X800Y53D01*
X37Y52D02*
X46Y52D01*
X66Y52D02*
X76Y52D01*
X104Y52D02*
X113Y52D01*
X143Y52D02*
X152Y52D01*
X176Y52D02*
X187Y52D01*
X248Y52D02*
X257Y52D01*
X287Y52D02*
X297Y52D01*
X320Y52D02*
X331Y52D01*
X359Y52D02*
X369Y52D01*
X464Y52D02*
X473Y52D01*
X536Y52D02*
X545Y52D01*
X575Y52D02*
X584Y52D01*
X608Y52D02*
X617Y52D01*
X645Y52D02*
X657Y52D01*
X680Y52D02*
X689Y52D01*
X719Y52D02*
X728Y52D01*
X752Y52D02*
X761Y52D01*
X791Y52D02*
X800Y52D01*
X37Y51D02*
X46Y51D01*
X66Y51D02*
X76Y51D01*
X104Y51D02*
X113Y51D01*
X143Y51D02*
X152Y51D01*
X177Y51D02*
X188Y51D01*
X248Y51D02*
X257Y51D01*
X287Y51D02*
X296Y51D01*
X320Y51D02*
X332Y51D01*
X359Y51D02*
X368Y51D01*
X464Y51D02*
X473Y51D01*
X536Y51D02*
X545Y51D01*
X575Y51D02*
X584Y51D01*
X608Y51D02*
X617Y51D01*
X644Y51D02*
X657Y51D01*
X680Y51D02*
X689Y51D01*
X719Y51D02*
X728Y51D01*
X752Y51D02*
X761Y51D01*
X791Y51D02*
X800Y51D01*
X37Y50D02*
X46Y50D01*
X66Y50D02*
X76Y50D01*
X104Y50D02*
X113Y50D01*
X143Y50D02*
X152Y50D01*
X177Y50D02*
X189Y50D01*
X248Y50D02*
X257Y50D01*
X287Y50D02*
X296Y50D01*
X320Y50D02*
X333Y50D01*
X359Y50D02*
X368Y50D01*
X464Y50D02*
X473Y50D01*
X536Y50D02*
X545Y50D01*
X575Y50D02*
X584Y50D01*
X608Y50D02*
X617Y50D01*
X643Y50D02*
X657Y50D01*
X680Y50D02*
X689Y50D01*
X719Y50D02*
X728Y50D01*
X752Y50D02*
X761Y50D01*
X791Y50D02*
X800Y50D01*
X37Y49D02*
X46Y49D01*
X66Y49D02*
X76Y49D01*
X104Y49D02*
X113Y49D01*
X141Y49D02*
X152Y49D01*
X177Y49D02*
X190Y49D01*
X248Y49D02*
X258Y49D01*
X286Y49D02*
X296Y49D01*
X320Y49D02*
X334Y49D01*
X358Y49D02*
X368Y49D01*
X464Y49D02*
X473Y49D01*
X536Y49D02*
X545Y49D01*
X573Y49D02*
X584Y49D01*
X608Y49D02*
X618Y49D01*
X642Y49D02*
X657Y49D01*
X680Y49D02*
X689Y49D01*
X717Y49D02*
X728Y49D01*
X752Y49D02*
X761Y49D01*
X791Y49D02*
X800Y49D01*
X37Y48D02*
X46Y48D01*
X66Y48D02*
X75Y48D01*
X104Y48D02*
X113Y48D01*
X139Y48D02*
X152Y48D01*
X178Y48D02*
X191Y48D01*
X248Y48D02*
X258Y48D01*
X286Y48D02*
X296Y48D01*
X320Y48D02*
X336Y48D01*
X358Y48D02*
X368Y48D01*
X464Y48D02*
X473Y48D01*
X536Y48D02*
X545Y48D01*
X571Y48D02*
X584Y48D01*
X608Y48D02*
X618Y48D01*
X641Y48D02*
X657Y48D01*
X680Y48D02*
X689Y48D01*
X715Y48D02*
X728Y48D01*
X752Y48D02*
X761Y48D01*
X791Y48D02*
X800Y48D01*
X37Y47D02*
X46Y47D01*
X66Y47D02*
X75Y47D01*
X104Y47D02*
X113Y47D01*
X138Y47D02*
X152Y47D01*
X179Y47D02*
X193Y47D01*
X248Y47D02*
X260Y47D01*
X285Y47D02*
X296Y47D01*
X320Y47D02*
X337Y47D01*
X357Y47D02*
X368Y47D01*
X464Y47D02*
X473Y47D01*
X536Y47D02*
X545Y47D01*
X570Y47D02*
X584Y47D01*
X608Y47D02*
X620Y47D01*
X639Y47D02*
X657Y47D01*
X680Y47D02*
X689Y47D01*
X714Y47D02*
X728Y47D01*
X752Y47D02*
X761Y47D01*
X791Y47D02*
X800Y47D01*
X37Y46D02*
X47Y46D01*
X65Y46D02*
X75Y46D01*
X104Y46D02*
X114Y46D01*
X136Y46D02*
X152Y46D01*
X180Y46D02*
X194Y46D01*
X249Y46D02*
X261Y46D01*
X283Y46D02*
X295Y46D01*
X320Y46D02*
X338Y46D01*
X355Y46D02*
X367Y46D01*
X464Y46D02*
X473Y46D01*
X536Y46D02*
X546Y46D01*
X568Y46D02*
X584Y46D01*
X609Y46D02*
X621Y46D01*
X638Y46D02*
X657Y46D01*
X680Y46D02*
X690Y46D01*
X712Y46D02*
X728Y46D01*
X752Y46D02*
X761Y46D01*
X791Y46D02*
X800Y46D01*
X37Y45D02*
X48Y45D01*
X65Y45D02*
X75Y45D01*
X104Y45D02*
X114Y45D01*
X134Y45D02*
X152Y45D01*
X181Y45D02*
X195Y45D01*
X249Y45D02*
X262Y45D01*
X282Y45D02*
X295Y45D01*
X320Y45D02*
X339Y45D01*
X354Y45D02*
X367Y45D01*
X464Y45D02*
X473Y45D01*
X536Y45D02*
X546Y45D01*
X566Y45D02*
X584Y45D01*
X609Y45D02*
X622Y45D01*
X637Y45D02*
X657Y45D01*
X680Y45D02*
X690Y45D01*
X710Y45D02*
X728Y45D01*
X752Y45D02*
X761Y45D01*
X791Y45D02*
X800Y45D01*
X37Y44D02*
X49Y44D01*
X63Y44D02*
X75Y44D01*
X104Y44D02*
X116Y44D01*
X133Y44D02*
X152Y44D01*
X182Y44D02*
X197Y44D01*
X250Y44D02*
X264Y44D01*
X280Y44D02*
X294Y44D01*
X320Y44D02*
X341Y44D01*
X352Y44D02*
X366Y44D01*
X464Y44D02*
X473Y44D01*
X536Y44D02*
X548Y44D01*
X565Y44D02*
X584Y44D01*
X610Y44D02*
X624Y44D01*
X635Y44D02*
X657Y44D01*
X680Y44D02*
X692Y44D01*
X709Y44D02*
X728Y44D01*
X752Y44D02*
X761Y44D01*
X791Y44D02*
X800Y44D01*
X38Y43D02*
X74Y43D01*
X105Y43D02*
X152Y43D01*
X183Y43D02*
X222Y43D01*
X250Y43D02*
X294Y43D01*
X320Y43D02*
X366Y43D01*
X464Y43D02*
X510Y43D01*
X537Y43D02*
X584Y43D01*
X610Y43D02*
X657Y43D01*
X681Y43D02*
X728Y43D01*
X752Y43D02*
X761Y43D01*
X791Y43D02*
X800Y43D01*
X38Y42D02*
X74Y42D01*
X105Y42D02*
X152Y42D01*
X184Y42D02*
X223Y42D01*
X251Y42D02*
X293Y42D01*
X320Y42D02*
X365Y42D01*
X464Y42D02*
X511Y42D01*
X537Y42D02*
X584Y42D01*
X611Y42D02*
X657Y42D01*
X681Y42D02*
X728Y42D01*
X752Y42D02*
X761Y42D01*
X791Y42D02*
X800Y42D01*
X39Y41D02*
X73Y41D01*
X106Y41D02*
X152Y41D01*
X185Y41D02*
X224Y41D01*
X252Y41D02*
X292Y41D01*
X320Y41D02*
X364Y41D01*
X464Y41D02*
X512Y41D01*
X538Y41D02*
X584Y41D01*
X612Y41D02*
X657Y41D01*
X682Y41D02*
X728Y41D01*
X752Y41D02*
X761Y41D01*
X791Y41D02*
X800Y41D01*
X39Y40D02*
X73Y40D01*
X106Y40D02*
X152Y40D01*
X186Y40D02*
X224Y40D01*
X253Y40D02*
X291Y40D01*
X320Y40D02*
X363Y40D01*
X464Y40D02*
X512Y40D01*
X538Y40D02*
X584Y40D01*
X613Y40D02*
X657Y40D01*
X682Y40D02*
X728Y40D01*
X752Y40D02*
X761Y40D01*
X791Y40D02*
X800Y40D01*
X40Y39D02*
X72Y39D01*
X107Y39D02*
X153Y39D01*
X187Y39D02*
X224Y39D01*
X254Y39D02*
X290Y39D01*
X320Y39D02*
X329Y39D01*
X331Y39D02*
X362Y39D01*
X464Y39D02*
X512Y39D01*
X539Y39D02*
X584Y39D01*
X614Y39D02*
X645Y39D01*
X647Y39D02*
X656Y39D01*
X683Y39D02*
X728Y39D01*
X752Y39D02*
X761Y39D01*
X791Y39D02*
X800Y39D01*
X41Y38D02*
X71Y38D01*
X108Y38D02*
X141Y38D01*
X144Y38D02*
X152Y38D01*
X189Y38D02*
X224Y38D01*
X256Y38D02*
X288Y38D01*
X320Y38D02*
X329Y38D01*
X332Y38D02*
X360Y38D01*
X464Y38D02*
X512Y38D01*
X540Y38D02*
X573Y38D01*
X576Y38D02*
X584Y38D01*
X616Y38D02*
X644Y38D01*
X648Y38D02*
X656Y38D01*
X684Y38D02*
X717Y38D01*
X719Y38D02*
X728Y38D01*
X752Y38D02*
X761Y38D01*
X791Y38D02*
X800Y38D01*
X42Y37D02*
X70Y37D01*
X109Y37D02*
X140Y37D01*
X144Y37D02*
X152Y37D01*
X190Y37D02*
X224Y37D01*
X257Y37D02*
X287Y37D01*
X320Y37D02*
X328Y37D01*
X334Y37D02*
X359Y37D01*
X464Y37D02*
X512Y37D01*
X541Y37D02*
X572Y37D01*
X576Y37D02*
X584Y37D01*
X617Y37D02*
X643Y37D01*
X648Y37D02*
X656Y37D01*
X685Y37D02*
X716Y37D01*
X720Y37D02*
X728Y37D01*
X752Y37D02*
X760Y37D01*
X792Y37D02*
X800Y37D01*
X44Y36D02*
X68Y36D01*
X111Y36D02*
X138Y36D01*
X144Y36D02*
X152Y36D01*
X191Y36D02*
X224Y36D01*
X258Y36D02*
X286Y36D01*
X321Y36D02*
X328Y36D01*
X335Y36D02*
X358Y36D01*
X464Y36D02*
X512Y36D01*
X543Y36D02*
X570Y36D01*
X576Y36D02*
X584Y36D01*
X618Y36D02*
X641Y36D01*
X648Y36D02*
X656Y36D01*
X687Y36D02*
X714Y36D01*
X720Y36D02*
X728Y36D01*
X753Y36D02*
X760Y36D01*
X792Y36D02*
X800Y36D01*
X46Y35D02*
X67Y35D01*
X112Y35D02*
X136Y35D01*
X145Y35D02*
X151Y35D01*
X193Y35D02*
X223Y35D01*
X260Y35D02*
X284Y35D01*
X321Y35D02*
X327Y35D01*
X337Y35D02*
X356Y35D01*
X464Y35D02*
X511Y35D01*
X544Y35D02*
X568Y35D01*
X577Y35D02*
X583Y35D01*
X620Y35D02*
X639Y35D01*
X649Y35D02*
X655Y35D01*
X688Y35D02*
X712Y35D01*
X721Y35D02*
X727Y35D01*
X753Y35D02*
X759Y35D01*
X793Y35D02*
X799Y35D01*
X49Y34D02*
X64Y34D01*
X115Y34D02*
X134Y34D01*
X147Y34D02*
X149Y34D01*
X196Y34D02*
X221Y34D01*
X263Y34D02*
X281Y34D01*
X323Y34D02*
X326Y34D01*
X340Y34D02*
X353Y34D01*
X464Y34D02*
X509Y34D01*
X547Y34D02*
X566Y34D01*
X579Y34D02*
X581Y34D01*
X623Y34D02*
X636Y34D01*
X651Y34D02*
X653Y34D01*
X691Y34D02*
X710Y34D01*
X723Y34D02*
X725Y34D01*
X755Y34D02*
X757Y34D01*
X795Y34D02*
X797Y34D01*
D02*
G04 End of Copper1*
M02*