G04 MADE WITH FRITZING*
G04 WWW.FRITZING.ORG*
G04 DOUBLE SIDED*
G04 HOLES PLATED*
G04 CONTOUR ON CENTER OF CONTOUR VECTOR*
%ASAXBY*%
%FSLAX23Y23*%
%MOIN*%
%OFA0B0*%
%SFA1.0B1.0*%
%ADD10C,0.010000*%
%ADD11R,0.001000X0.001000*%
%LNSILK1*%
G90*
G70*
G54D10*
X594Y759D02*
X594Y159D01*
D02*
X594Y159D02*
X694Y159D01*
D02*
X694Y159D02*
X694Y759D01*
D02*
X694Y759D02*
X594Y759D01*
G54D11*
X0Y1150D02*
X2147Y1150D01*
X0Y1149D02*
X2147Y1149D01*
X0Y1148D02*
X2147Y1148D01*
X0Y1147D02*
X2147Y1147D01*
X0Y1146D02*
X2147Y1146D01*
X0Y1145D02*
X2147Y1145D01*
X0Y1144D02*
X2147Y1144D01*
X0Y1143D02*
X2147Y1143D01*
X0Y1142D02*
X7Y1142D01*
X2140Y1142D02*
X2147Y1142D01*
X0Y1141D02*
X7Y1141D01*
X2140Y1141D02*
X2147Y1141D01*
X0Y1140D02*
X7Y1140D01*
X2140Y1140D02*
X2147Y1140D01*
X0Y1139D02*
X7Y1139D01*
X2140Y1139D02*
X2147Y1139D01*
X0Y1138D02*
X7Y1138D01*
X2140Y1138D02*
X2147Y1138D01*
X0Y1137D02*
X7Y1137D01*
X2140Y1137D02*
X2147Y1137D01*
X0Y1136D02*
X7Y1136D01*
X2140Y1136D02*
X2147Y1136D01*
X0Y1135D02*
X7Y1135D01*
X2140Y1135D02*
X2147Y1135D01*
X0Y1134D02*
X7Y1134D01*
X2140Y1134D02*
X2147Y1134D01*
X0Y1133D02*
X7Y1133D01*
X2140Y1133D02*
X2147Y1133D01*
X0Y1132D02*
X7Y1132D01*
X2140Y1132D02*
X2147Y1132D01*
X0Y1131D02*
X7Y1131D01*
X2140Y1131D02*
X2147Y1131D01*
X0Y1130D02*
X7Y1130D01*
X2140Y1130D02*
X2147Y1130D01*
X0Y1129D02*
X7Y1129D01*
X2140Y1129D02*
X2147Y1129D01*
X0Y1128D02*
X7Y1128D01*
X2140Y1128D02*
X2147Y1128D01*
X0Y1127D02*
X7Y1127D01*
X2140Y1127D02*
X2147Y1127D01*
X0Y1126D02*
X7Y1126D01*
X2140Y1126D02*
X2147Y1126D01*
X0Y1125D02*
X7Y1125D01*
X2140Y1125D02*
X2147Y1125D01*
X0Y1124D02*
X7Y1124D01*
X2140Y1124D02*
X2147Y1124D01*
X0Y1123D02*
X7Y1123D01*
X2140Y1123D02*
X2147Y1123D01*
X0Y1122D02*
X7Y1122D01*
X2140Y1122D02*
X2147Y1122D01*
X0Y1121D02*
X7Y1121D01*
X2140Y1121D02*
X2147Y1121D01*
X0Y1120D02*
X7Y1120D01*
X2140Y1120D02*
X2147Y1120D01*
X0Y1119D02*
X7Y1119D01*
X2140Y1119D02*
X2147Y1119D01*
X0Y1118D02*
X7Y1118D01*
X2140Y1118D02*
X2147Y1118D01*
X0Y1117D02*
X7Y1117D01*
X2140Y1117D02*
X2147Y1117D01*
X0Y1116D02*
X7Y1116D01*
X2140Y1116D02*
X2147Y1116D01*
X0Y1115D02*
X7Y1115D01*
X2140Y1115D02*
X2147Y1115D01*
X0Y1114D02*
X7Y1114D01*
X2140Y1114D02*
X2147Y1114D01*
X0Y1113D02*
X7Y1113D01*
X2140Y1113D02*
X2147Y1113D01*
X0Y1112D02*
X7Y1112D01*
X2140Y1112D02*
X2147Y1112D01*
X0Y1111D02*
X7Y1111D01*
X2140Y1111D02*
X2147Y1111D01*
X0Y1110D02*
X7Y1110D01*
X2140Y1110D02*
X2147Y1110D01*
X0Y1109D02*
X7Y1109D01*
X2140Y1109D02*
X2147Y1109D01*
X0Y1108D02*
X7Y1108D01*
X2140Y1108D02*
X2147Y1108D01*
X0Y1107D02*
X7Y1107D01*
X2140Y1107D02*
X2147Y1107D01*
X0Y1106D02*
X7Y1106D01*
X2140Y1106D02*
X2147Y1106D01*
X0Y1105D02*
X7Y1105D01*
X2140Y1105D02*
X2147Y1105D01*
X0Y1104D02*
X7Y1104D01*
X2140Y1104D02*
X2147Y1104D01*
X0Y1103D02*
X7Y1103D01*
X2140Y1103D02*
X2147Y1103D01*
X0Y1102D02*
X7Y1102D01*
X2140Y1102D02*
X2147Y1102D01*
X0Y1101D02*
X7Y1101D01*
X2140Y1101D02*
X2147Y1101D01*
X0Y1100D02*
X7Y1100D01*
X2140Y1100D02*
X2147Y1100D01*
X0Y1099D02*
X7Y1099D01*
X2140Y1099D02*
X2147Y1099D01*
X0Y1098D02*
X7Y1098D01*
X2140Y1098D02*
X2147Y1098D01*
X0Y1097D02*
X7Y1097D01*
X2140Y1097D02*
X2147Y1097D01*
X0Y1096D02*
X7Y1096D01*
X2140Y1096D02*
X2147Y1096D01*
X0Y1095D02*
X7Y1095D01*
X2140Y1095D02*
X2147Y1095D01*
X0Y1094D02*
X7Y1094D01*
X2140Y1094D02*
X2147Y1094D01*
X0Y1093D02*
X7Y1093D01*
X2140Y1093D02*
X2147Y1093D01*
X0Y1092D02*
X7Y1092D01*
X2140Y1092D02*
X2147Y1092D01*
X0Y1091D02*
X7Y1091D01*
X2140Y1091D02*
X2147Y1091D01*
X0Y1090D02*
X7Y1090D01*
X2140Y1090D02*
X2147Y1090D01*
X0Y1089D02*
X7Y1089D01*
X2140Y1089D02*
X2147Y1089D01*
X0Y1088D02*
X7Y1088D01*
X2140Y1088D02*
X2147Y1088D01*
X0Y1076D02*
X7Y1076D01*
X2140Y1076D02*
X2147Y1076D01*
X0Y1075D02*
X7Y1075D01*
X2140Y1075D02*
X2147Y1075D01*
X0Y1074D02*
X7Y1074D01*
X2140Y1074D02*
X2147Y1074D01*
X0Y1073D02*
X7Y1073D01*
X2140Y1073D02*
X2147Y1073D01*
X0Y1072D02*
X7Y1072D01*
X2140Y1072D02*
X2147Y1072D01*
X0Y1071D02*
X7Y1071D01*
X2140Y1071D02*
X2147Y1071D01*
X0Y1070D02*
X7Y1070D01*
X2140Y1070D02*
X2147Y1070D01*
X0Y1069D02*
X7Y1069D01*
X2140Y1069D02*
X2147Y1069D01*
X0Y1068D02*
X7Y1068D01*
X2140Y1068D02*
X2147Y1068D01*
X0Y1067D02*
X7Y1067D01*
X2140Y1067D02*
X2147Y1067D01*
X0Y1066D02*
X7Y1066D01*
X2140Y1066D02*
X2147Y1066D01*
X0Y1065D02*
X7Y1065D01*
X2140Y1065D02*
X2147Y1065D01*
X0Y1064D02*
X7Y1064D01*
X2140Y1064D02*
X2147Y1064D01*
X0Y1063D02*
X7Y1063D01*
X2140Y1063D02*
X2147Y1063D01*
X0Y1062D02*
X7Y1062D01*
X2140Y1062D02*
X2147Y1062D01*
X0Y1061D02*
X7Y1061D01*
X2140Y1061D02*
X2147Y1061D01*
X0Y1060D02*
X7Y1060D01*
X2140Y1060D02*
X2147Y1060D01*
X0Y1059D02*
X7Y1059D01*
X2140Y1059D02*
X2147Y1059D01*
X0Y1058D02*
X7Y1058D01*
X2140Y1058D02*
X2147Y1058D01*
X0Y1057D02*
X7Y1057D01*
X2140Y1057D02*
X2147Y1057D01*
X0Y1056D02*
X7Y1056D01*
X2140Y1056D02*
X2147Y1056D01*
X0Y1055D02*
X7Y1055D01*
X2140Y1055D02*
X2147Y1055D01*
X0Y1054D02*
X7Y1054D01*
X2140Y1054D02*
X2147Y1054D01*
X0Y1053D02*
X7Y1053D01*
X2140Y1053D02*
X2147Y1053D01*
X0Y1052D02*
X7Y1052D01*
X2140Y1052D02*
X2147Y1052D01*
X0Y1051D02*
X7Y1051D01*
X2140Y1051D02*
X2147Y1051D01*
X0Y1050D02*
X7Y1050D01*
X2140Y1050D02*
X2147Y1050D01*
X0Y1049D02*
X7Y1049D01*
X2140Y1049D02*
X2147Y1049D01*
X0Y1048D02*
X7Y1048D01*
X2140Y1048D02*
X2147Y1048D01*
X0Y1047D02*
X7Y1047D01*
X2140Y1047D02*
X2147Y1047D01*
X0Y1046D02*
X7Y1046D01*
X2140Y1046D02*
X2147Y1046D01*
X0Y1045D02*
X7Y1045D01*
X2140Y1045D02*
X2147Y1045D01*
X0Y1044D02*
X7Y1044D01*
X2140Y1044D02*
X2147Y1044D01*
X0Y1043D02*
X7Y1043D01*
X2140Y1043D02*
X2147Y1043D01*
X0Y1042D02*
X7Y1042D01*
X2140Y1042D02*
X2147Y1042D01*
X0Y1041D02*
X7Y1041D01*
X2140Y1041D02*
X2147Y1041D01*
X0Y1040D02*
X7Y1040D01*
X2140Y1040D02*
X2147Y1040D01*
X0Y1039D02*
X7Y1039D01*
X2140Y1039D02*
X2147Y1039D01*
X0Y1038D02*
X7Y1038D01*
X2140Y1038D02*
X2147Y1038D01*
X0Y1037D02*
X7Y1037D01*
X2140Y1037D02*
X2147Y1037D01*
X0Y1036D02*
X7Y1036D01*
X2140Y1036D02*
X2147Y1036D01*
X0Y1035D02*
X7Y1035D01*
X2140Y1035D02*
X2147Y1035D01*
X0Y1034D02*
X7Y1034D01*
X2140Y1034D02*
X2147Y1034D01*
X0Y1033D02*
X7Y1033D01*
X2140Y1033D02*
X2147Y1033D01*
X0Y1032D02*
X7Y1032D01*
X2140Y1032D02*
X2147Y1032D01*
X0Y1031D02*
X7Y1031D01*
X2140Y1031D02*
X2147Y1031D01*
X0Y1030D02*
X7Y1030D01*
X2140Y1030D02*
X2147Y1030D01*
X0Y1029D02*
X7Y1029D01*
X2140Y1029D02*
X2147Y1029D01*
X0Y1028D02*
X7Y1028D01*
X2140Y1028D02*
X2147Y1028D01*
X0Y1027D02*
X7Y1027D01*
X2140Y1027D02*
X2147Y1027D01*
X0Y1026D02*
X7Y1026D01*
X2140Y1026D02*
X2147Y1026D01*
X0Y1025D02*
X7Y1025D01*
X2140Y1025D02*
X2147Y1025D01*
X0Y1024D02*
X7Y1024D01*
X2140Y1024D02*
X2147Y1024D01*
X0Y1023D02*
X7Y1023D01*
X2140Y1023D02*
X2147Y1023D01*
X0Y1022D02*
X7Y1022D01*
X2140Y1022D02*
X2147Y1022D01*
X0Y1021D02*
X7Y1021D01*
X2140Y1021D02*
X2147Y1021D01*
X0Y1020D02*
X7Y1020D01*
X2140Y1020D02*
X2147Y1020D01*
X0Y1019D02*
X7Y1019D01*
X2140Y1019D02*
X2147Y1019D01*
X0Y1018D02*
X7Y1018D01*
X2140Y1018D02*
X2147Y1018D01*
X0Y1017D02*
X7Y1017D01*
X2140Y1017D02*
X2147Y1017D01*
X0Y1016D02*
X7Y1016D01*
X2140Y1016D02*
X2147Y1016D01*
X0Y1015D02*
X7Y1015D01*
X2140Y1015D02*
X2147Y1015D01*
X0Y1014D02*
X7Y1014D01*
X2140Y1014D02*
X2147Y1014D01*
X0Y1013D02*
X7Y1013D01*
X2140Y1013D02*
X2147Y1013D01*
X0Y1012D02*
X7Y1012D01*
X2140Y1012D02*
X2147Y1012D01*
X0Y1011D02*
X7Y1011D01*
X2140Y1011D02*
X2147Y1011D01*
X0Y1010D02*
X7Y1010D01*
X2140Y1010D02*
X2147Y1010D01*
X0Y1009D02*
X7Y1009D01*
X2140Y1009D02*
X2147Y1009D01*
X0Y1008D02*
X7Y1008D01*
X2140Y1008D02*
X2147Y1008D01*
X0Y1007D02*
X7Y1007D01*
X2140Y1007D02*
X2147Y1007D01*
X0Y1006D02*
X7Y1006D01*
X2140Y1006D02*
X2147Y1006D01*
X0Y1005D02*
X7Y1005D01*
X2140Y1005D02*
X2147Y1005D01*
X0Y1004D02*
X7Y1004D01*
X2140Y1004D02*
X2147Y1004D01*
X0Y1003D02*
X7Y1003D01*
X2140Y1003D02*
X2147Y1003D01*
X0Y1002D02*
X7Y1002D01*
X2140Y1002D02*
X2147Y1002D01*
X0Y1001D02*
X7Y1001D01*
X2140Y1001D02*
X2147Y1001D01*
X0Y1000D02*
X7Y1000D01*
X2140Y1000D02*
X2147Y1000D01*
X0Y999D02*
X7Y999D01*
X2140Y999D02*
X2147Y999D01*
X0Y998D02*
X7Y998D01*
X2140Y998D02*
X2147Y998D01*
X0Y997D02*
X7Y997D01*
X2140Y997D02*
X2147Y997D01*
X0Y996D02*
X7Y996D01*
X2140Y996D02*
X2147Y996D01*
X0Y995D02*
X7Y995D01*
X2140Y995D02*
X2147Y995D01*
X0Y994D02*
X7Y994D01*
X2140Y994D02*
X2147Y994D01*
X0Y993D02*
X7Y993D01*
X2140Y993D02*
X2147Y993D01*
X0Y992D02*
X7Y992D01*
X2140Y992D02*
X2147Y992D01*
X0Y991D02*
X7Y991D01*
X2140Y991D02*
X2147Y991D01*
X0Y990D02*
X7Y990D01*
X2140Y990D02*
X2147Y990D01*
X0Y989D02*
X7Y989D01*
X2140Y989D02*
X2147Y989D01*
X0Y988D02*
X7Y988D01*
X2140Y988D02*
X2147Y988D01*
X0Y987D02*
X7Y987D01*
X2140Y987D02*
X2147Y987D01*
X0Y986D02*
X7Y986D01*
X2140Y986D02*
X2147Y986D01*
X0Y985D02*
X7Y985D01*
X2140Y985D02*
X2147Y985D01*
X0Y984D02*
X7Y984D01*
X2140Y984D02*
X2147Y984D01*
X0Y983D02*
X7Y983D01*
X2140Y983D02*
X2147Y983D01*
X0Y982D02*
X7Y982D01*
X2140Y982D02*
X2147Y982D01*
X0Y981D02*
X7Y981D01*
X2140Y981D02*
X2147Y981D01*
X0Y980D02*
X7Y980D01*
X2140Y980D02*
X2147Y980D01*
X0Y979D02*
X7Y979D01*
X2140Y979D02*
X2147Y979D01*
X0Y978D02*
X7Y978D01*
X2140Y978D02*
X2147Y978D01*
X0Y977D02*
X7Y977D01*
X2140Y977D02*
X2147Y977D01*
X0Y976D02*
X7Y976D01*
X2140Y976D02*
X2147Y976D01*
X0Y975D02*
X7Y975D01*
X2140Y975D02*
X2147Y975D01*
X0Y974D02*
X7Y974D01*
X2140Y974D02*
X2147Y974D01*
X0Y973D02*
X7Y973D01*
X2140Y973D02*
X2147Y973D01*
X0Y972D02*
X7Y972D01*
X2140Y972D02*
X2147Y972D01*
X0Y971D02*
X7Y971D01*
X2140Y971D02*
X2147Y971D01*
X0Y970D02*
X7Y970D01*
X2140Y970D02*
X2147Y970D01*
X0Y969D02*
X7Y969D01*
X2140Y969D02*
X2147Y969D01*
X0Y968D02*
X7Y968D01*
X2140Y968D02*
X2147Y968D01*
X0Y967D02*
X7Y967D01*
X2140Y967D02*
X2147Y967D01*
X0Y966D02*
X7Y966D01*
X2140Y966D02*
X2147Y966D01*
X0Y965D02*
X7Y965D01*
X2140Y965D02*
X2147Y965D01*
X0Y964D02*
X7Y964D01*
X2140Y964D02*
X2147Y964D01*
X0Y963D02*
X7Y963D01*
X2140Y963D02*
X2147Y963D01*
X0Y962D02*
X8Y962D01*
X2140Y962D02*
X2147Y962D01*
X0Y961D02*
X8Y961D01*
X2140Y961D02*
X2147Y961D01*
X0Y960D02*
X8Y960D01*
X2140Y960D02*
X2147Y960D01*
X0Y959D02*
X9Y959D01*
X2140Y959D02*
X2147Y959D01*
X0Y958D02*
X9Y958D01*
X2140Y958D02*
X2147Y958D01*
X0Y957D02*
X9Y957D01*
X2140Y957D02*
X2147Y957D01*
X0Y956D02*
X9Y956D01*
X2140Y956D02*
X2147Y956D01*
X0Y955D02*
X9Y955D01*
X2140Y955D02*
X2147Y955D01*
X0Y954D02*
X10Y954D01*
X2140Y954D02*
X2147Y954D01*
X0Y953D02*
X10Y953D01*
X2140Y953D02*
X2147Y953D01*
X0Y952D02*
X10Y952D01*
X2140Y952D02*
X2147Y952D01*
X0Y951D02*
X10Y951D01*
X2140Y951D02*
X2147Y951D01*
X0Y950D02*
X10Y950D01*
X2140Y950D02*
X2147Y950D01*
X0Y949D02*
X10Y949D01*
X2140Y949D02*
X2147Y949D01*
X0Y948D02*
X10Y948D01*
X2140Y948D02*
X2147Y948D01*
X0Y947D02*
X10Y947D01*
X2140Y947D02*
X2147Y947D01*
X0Y946D02*
X10Y946D01*
X2140Y946D02*
X2147Y946D01*
X0Y945D02*
X11Y945D01*
X2140Y945D02*
X2147Y945D01*
X0Y944D02*
X11Y944D01*
X2140Y944D02*
X2147Y944D01*
X0Y943D02*
X10Y943D01*
X2140Y943D02*
X2147Y943D01*
X0Y942D02*
X10Y942D01*
X2140Y942D02*
X2147Y942D01*
X0Y941D02*
X10Y941D01*
X2140Y941D02*
X2147Y941D01*
X0Y940D02*
X10Y940D01*
X2140Y940D02*
X2147Y940D01*
X0Y939D02*
X10Y939D01*
X2140Y939D02*
X2147Y939D01*
X0Y938D02*
X10Y938D01*
X2140Y938D02*
X2147Y938D01*
X0Y937D02*
X10Y937D01*
X2140Y937D02*
X2147Y937D01*
X0Y936D02*
X10Y936D01*
X2140Y936D02*
X2147Y936D01*
X0Y935D02*
X10Y935D01*
X2140Y935D02*
X2147Y935D01*
X0Y934D02*
X10Y934D01*
X2140Y934D02*
X2147Y934D01*
X0Y933D02*
X9Y933D01*
X2140Y933D02*
X2147Y933D01*
X0Y932D02*
X9Y932D01*
X2140Y932D02*
X2147Y932D01*
X0Y931D02*
X9Y931D01*
X2140Y931D02*
X2147Y931D01*
X0Y930D02*
X9Y930D01*
X2140Y930D02*
X2147Y930D01*
X0Y929D02*
X8Y929D01*
X2140Y929D02*
X2147Y929D01*
X0Y928D02*
X8Y928D01*
X2140Y928D02*
X2147Y928D01*
X0Y927D02*
X8Y927D01*
X2140Y927D02*
X2147Y927D01*
X0Y926D02*
X8Y926D01*
X2140Y926D02*
X2147Y926D01*
X0Y925D02*
X7Y925D01*
X2140Y925D02*
X2147Y925D01*
X0Y924D02*
X7Y924D01*
X2140Y924D02*
X2147Y924D01*
X0Y923D02*
X7Y923D01*
X2140Y923D02*
X2147Y923D01*
X0Y922D02*
X7Y922D01*
X2140Y922D02*
X2147Y922D01*
X0Y921D02*
X7Y921D01*
X2140Y921D02*
X2147Y921D01*
X0Y920D02*
X7Y920D01*
X2140Y920D02*
X2147Y920D01*
X0Y919D02*
X7Y919D01*
X2140Y919D02*
X2147Y919D01*
X0Y918D02*
X7Y918D01*
X2140Y918D02*
X2147Y918D01*
X0Y917D02*
X7Y917D01*
X2140Y917D02*
X2147Y917D01*
X0Y916D02*
X7Y916D01*
X2140Y916D02*
X2147Y916D01*
X0Y915D02*
X7Y915D01*
X2140Y915D02*
X2147Y915D01*
X0Y914D02*
X7Y914D01*
X2140Y914D02*
X2147Y914D01*
X0Y913D02*
X7Y913D01*
X2140Y913D02*
X2147Y913D01*
X0Y912D02*
X7Y912D01*
X2140Y912D02*
X2147Y912D01*
X0Y911D02*
X7Y911D01*
X2140Y911D02*
X2147Y911D01*
X0Y910D02*
X7Y910D01*
X2140Y910D02*
X2147Y910D01*
X0Y909D02*
X7Y909D01*
X2140Y909D02*
X2147Y909D01*
X0Y908D02*
X7Y908D01*
X2140Y908D02*
X2147Y908D01*
X0Y907D02*
X7Y907D01*
X2140Y907D02*
X2147Y907D01*
X0Y906D02*
X7Y906D01*
X2140Y906D02*
X2147Y906D01*
X0Y905D02*
X7Y905D01*
X2140Y905D02*
X2147Y905D01*
X0Y904D02*
X7Y904D01*
X2140Y904D02*
X2147Y904D01*
X0Y903D02*
X7Y903D01*
X2140Y903D02*
X2147Y903D01*
X0Y902D02*
X7Y902D01*
X2140Y902D02*
X2147Y902D01*
X0Y901D02*
X7Y901D01*
X2140Y901D02*
X2147Y901D01*
X0Y900D02*
X7Y900D01*
X2140Y900D02*
X2147Y900D01*
X0Y899D02*
X7Y899D01*
X2140Y899D02*
X2147Y899D01*
X0Y898D02*
X7Y898D01*
X2140Y898D02*
X2147Y898D01*
X0Y897D02*
X7Y897D01*
X2140Y897D02*
X2147Y897D01*
X0Y896D02*
X7Y896D01*
X2140Y896D02*
X2147Y896D01*
X0Y895D02*
X7Y895D01*
X2140Y895D02*
X2147Y895D01*
X0Y894D02*
X7Y894D01*
X2140Y894D02*
X2147Y894D01*
X0Y893D02*
X7Y893D01*
X2140Y893D02*
X2147Y893D01*
X0Y892D02*
X7Y892D01*
X2140Y892D02*
X2147Y892D01*
X0Y891D02*
X7Y891D01*
X2140Y891D02*
X2147Y891D01*
X0Y890D02*
X7Y890D01*
X2140Y890D02*
X2147Y890D01*
X0Y889D02*
X7Y889D01*
X2140Y889D02*
X2147Y889D01*
X0Y888D02*
X7Y888D01*
X2140Y888D02*
X2147Y888D01*
X0Y887D02*
X7Y887D01*
X2140Y887D02*
X2147Y887D01*
X0Y886D02*
X7Y886D01*
X2140Y886D02*
X2147Y886D01*
X0Y885D02*
X7Y885D01*
X2140Y885D02*
X2147Y885D01*
X0Y884D02*
X7Y884D01*
X2140Y884D02*
X2147Y884D01*
X0Y883D02*
X7Y883D01*
X2140Y883D02*
X2147Y883D01*
X0Y882D02*
X7Y882D01*
X2140Y882D02*
X2147Y882D01*
X0Y881D02*
X7Y881D01*
X2140Y881D02*
X2147Y881D01*
X0Y880D02*
X7Y880D01*
X2140Y880D02*
X2147Y880D01*
X0Y879D02*
X7Y879D01*
X2140Y879D02*
X2147Y879D01*
X0Y878D02*
X7Y878D01*
X2140Y878D02*
X2147Y878D01*
X0Y877D02*
X7Y877D01*
X2140Y877D02*
X2147Y877D01*
X0Y876D02*
X7Y876D01*
X2140Y876D02*
X2147Y876D01*
X0Y875D02*
X7Y875D01*
X2140Y875D02*
X2147Y875D01*
X0Y874D02*
X7Y874D01*
X2140Y874D02*
X2147Y874D01*
X0Y873D02*
X7Y873D01*
X2140Y873D02*
X2147Y873D01*
X0Y872D02*
X7Y872D01*
X2140Y872D02*
X2147Y872D01*
X0Y871D02*
X7Y871D01*
X2140Y871D02*
X2147Y871D01*
X0Y870D02*
X7Y870D01*
X2140Y870D02*
X2147Y870D01*
X0Y869D02*
X7Y869D01*
X2140Y869D02*
X2147Y869D01*
X0Y868D02*
X7Y868D01*
X2140Y868D02*
X2147Y868D01*
X0Y867D02*
X7Y867D01*
X2140Y867D02*
X2147Y867D01*
X0Y866D02*
X7Y866D01*
X2140Y866D02*
X2147Y866D01*
X0Y865D02*
X7Y865D01*
X2140Y865D02*
X2147Y865D01*
X0Y864D02*
X7Y864D01*
X2140Y864D02*
X2147Y864D01*
X0Y863D02*
X7Y863D01*
X2140Y863D02*
X2147Y863D01*
X0Y862D02*
X7Y862D01*
X2140Y862D02*
X2147Y862D01*
X0Y861D02*
X7Y861D01*
X2140Y861D02*
X2147Y861D01*
X0Y860D02*
X7Y860D01*
X2140Y860D02*
X2147Y860D01*
X0Y859D02*
X7Y859D01*
X2140Y859D02*
X2147Y859D01*
X0Y858D02*
X7Y858D01*
X2140Y858D02*
X2147Y858D01*
X0Y857D02*
X7Y857D01*
X2140Y857D02*
X2147Y857D01*
X0Y856D02*
X7Y856D01*
X2140Y856D02*
X2147Y856D01*
X0Y855D02*
X7Y855D01*
X2140Y855D02*
X2147Y855D01*
X0Y854D02*
X7Y854D01*
X2140Y854D02*
X2147Y854D01*
X0Y853D02*
X7Y853D01*
X2140Y853D02*
X2147Y853D01*
X0Y852D02*
X7Y852D01*
X2140Y852D02*
X2147Y852D01*
X0Y851D02*
X7Y851D01*
X2140Y851D02*
X2147Y851D01*
X0Y850D02*
X7Y850D01*
X2140Y850D02*
X2147Y850D01*
X0Y849D02*
X7Y849D01*
X2140Y849D02*
X2147Y849D01*
X0Y848D02*
X7Y848D01*
X2140Y848D02*
X2147Y848D01*
X0Y847D02*
X7Y847D01*
X2140Y847D02*
X2147Y847D01*
X0Y846D02*
X7Y846D01*
X2140Y846D02*
X2147Y846D01*
X0Y845D02*
X7Y845D01*
X2140Y845D02*
X2147Y845D01*
X0Y844D02*
X7Y844D01*
X2140Y844D02*
X2147Y844D01*
X0Y843D02*
X7Y843D01*
X2140Y843D02*
X2147Y843D01*
X0Y842D02*
X7Y842D01*
X2140Y842D02*
X2147Y842D01*
X0Y841D02*
X7Y841D01*
X2140Y841D02*
X2147Y841D01*
X0Y840D02*
X7Y840D01*
X2140Y840D02*
X2147Y840D01*
X0Y839D02*
X7Y839D01*
X2140Y839D02*
X2147Y839D01*
X0Y838D02*
X7Y838D01*
X2140Y838D02*
X2147Y838D01*
X0Y837D02*
X7Y837D01*
X2140Y837D02*
X2147Y837D01*
X0Y836D02*
X7Y836D01*
X2140Y836D02*
X2147Y836D01*
X0Y835D02*
X7Y835D01*
X2140Y835D02*
X2147Y835D01*
X0Y834D02*
X7Y834D01*
X2140Y834D02*
X2147Y834D01*
X0Y833D02*
X7Y833D01*
X2140Y833D02*
X2147Y833D01*
X0Y832D02*
X7Y832D01*
X2140Y832D02*
X2147Y832D01*
X0Y831D02*
X7Y831D01*
X2140Y831D02*
X2147Y831D01*
X0Y830D02*
X7Y830D01*
X2140Y830D02*
X2147Y830D01*
X0Y829D02*
X7Y829D01*
X2140Y829D02*
X2147Y829D01*
X0Y828D02*
X7Y828D01*
X2140Y828D02*
X2147Y828D01*
X0Y827D02*
X7Y827D01*
X2140Y827D02*
X2147Y827D01*
X0Y826D02*
X7Y826D01*
X2140Y826D02*
X2147Y826D01*
X0Y825D02*
X7Y825D01*
X2140Y825D02*
X2147Y825D01*
X0Y824D02*
X7Y824D01*
X2140Y824D02*
X2147Y824D01*
X0Y823D02*
X7Y823D01*
X2140Y823D02*
X2147Y823D01*
X0Y822D02*
X7Y822D01*
X2140Y822D02*
X2147Y822D01*
X0Y821D02*
X7Y821D01*
X2140Y821D02*
X2147Y821D01*
X0Y820D02*
X7Y820D01*
X2140Y820D02*
X2147Y820D01*
X0Y819D02*
X7Y819D01*
X2140Y819D02*
X2147Y819D01*
X0Y818D02*
X7Y818D01*
X2140Y818D02*
X2147Y818D01*
X0Y817D02*
X7Y817D01*
X2140Y817D02*
X2147Y817D01*
X0Y816D02*
X7Y816D01*
X2140Y816D02*
X2147Y816D01*
X0Y815D02*
X7Y815D01*
X2140Y815D02*
X2147Y815D01*
X0Y814D02*
X7Y814D01*
X2140Y814D02*
X2147Y814D01*
X0Y813D02*
X7Y813D01*
X2140Y813D02*
X2147Y813D01*
X0Y812D02*
X7Y812D01*
X2140Y812D02*
X2147Y812D01*
X0Y811D02*
X7Y811D01*
X2140Y811D02*
X2147Y811D01*
X0Y810D02*
X7Y810D01*
X2140Y810D02*
X2147Y810D01*
X0Y809D02*
X7Y809D01*
X2140Y809D02*
X2147Y809D01*
X0Y808D02*
X7Y808D01*
X2140Y808D02*
X2147Y808D01*
X0Y807D02*
X7Y807D01*
X2140Y807D02*
X2147Y807D01*
X0Y806D02*
X7Y806D01*
X2140Y806D02*
X2147Y806D01*
X0Y805D02*
X7Y805D01*
X2140Y805D02*
X2147Y805D01*
X0Y804D02*
X7Y804D01*
X2140Y804D02*
X2147Y804D01*
X0Y803D02*
X7Y803D01*
X2140Y803D02*
X2147Y803D01*
X0Y802D02*
X7Y802D01*
X2140Y802D02*
X2147Y802D01*
X0Y801D02*
X7Y801D01*
X2140Y801D02*
X2147Y801D01*
X0Y800D02*
X7Y800D01*
X2140Y800D02*
X2147Y800D01*
X0Y799D02*
X7Y799D01*
X2140Y799D02*
X2147Y799D01*
X0Y798D02*
X7Y798D01*
X2140Y798D02*
X2147Y798D01*
X0Y797D02*
X7Y797D01*
X2140Y797D02*
X2147Y797D01*
X0Y796D02*
X7Y796D01*
X2140Y796D02*
X2147Y796D01*
X0Y795D02*
X7Y795D01*
X2140Y795D02*
X2147Y795D01*
X0Y794D02*
X7Y794D01*
X2140Y794D02*
X2147Y794D01*
X0Y793D02*
X7Y793D01*
X2140Y793D02*
X2147Y793D01*
X0Y792D02*
X7Y792D01*
X2140Y792D02*
X2147Y792D01*
X0Y791D02*
X7Y791D01*
X2140Y791D02*
X2147Y791D01*
X0Y790D02*
X7Y790D01*
X2140Y790D02*
X2147Y790D01*
X0Y789D02*
X7Y789D01*
X2140Y789D02*
X2147Y789D01*
X0Y788D02*
X7Y788D01*
X2140Y788D02*
X2147Y788D01*
X0Y787D02*
X7Y787D01*
X2140Y787D02*
X2147Y787D01*
X0Y786D02*
X7Y786D01*
X2140Y786D02*
X2147Y786D01*
X0Y785D02*
X7Y785D01*
X2140Y785D02*
X2147Y785D01*
X0Y784D02*
X7Y784D01*
X2140Y784D02*
X2147Y784D01*
X0Y783D02*
X7Y783D01*
X2140Y783D02*
X2147Y783D01*
X0Y782D02*
X7Y782D01*
X2140Y782D02*
X2147Y782D01*
X0Y781D02*
X7Y781D01*
X2140Y781D02*
X2147Y781D01*
X0Y780D02*
X7Y780D01*
X2140Y780D02*
X2147Y780D01*
X0Y779D02*
X7Y779D01*
X2140Y779D02*
X2147Y779D01*
X0Y778D02*
X7Y778D01*
X2140Y778D02*
X2147Y778D01*
X0Y777D02*
X7Y777D01*
X2140Y777D02*
X2147Y777D01*
X0Y776D02*
X7Y776D01*
X2140Y776D02*
X2147Y776D01*
X0Y775D02*
X7Y775D01*
X2140Y775D02*
X2147Y775D01*
X0Y774D02*
X7Y774D01*
X2140Y774D02*
X2147Y774D01*
X0Y773D02*
X7Y773D01*
X2140Y773D02*
X2147Y773D01*
X0Y772D02*
X7Y772D01*
X2140Y772D02*
X2147Y772D01*
X0Y771D02*
X7Y771D01*
X2140Y771D02*
X2147Y771D01*
X0Y770D02*
X7Y770D01*
X2140Y770D02*
X2147Y770D01*
X0Y769D02*
X7Y769D01*
X2140Y769D02*
X2147Y769D01*
X0Y768D02*
X7Y768D01*
X2140Y768D02*
X2147Y768D01*
X0Y767D02*
X7Y767D01*
X2140Y767D02*
X2147Y767D01*
X0Y766D02*
X7Y766D01*
X2140Y766D02*
X2147Y766D01*
X0Y765D02*
X7Y765D01*
X2140Y765D02*
X2147Y765D01*
X0Y764D02*
X7Y764D01*
X2140Y764D02*
X2147Y764D01*
X0Y763D02*
X7Y763D01*
X2140Y763D02*
X2147Y763D01*
X0Y762D02*
X7Y762D01*
X2140Y762D02*
X2147Y762D01*
X0Y761D02*
X7Y761D01*
X626Y761D02*
X627Y761D01*
X2140Y761D02*
X2147Y761D01*
X0Y760D02*
X7Y760D01*
X625Y760D02*
X628Y760D01*
X2140Y760D02*
X2147Y760D01*
X0Y759D02*
X7Y759D01*
X624Y759D02*
X629Y759D01*
X2140Y759D02*
X2147Y759D01*
X0Y758D02*
X7Y758D01*
X623Y758D02*
X629Y758D01*
X2140Y758D02*
X2147Y758D01*
X0Y757D02*
X7Y757D01*
X622Y757D02*
X628Y757D01*
X2140Y757D02*
X2147Y757D01*
X0Y756D02*
X7Y756D01*
X621Y756D02*
X627Y756D01*
X2140Y756D02*
X2147Y756D01*
X0Y755D02*
X7Y755D01*
X620Y755D02*
X626Y755D01*
X2140Y755D02*
X2147Y755D01*
X0Y754D02*
X7Y754D01*
X2140Y754D02*
X2147Y754D01*
X0Y753D02*
X7Y753D01*
X2140Y753D02*
X2147Y753D01*
X0Y752D02*
X7Y752D01*
X2140Y752D02*
X2147Y752D01*
X0Y751D02*
X7Y751D01*
X2140Y751D02*
X2147Y751D01*
X0Y750D02*
X7Y750D01*
X2140Y750D02*
X2147Y750D01*
X0Y749D02*
X7Y749D01*
X2140Y749D02*
X2147Y749D01*
X0Y748D02*
X7Y748D01*
X2140Y748D02*
X2147Y748D01*
X0Y747D02*
X7Y747D01*
X2140Y747D02*
X2147Y747D01*
X0Y746D02*
X7Y746D01*
X2140Y746D02*
X2147Y746D01*
X0Y745D02*
X7Y745D01*
X2140Y745D02*
X2147Y745D01*
X0Y744D02*
X7Y744D01*
X2140Y744D02*
X2147Y744D01*
X0Y743D02*
X7Y743D01*
X2140Y743D02*
X2147Y743D01*
X0Y742D02*
X7Y742D01*
X2140Y742D02*
X2147Y742D01*
X0Y741D02*
X7Y741D01*
X2140Y741D02*
X2147Y741D01*
X0Y740D02*
X7Y740D01*
X2140Y740D02*
X2147Y740D01*
X0Y739D02*
X7Y739D01*
X2140Y739D02*
X2147Y739D01*
X0Y738D02*
X7Y738D01*
X2140Y738D02*
X2147Y738D01*
X0Y737D02*
X7Y737D01*
X2140Y737D02*
X2147Y737D01*
X0Y736D02*
X7Y736D01*
X2140Y736D02*
X2147Y736D01*
X0Y735D02*
X7Y735D01*
X2140Y735D02*
X2147Y735D01*
X0Y734D02*
X7Y734D01*
X599Y734D02*
X599Y734D01*
X2140Y734D02*
X2147Y734D01*
X0Y733D02*
X7Y733D01*
X598Y733D02*
X599Y733D01*
X2140Y733D02*
X2147Y733D01*
X0Y732D02*
X7Y732D01*
X597Y732D02*
X599Y732D01*
X2140Y732D02*
X2147Y732D01*
X0Y731D02*
X7Y731D01*
X596Y731D02*
X599Y731D01*
X2140Y731D02*
X2147Y731D01*
X0Y730D02*
X7Y730D01*
X595Y730D02*
X599Y730D01*
X2140Y730D02*
X2147Y730D01*
X0Y729D02*
X7Y729D01*
X594Y729D02*
X599Y729D01*
X2140Y729D02*
X2147Y729D01*
X0Y728D02*
X7Y728D01*
X593Y728D02*
X599Y728D01*
X2140Y728D02*
X2147Y728D01*
X0Y727D02*
X7Y727D01*
X592Y727D02*
X598Y727D01*
X2140Y727D02*
X2147Y727D01*
X0Y726D02*
X7Y726D01*
X593Y726D02*
X597Y726D01*
X2140Y726D02*
X2147Y726D01*
X0Y725D02*
X7Y725D01*
X594Y725D02*
X596Y725D01*
X2140Y725D02*
X2147Y725D01*
X0Y724D02*
X7Y724D01*
X595Y724D02*
X595Y724D01*
X2140Y724D02*
X2147Y724D01*
X0Y723D02*
X7Y723D01*
X2140Y723D02*
X2147Y723D01*
X0Y722D02*
X7Y722D01*
X2140Y722D02*
X2147Y722D01*
X0Y721D02*
X7Y721D01*
X2140Y721D02*
X2147Y721D01*
X0Y720D02*
X7Y720D01*
X2140Y720D02*
X2147Y720D01*
X0Y719D02*
X7Y719D01*
X2140Y719D02*
X2147Y719D01*
X0Y718D02*
X7Y718D01*
X2140Y718D02*
X2147Y718D01*
X0Y717D02*
X7Y717D01*
X2140Y717D02*
X2147Y717D01*
X0Y716D02*
X7Y716D01*
X2140Y716D02*
X2147Y716D01*
X0Y715D02*
X7Y715D01*
X2140Y715D02*
X2147Y715D01*
X0Y714D02*
X7Y714D01*
X2140Y714D02*
X2147Y714D01*
X0Y713D02*
X7Y713D01*
X2140Y713D02*
X2147Y713D01*
X0Y712D02*
X7Y712D01*
X2140Y712D02*
X2147Y712D01*
X0Y711D02*
X7Y711D01*
X2140Y711D02*
X2147Y711D01*
X0Y710D02*
X7Y710D01*
X2140Y710D02*
X2147Y710D01*
X0Y709D02*
X7Y709D01*
X2140Y709D02*
X2147Y709D01*
X0Y708D02*
X7Y708D01*
X2140Y708D02*
X2147Y708D01*
X0Y707D02*
X7Y707D01*
X2140Y707D02*
X2147Y707D01*
X0Y706D02*
X7Y706D01*
X2140Y706D02*
X2147Y706D01*
X0Y705D02*
X7Y705D01*
X2140Y705D02*
X2147Y705D01*
X0Y704D02*
X7Y704D01*
X2140Y704D02*
X2147Y704D01*
X0Y703D02*
X7Y703D01*
X2140Y703D02*
X2147Y703D01*
X0Y702D02*
X7Y702D01*
X2140Y702D02*
X2147Y702D01*
X0Y701D02*
X7Y701D01*
X2140Y701D02*
X2147Y701D01*
X0Y700D02*
X7Y700D01*
X2140Y700D02*
X2147Y700D01*
X0Y699D02*
X7Y699D01*
X2140Y699D02*
X2147Y699D01*
X0Y698D02*
X7Y698D01*
X2140Y698D02*
X2147Y698D01*
X0Y697D02*
X7Y697D01*
X2140Y697D02*
X2147Y697D01*
X0Y696D02*
X7Y696D01*
X2140Y696D02*
X2147Y696D01*
X0Y695D02*
X7Y695D01*
X2140Y695D02*
X2147Y695D01*
X0Y694D02*
X7Y694D01*
X2140Y694D02*
X2147Y694D01*
X0Y693D02*
X7Y693D01*
X2140Y693D02*
X2147Y693D01*
X0Y692D02*
X7Y692D01*
X2140Y692D02*
X2147Y692D01*
X0Y691D02*
X7Y691D01*
X2140Y691D02*
X2147Y691D01*
X0Y690D02*
X7Y690D01*
X2140Y690D02*
X2147Y690D01*
X0Y689D02*
X7Y689D01*
X2140Y689D02*
X2147Y689D01*
X0Y688D02*
X7Y688D01*
X2140Y688D02*
X2147Y688D01*
X0Y687D02*
X7Y687D01*
X2140Y687D02*
X2147Y687D01*
X0Y686D02*
X7Y686D01*
X2140Y686D02*
X2147Y686D01*
X0Y685D02*
X7Y685D01*
X2140Y685D02*
X2147Y685D01*
X0Y684D02*
X7Y684D01*
X2140Y684D02*
X2147Y684D01*
X0Y683D02*
X7Y683D01*
X2140Y683D02*
X2147Y683D01*
X0Y682D02*
X7Y682D01*
X2140Y682D02*
X2147Y682D01*
X0Y681D02*
X7Y681D01*
X2140Y681D02*
X2147Y681D01*
X0Y680D02*
X7Y680D01*
X2140Y680D02*
X2147Y680D01*
X0Y679D02*
X7Y679D01*
X2140Y679D02*
X2147Y679D01*
X0Y678D02*
X7Y678D01*
X2140Y678D02*
X2147Y678D01*
X0Y677D02*
X7Y677D01*
X2140Y677D02*
X2147Y677D01*
X0Y676D02*
X7Y676D01*
X2140Y676D02*
X2147Y676D01*
X0Y675D02*
X7Y675D01*
X2140Y675D02*
X2147Y675D01*
X0Y674D02*
X7Y674D01*
X2140Y674D02*
X2147Y674D01*
X0Y673D02*
X7Y673D01*
X2140Y673D02*
X2147Y673D01*
X0Y672D02*
X7Y672D01*
X2140Y672D02*
X2147Y672D01*
X0Y671D02*
X7Y671D01*
X2140Y671D02*
X2147Y671D01*
X0Y670D02*
X7Y670D01*
X2140Y670D02*
X2147Y670D01*
X0Y669D02*
X7Y669D01*
X2140Y669D02*
X2147Y669D01*
X0Y668D02*
X7Y668D01*
X2140Y668D02*
X2147Y668D01*
X0Y667D02*
X7Y667D01*
X2140Y667D02*
X2147Y667D01*
X0Y666D02*
X7Y666D01*
X2140Y666D02*
X2147Y666D01*
X0Y665D02*
X7Y665D01*
X2140Y665D02*
X2147Y665D01*
X0Y664D02*
X7Y664D01*
X2140Y664D02*
X2147Y664D01*
X0Y663D02*
X7Y663D01*
X2140Y663D02*
X2147Y663D01*
X0Y662D02*
X7Y662D01*
X2140Y662D02*
X2147Y662D01*
X0Y661D02*
X7Y661D01*
X2140Y661D02*
X2147Y661D01*
X0Y660D02*
X7Y660D01*
X2140Y660D02*
X2147Y660D01*
X0Y659D02*
X7Y659D01*
X2140Y659D02*
X2147Y659D01*
X0Y658D02*
X7Y658D01*
X2140Y658D02*
X2147Y658D01*
X0Y657D02*
X7Y657D01*
X2140Y657D02*
X2147Y657D01*
X0Y656D02*
X7Y656D01*
X2140Y656D02*
X2147Y656D01*
X0Y655D02*
X7Y655D01*
X2140Y655D02*
X2147Y655D01*
X0Y654D02*
X7Y654D01*
X2140Y654D02*
X2147Y654D01*
X0Y653D02*
X7Y653D01*
X2140Y653D02*
X2147Y653D01*
X0Y652D02*
X7Y652D01*
X2140Y652D02*
X2147Y652D01*
X0Y651D02*
X7Y651D01*
X2140Y651D02*
X2147Y651D01*
X0Y650D02*
X7Y650D01*
X2140Y650D02*
X2147Y650D01*
X0Y649D02*
X7Y649D01*
X2140Y649D02*
X2147Y649D01*
X0Y648D02*
X7Y648D01*
X2140Y648D02*
X2147Y648D01*
X0Y647D02*
X7Y647D01*
X2140Y647D02*
X2147Y647D01*
X0Y646D02*
X7Y646D01*
X2140Y646D02*
X2147Y646D01*
X0Y645D02*
X7Y645D01*
X2140Y645D02*
X2147Y645D01*
X0Y644D02*
X7Y644D01*
X2140Y644D02*
X2147Y644D01*
X0Y643D02*
X7Y643D01*
X2140Y643D02*
X2147Y643D01*
X0Y642D02*
X7Y642D01*
X2140Y642D02*
X2147Y642D01*
X0Y641D02*
X7Y641D01*
X2140Y641D02*
X2147Y641D01*
X0Y640D02*
X7Y640D01*
X2140Y640D02*
X2147Y640D01*
X0Y639D02*
X7Y639D01*
X2140Y639D02*
X2147Y639D01*
X0Y638D02*
X7Y638D01*
X2140Y638D02*
X2147Y638D01*
X0Y637D02*
X7Y637D01*
X2140Y637D02*
X2147Y637D01*
X0Y636D02*
X7Y636D01*
X2140Y636D02*
X2147Y636D01*
X0Y635D02*
X7Y635D01*
X2140Y635D02*
X2147Y635D01*
X0Y634D02*
X7Y634D01*
X2140Y634D02*
X2147Y634D01*
X0Y633D02*
X7Y633D01*
X2140Y633D02*
X2147Y633D01*
X0Y632D02*
X7Y632D01*
X2140Y632D02*
X2147Y632D01*
X0Y631D02*
X7Y631D01*
X2140Y631D02*
X2147Y631D01*
X0Y630D02*
X7Y630D01*
X2140Y630D02*
X2147Y630D01*
X0Y629D02*
X7Y629D01*
X2140Y629D02*
X2147Y629D01*
X0Y628D02*
X7Y628D01*
X2140Y628D02*
X2147Y628D01*
X0Y627D02*
X7Y627D01*
X2140Y627D02*
X2147Y627D01*
X0Y626D02*
X7Y626D01*
X2140Y626D02*
X2147Y626D01*
X0Y625D02*
X7Y625D01*
X2140Y625D02*
X2147Y625D01*
X0Y624D02*
X7Y624D01*
X2140Y624D02*
X2147Y624D01*
X0Y623D02*
X7Y623D01*
X2140Y623D02*
X2147Y623D01*
X0Y622D02*
X7Y622D01*
X2140Y622D02*
X2147Y622D01*
X0Y621D02*
X7Y621D01*
X2140Y621D02*
X2147Y621D01*
X0Y620D02*
X7Y620D01*
X2140Y620D02*
X2147Y620D01*
X0Y619D02*
X7Y619D01*
X2140Y619D02*
X2147Y619D01*
X0Y618D02*
X7Y618D01*
X2140Y618D02*
X2147Y618D01*
X0Y617D02*
X7Y617D01*
X2140Y617D02*
X2147Y617D01*
X0Y616D02*
X7Y616D01*
X2140Y616D02*
X2147Y616D01*
X0Y615D02*
X7Y615D01*
X2140Y615D02*
X2147Y615D01*
X0Y614D02*
X7Y614D01*
X2140Y614D02*
X2147Y614D01*
X0Y613D02*
X7Y613D01*
X2140Y613D02*
X2147Y613D01*
X0Y612D02*
X7Y612D01*
X2140Y612D02*
X2147Y612D01*
X0Y611D02*
X7Y611D01*
X2140Y611D02*
X2147Y611D01*
X0Y610D02*
X7Y610D01*
X2140Y610D02*
X2147Y610D01*
X0Y609D02*
X7Y609D01*
X2140Y609D02*
X2147Y609D01*
X0Y608D02*
X7Y608D01*
X2140Y608D02*
X2147Y608D01*
X0Y607D02*
X7Y607D01*
X2140Y607D02*
X2147Y607D01*
X0Y606D02*
X7Y606D01*
X2140Y606D02*
X2147Y606D01*
X0Y605D02*
X7Y605D01*
X2140Y605D02*
X2147Y605D01*
X0Y604D02*
X7Y604D01*
X2140Y604D02*
X2147Y604D01*
X0Y603D02*
X7Y603D01*
X2140Y603D02*
X2147Y603D01*
X0Y602D02*
X7Y602D01*
X2140Y602D02*
X2147Y602D01*
X0Y601D02*
X7Y601D01*
X2140Y601D02*
X2147Y601D01*
X0Y600D02*
X7Y600D01*
X2140Y600D02*
X2147Y600D01*
X0Y599D02*
X7Y599D01*
X2140Y599D02*
X2147Y599D01*
X0Y598D02*
X7Y598D01*
X2140Y598D02*
X2147Y598D01*
X0Y597D02*
X7Y597D01*
X2140Y597D02*
X2147Y597D01*
X0Y596D02*
X7Y596D01*
X2140Y596D02*
X2147Y596D01*
X0Y595D02*
X7Y595D01*
X2140Y595D02*
X2147Y595D01*
X0Y594D02*
X7Y594D01*
X2140Y594D02*
X2147Y594D01*
X0Y593D02*
X7Y593D01*
X2140Y593D02*
X2147Y593D01*
X0Y592D02*
X7Y592D01*
X2140Y592D02*
X2147Y592D01*
X0Y591D02*
X7Y591D01*
X2140Y591D02*
X2147Y591D01*
X0Y590D02*
X7Y590D01*
X2140Y590D02*
X2147Y590D01*
X0Y589D02*
X7Y589D01*
X2140Y589D02*
X2147Y589D01*
X0Y588D02*
X7Y588D01*
X2140Y588D02*
X2147Y588D01*
X0Y587D02*
X7Y587D01*
X2140Y587D02*
X2147Y587D01*
X0Y586D02*
X7Y586D01*
X2140Y586D02*
X2147Y586D01*
X0Y585D02*
X7Y585D01*
X2140Y585D02*
X2147Y585D01*
X0Y584D02*
X7Y584D01*
X2140Y584D02*
X2147Y584D01*
X0Y583D02*
X7Y583D01*
X2140Y583D02*
X2147Y583D01*
X0Y582D02*
X7Y582D01*
X2140Y582D02*
X2147Y582D01*
X0Y581D02*
X7Y581D01*
X2140Y581D02*
X2147Y581D01*
X0Y580D02*
X7Y580D01*
X2140Y580D02*
X2147Y580D01*
X0Y579D02*
X7Y579D01*
X2140Y579D02*
X2147Y579D01*
X0Y578D02*
X7Y578D01*
X2140Y578D02*
X2147Y578D01*
X0Y577D02*
X7Y577D01*
X2140Y577D02*
X2147Y577D01*
X0Y576D02*
X7Y576D01*
X2140Y576D02*
X2147Y576D01*
X0Y575D02*
X7Y575D01*
X2140Y575D02*
X2147Y575D01*
X0Y574D02*
X7Y574D01*
X2140Y574D02*
X2147Y574D01*
X0Y573D02*
X7Y573D01*
X2140Y573D02*
X2147Y573D01*
X0Y572D02*
X7Y572D01*
X2140Y572D02*
X2147Y572D01*
X0Y571D02*
X7Y571D01*
X2140Y571D02*
X2147Y571D01*
X0Y570D02*
X7Y570D01*
X2140Y570D02*
X2147Y570D01*
X0Y569D02*
X7Y569D01*
X2140Y569D02*
X2147Y569D01*
X0Y568D02*
X7Y568D01*
X2140Y568D02*
X2147Y568D01*
X0Y567D02*
X7Y567D01*
X2140Y567D02*
X2147Y567D01*
X0Y566D02*
X7Y566D01*
X2140Y566D02*
X2147Y566D01*
X0Y565D02*
X7Y565D01*
X2140Y565D02*
X2147Y565D01*
X0Y564D02*
X7Y564D01*
X2140Y564D02*
X2147Y564D01*
X0Y563D02*
X7Y563D01*
X2140Y563D02*
X2147Y563D01*
X0Y562D02*
X7Y562D01*
X2140Y562D02*
X2147Y562D01*
X0Y561D02*
X7Y561D01*
X2140Y561D02*
X2147Y561D01*
X0Y560D02*
X7Y560D01*
X2140Y560D02*
X2147Y560D01*
X0Y559D02*
X7Y559D01*
X2140Y559D02*
X2147Y559D01*
X0Y558D02*
X7Y558D01*
X2140Y558D02*
X2147Y558D01*
X0Y557D02*
X7Y557D01*
X2140Y557D02*
X2147Y557D01*
X0Y556D02*
X7Y556D01*
X2140Y556D02*
X2147Y556D01*
X0Y555D02*
X7Y555D01*
X2140Y555D02*
X2147Y555D01*
X0Y554D02*
X7Y554D01*
X2140Y554D02*
X2147Y554D01*
X0Y553D02*
X7Y553D01*
X2140Y553D02*
X2147Y553D01*
X0Y552D02*
X7Y552D01*
X2140Y552D02*
X2147Y552D01*
X0Y551D02*
X7Y551D01*
X2140Y551D02*
X2147Y551D01*
X0Y550D02*
X7Y550D01*
X2140Y550D02*
X2147Y550D01*
X0Y549D02*
X7Y549D01*
X2140Y549D02*
X2147Y549D01*
X0Y548D02*
X7Y548D01*
X2140Y548D02*
X2147Y548D01*
X0Y547D02*
X7Y547D01*
X2140Y547D02*
X2147Y547D01*
X0Y546D02*
X7Y546D01*
X2140Y546D02*
X2147Y546D01*
X0Y545D02*
X7Y545D01*
X2140Y545D02*
X2147Y545D01*
X0Y544D02*
X7Y544D01*
X2140Y544D02*
X2147Y544D01*
X0Y543D02*
X7Y543D01*
X2140Y543D02*
X2147Y543D01*
X0Y542D02*
X7Y542D01*
X2140Y542D02*
X2147Y542D01*
X0Y541D02*
X7Y541D01*
X2140Y541D02*
X2147Y541D01*
X0Y540D02*
X7Y540D01*
X2140Y540D02*
X2147Y540D01*
X0Y539D02*
X7Y539D01*
X2140Y539D02*
X2147Y539D01*
X0Y538D02*
X7Y538D01*
X2140Y538D02*
X2147Y538D01*
X0Y537D02*
X7Y537D01*
X2140Y537D02*
X2147Y537D01*
X0Y536D02*
X7Y536D01*
X2140Y536D02*
X2147Y536D01*
X0Y535D02*
X7Y535D01*
X2140Y535D02*
X2147Y535D01*
X0Y534D02*
X7Y534D01*
X2140Y534D02*
X2147Y534D01*
X0Y533D02*
X7Y533D01*
X2140Y533D02*
X2147Y533D01*
X0Y532D02*
X7Y532D01*
X2140Y532D02*
X2147Y532D01*
X0Y531D02*
X7Y531D01*
X2140Y531D02*
X2147Y531D01*
X0Y530D02*
X7Y530D01*
X2140Y530D02*
X2147Y530D01*
X0Y529D02*
X7Y529D01*
X2140Y529D02*
X2147Y529D01*
X0Y528D02*
X7Y528D01*
X2140Y528D02*
X2147Y528D01*
X0Y527D02*
X7Y527D01*
X2140Y527D02*
X2147Y527D01*
X0Y526D02*
X7Y526D01*
X2140Y526D02*
X2147Y526D01*
X0Y525D02*
X7Y525D01*
X2140Y525D02*
X2147Y525D01*
X0Y524D02*
X7Y524D01*
X2140Y524D02*
X2147Y524D01*
X0Y523D02*
X7Y523D01*
X2140Y523D02*
X2147Y523D01*
X0Y522D02*
X7Y522D01*
X2140Y522D02*
X2147Y522D01*
X0Y521D02*
X7Y521D01*
X2140Y521D02*
X2147Y521D01*
X0Y520D02*
X7Y520D01*
X2140Y520D02*
X2147Y520D01*
X0Y519D02*
X7Y519D01*
X2140Y519D02*
X2147Y519D01*
X0Y518D02*
X7Y518D01*
X2140Y518D02*
X2147Y518D01*
X0Y517D02*
X7Y517D01*
X2140Y517D02*
X2147Y517D01*
X0Y516D02*
X7Y516D01*
X2140Y516D02*
X2147Y516D01*
X0Y515D02*
X7Y515D01*
X2140Y515D02*
X2147Y515D01*
X0Y514D02*
X7Y514D01*
X2140Y514D02*
X2147Y514D01*
X0Y513D02*
X7Y513D01*
X2140Y513D02*
X2147Y513D01*
X0Y512D02*
X7Y512D01*
X2140Y512D02*
X2147Y512D01*
X0Y511D02*
X7Y511D01*
X2140Y511D02*
X2147Y511D01*
X0Y510D02*
X7Y510D01*
X2140Y510D02*
X2147Y510D01*
X0Y509D02*
X7Y509D01*
X2140Y509D02*
X2147Y509D01*
X0Y508D02*
X7Y508D01*
X2140Y508D02*
X2147Y508D01*
X0Y507D02*
X7Y507D01*
X2140Y507D02*
X2147Y507D01*
X0Y506D02*
X7Y506D01*
X2140Y506D02*
X2147Y506D01*
X0Y505D02*
X7Y505D01*
X2140Y505D02*
X2147Y505D01*
X0Y504D02*
X7Y504D01*
X2140Y504D02*
X2147Y504D01*
X0Y503D02*
X7Y503D01*
X2140Y503D02*
X2147Y503D01*
X0Y502D02*
X7Y502D01*
X2140Y502D02*
X2147Y502D01*
X0Y501D02*
X7Y501D01*
X2140Y501D02*
X2147Y501D01*
X0Y500D02*
X7Y500D01*
X2140Y500D02*
X2147Y500D01*
X0Y499D02*
X7Y499D01*
X2140Y499D02*
X2147Y499D01*
X0Y498D02*
X7Y498D01*
X2140Y498D02*
X2147Y498D01*
X0Y497D02*
X7Y497D01*
X2140Y497D02*
X2147Y497D01*
X0Y496D02*
X7Y496D01*
X2140Y496D02*
X2147Y496D01*
X0Y495D02*
X7Y495D01*
X2140Y495D02*
X2147Y495D01*
X0Y494D02*
X7Y494D01*
X2140Y494D02*
X2147Y494D01*
X0Y493D02*
X7Y493D01*
X2140Y493D02*
X2147Y493D01*
X0Y492D02*
X7Y492D01*
X2140Y492D02*
X2147Y492D01*
X0Y491D02*
X7Y491D01*
X2140Y491D02*
X2147Y491D01*
X0Y490D02*
X7Y490D01*
X2140Y490D02*
X2147Y490D01*
X0Y489D02*
X7Y489D01*
X2140Y489D02*
X2147Y489D01*
X0Y488D02*
X7Y488D01*
X2140Y488D02*
X2147Y488D01*
X0Y487D02*
X7Y487D01*
X2140Y487D02*
X2147Y487D01*
X0Y486D02*
X7Y486D01*
X2140Y486D02*
X2147Y486D01*
X0Y485D02*
X7Y485D01*
X2140Y485D02*
X2147Y485D01*
X0Y484D02*
X7Y484D01*
X2140Y484D02*
X2147Y484D01*
X0Y483D02*
X7Y483D01*
X2140Y483D02*
X2147Y483D01*
X0Y482D02*
X7Y482D01*
X2140Y482D02*
X2147Y482D01*
X0Y481D02*
X7Y481D01*
X2140Y481D02*
X2147Y481D01*
X0Y480D02*
X7Y480D01*
X2140Y480D02*
X2147Y480D01*
X0Y479D02*
X7Y479D01*
X2140Y479D02*
X2147Y479D01*
X0Y478D02*
X7Y478D01*
X2140Y478D02*
X2147Y478D01*
X0Y477D02*
X7Y477D01*
X2140Y477D02*
X2147Y477D01*
X0Y476D02*
X7Y476D01*
X2140Y476D02*
X2147Y476D01*
X0Y475D02*
X7Y475D01*
X2140Y475D02*
X2147Y475D01*
X0Y474D02*
X7Y474D01*
X2140Y474D02*
X2147Y474D01*
X0Y473D02*
X7Y473D01*
X2140Y473D02*
X2147Y473D01*
X0Y472D02*
X7Y472D01*
X2140Y472D02*
X2147Y472D01*
X0Y471D02*
X7Y471D01*
X2140Y471D02*
X2147Y471D01*
X0Y470D02*
X7Y470D01*
X2140Y470D02*
X2147Y470D01*
X0Y469D02*
X7Y469D01*
X2140Y469D02*
X2147Y469D01*
X0Y468D02*
X7Y468D01*
X2140Y468D02*
X2147Y468D01*
X0Y467D02*
X7Y467D01*
X2140Y467D02*
X2147Y467D01*
X0Y466D02*
X7Y466D01*
X2140Y466D02*
X2147Y466D01*
X0Y465D02*
X7Y465D01*
X2140Y465D02*
X2147Y465D01*
X0Y464D02*
X7Y464D01*
X2140Y464D02*
X2147Y464D01*
X0Y463D02*
X7Y463D01*
X2140Y463D02*
X2147Y463D01*
X0Y462D02*
X7Y462D01*
X2140Y462D02*
X2147Y462D01*
X0Y461D02*
X7Y461D01*
X2140Y461D02*
X2147Y461D01*
X0Y460D02*
X7Y460D01*
X2140Y460D02*
X2147Y460D01*
X0Y459D02*
X7Y459D01*
X2140Y459D02*
X2147Y459D01*
X0Y458D02*
X7Y458D01*
X2140Y458D02*
X2147Y458D01*
X0Y457D02*
X7Y457D01*
X2140Y457D02*
X2147Y457D01*
X0Y456D02*
X7Y456D01*
X2140Y456D02*
X2147Y456D01*
X0Y455D02*
X7Y455D01*
X2140Y455D02*
X2147Y455D01*
X0Y454D02*
X7Y454D01*
X2140Y454D02*
X2147Y454D01*
X0Y453D02*
X7Y453D01*
X2140Y453D02*
X2147Y453D01*
X0Y452D02*
X7Y452D01*
X2140Y452D02*
X2147Y452D01*
X0Y451D02*
X7Y451D01*
X2140Y451D02*
X2147Y451D01*
X0Y450D02*
X7Y450D01*
X2140Y450D02*
X2147Y450D01*
X0Y449D02*
X7Y449D01*
X2140Y449D02*
X2147Y449D01*
X0Y448D02*
X7Y448D01*
X2140Y448D02*
X2147Y448D01*
X0Y447D02*
X7Y447D01*
X2140Y447D02*
X2147Y447D01*
X0Y446D02*
X7Y446D01*
X2140Y446D02*
X2147Y446D01*
X0Y445D02*
X7Y445D01*
X2140Y445D02*
X2147Y445D01*
X0Y444D02*
X7Y444D01*
X2140Y444D02*
X2147Y444D01*
X0Y443D02*
X7Y443D01*
X2140Y443D02*
X2147Y443D01*
X0Y442D02*
X7Y442D01*
X2140Y442D02*
X2147Y442D01*
X0Y441D02*
X7Y441D01*
X2140Y441D02*
X2147Y441D01*
X0Y440D02*
X7Y440D01*
X2140Y440D02*
X2147Y440D01*
X0Y439D02*
X7Y439D01*
X2140Y439D02*
X2147Y439D01*
X0Y438D02*
X7Y438D01*
X2140Y438D02*
X2147Y438D01*
X0Y437D02*
X7Y437D01*
X2140Y437D02*
X2147Y437D01*
X0Y436D02*
X7Y436D01*
X2140Y436D02*
X2147Y436D01*
X0Y435D02*
X7Y435D01*
X2140Y435D02*
X2147Y435D01*
X0Y434D02*
X7Y434D01*
X2140Y434D02*
X2147Y434D01*
X0Y433D02*
X7Y433D01*
X2140Y433D02*
X2147Y433D01*
X0Y432D02*
X7Y432D01*
X2140Y432D02*
X2147Y432D01*
X0Y431D02*
X7Y431D01*
X2140Y431D02*
X2147Y431D01*
X0Y430D02*
X7Y430D01*
X2140Y430D02*
X2147Y430D01*
X0Y429D02*
X7Y429D01*
X2140Y429D02*
X2147Y429D01*
X0Y428D02*
X7Y428D01*
X2140Y428D02*
X2147Y428D01*
X0Y427D02*
X7Y427D01*
X2140Y427D02*
X2147Y427D01*
X0Y426D02*
X7Y426D01*
X2140Y426D02*
X2147Y426D01*
X0Y425D02*
X7Y425D01*
X2140Y425D02*
X2147Y425D01*
X0Y424D02*
X7Y424D01*
X2140Y424D02*
X2147Y424D01*
X0Y423D02*
X7Y423D01*
X2140Y423D02*
X2147Y423D01*
X0Y422D02*
X7Y422D01*
X2140Y422D02*
X2147Y422D01*
X0Y421D02*
X7Y421D01*
X2140Y421D02*
X2147Y421D01*
X0Y420D02*
X7Y420D01*
X2140Y420D02*
X2147Y420D01*
X0Y419D02*
X7Y419D01*
X2140Y419D02*
X2147Y419D01*
X0Y418D02*
X7Y418D01*
X2140Y418D02*
X2147Y418D01*
X0Y417D02*
X7Y417D01*
X2140Y417D02*
X2147Y417D01*
X0Y416D02*
X7Y416D01*
X2140Y416D02*
X2147Y416D01*
X0Y415D02*
X7Y415D01*
X2140Y415D02*
X2147Y415D01*
X0Y414D02*
X7Y414D01*
X2140Y414D02*
X2147Y414D01*
X0Y413D02*
X7Y413D01*
X2140Y413D02*
X2147Y413D01*
X0Y412D02*
X7Y412D01*
X2140Y412D02*
X2147Y412D01*
X0Y411D02*
X7Y411D01*
X2140Y411D02*
X2147Y411D01*
X0Y410D02*
X7Y410D01*
X2140Y410D02*
X2147Y410D01*
X0Y409D02*
X7Y409D01*
X2140Y409D02*
X2147Y409D01*
X0Y408D02*
X7Y408D01*
X2140Y408D02*
X2147Y408D01*
X0Y407D02*
X7Y407D01*
X2140Y407D02*
X2147Y407D01*
X0Y406D02*
X7Y406D01*
X2140Y406D02*
X2147Y406D01*
X0Y405D02*
X7Y405D01*
X2140Y405D02*
X2147Y405D01*
X0Y404D02*
X7Y404D01*
X2140Y404D02*
X2147Y404D01*
X0Y403D02*
X7Y403D01*
X2140Y403D02*
X2147Y403D01*
X0Y402D02*
X7Y402D01*
X2140Y402D02*
X2147Y402D01*
X0Y401D02*
X7Y401D01*
X2140Y401D02*
X2147Y401D01*
X0Y400D02*
X7Y400D01*
X2140Y400D02*
X2147Y400D01*
X0Y399D02*
X7Y399D01*
X2140Y399D02*
X2147Y399D01*
X0Y398D02*
X7Y398D01*
X2140Y398D02*
X2147Y398D01*
X0Y397D02*
X7Y397D01*
X2140Y397D02*
X2147Y397D01*
X0Y396D02*
X7Y396D01*
X2140Y396D02*
X2147Y396D01*
X0Y395D02*
X7Y395D01*
X2140Y395D02*
X2147Y395D01*
X0Y394D02*
X7Y394D01*
X2140Y394D02*
X2147Y394D01*
X0Y393D02*
X7Y393D01*
X2140Y393D02*
X2147Y393D01*
X0Y392D02*
X7Y392D01*
X2140Y392D02*
X2147Y392D01*
X0Y391D02*
X7Y391D01*
X2140Y391D02*
X2147Y391D01*
X0Y390D02*
X7Y390D01*
X2140Y390D02*
X2147Y390D01*
X0Y389D02*
X7Y389D01*
X2140Y389D02*
X2147Y389D01*
X0Y388D02*
X7Y388D01*
X2140Y388D02*
X2147Y388D01*
X0Y387D02*
X7Y387D01*
X2140Y387D02*
X2147Y387D01*
X0Y386D02*
X7Y386D01*
X2140Y386D02*
X2147Y386D01*
X0Y385D02*
X7Y385D01*
X2140Y385D02*
X2147Y385D01*
X0Y384D02*
X7Y384D01*
X2140Y384D02*
X2147Y384D01*
X0Y383D02*
X7Y383D01*
X2140Y383D02*
X2147Y383D01*
X0Y382D02*
X7Y382D01*
X2140Y382D02*
X2147Y382D01*
X0Y381D02*
X7Y381D01*
X2140Y381D02*
X2147Y381D01*
X0Y380D02*
X7Y380D01*
X2140Y380D02*
X2147Y380D01*
X0Y379D02*
X7Y379D01*
X2140Y379D02*
X2147Y379D01*
X0Y378D02*
X7Y378D01*
X2140Y378D02*
X2147Y378D01*
X0Y377D02*
X7Y377D01*
X2140Y377D02*
X2147Y377D01*
X0Y376D02*
X7Y376D01*
X2140Y376D02*
X2147Y376D01*
X0Y375D02*
X7Y375D01*
X2140Y375D02*
X2147Y375D01*
X0Y374D02*
X7Y374D01*
X2140Y374D02*
X2147Y374D01*
X0Y373D02*
X7Y373D01*
X2140Y373D02*
X2147Y373D01*
X0Y372D02*
X7Y372D01*
X2140Y372D02*
X2147Y372D01*
X0Y371D02*
X7Y371D01*
X2140Y371D02*
X2147Y371D01*
X0Y370D02*
X7Y370D01*
X2140Y370D02*
X2147Y370D01*
X0Y369D02*
X7Y369D01*
X2140Y369D02*
X2147Y369D01*
X0Y368D02*
X7Y368D01*
X2140Y368D02*
X2147Y368D01*
X0Y367D02*
X7Y367D01*
X2140Y367D02*
X2147Y367D01*
X0Y366D02*
X7Y366D01*
X2140Y366D02*
X2147Y366D01*
X0Y365D02*
X7Y365D01*
X2140Y365D02*
X2147Y365D01*
X0Y364D02*
X7Y364D01*
X2140Y364D02*
X2147Y364D01*
X0Y363D02*
X7Y363D01*
X2140Y363D02*
X2147Y363D01*
X0Y362D02*
X7Y362D01*
X2140Y362D02*
X2147Y362D01*
X0Y361D02*
X7Y361D01*
X2140Y361D02*
X2147Y361D01*
X0Y360D02*
X7Y360D01*
X2140Y360D02*
X2147Y360D01*
X0Y359D02*
X7Y359D01*
X2140Y359D02*
X2147Y359D01*
X0Y358D02*
X7Y358D01*
X2140Y358D02*
X2147Y358D01*
X0Y357D02*
X7Y357D01*
X2140Y357D02*
X2147Y357D01*
X0Y356D02*
X7Y356D01*
X2140Y356D02*
X2147Y356D01*
X0Y355D02*
X7Y355D01*
X2140Y355D02*
X2147Y355D01*
X0Y354D02*
X7Y354D01*
X2140Y354D02*
X2147Y354D01*
X0Y353D02*
X7Y353D01*
X2140Y353D02*
X2147Y353D01*
X0Y352D02*
X7Y352D01*
X2140Y352D02*
X2147Y352D01*
X0Y351D02*
X7Y351D01*
X2140Y351D02*
X2147Y351D01*
X0Y350D02*
X7Y350D01*
X2140Y350D02*
X2147Y350D01*
X0Y349D02*
X7Y349D01*
X2140Y349D02*
X2147Y349D01*
X0Y348D02*
X7Y348D01*
X2140Y348D02*
X2147Y348D01*
X0Y347D02*
X7Y347D01*
X2140Y347D02*
X2147Y347D01*
X0Y346D02*
X7Y346D01*
X2140Y346D02*
X2147Y346D01*
X0Y345D02*
X7Y345D01*
X2140Y345D02*
X2147Y345D01*
X0Y344D02*
X7Y344D01*
X2140Y344D02*
X2147Y344D01*
X0Y343D02*
X7Y343D01*
X2140Y343D02*
X2147Y343D01*
X0Y342D02*
X7Y342D01*
X2140Y342D02*
X2147Y342D01*
X0Y341D02*
X7Y341D01*
X2140Y341D02*
X2147Y341D01*
X0Y340D02*
X7Y340D01*
X2140Y340D02*
X2147Y340D01*
X0Y339D02*
X7Y339D01*
X2140Y339D02*
X2147Y339D01*
X0Y338D02*
X7Y338D01*
X2140Y338D02*
X2147Y338D01*
X0Y337D02*
X7Y337D01*
X2140Y337D02*
X2147Y337D01*
X0Y336D02*
X7Y336D01*
X2140Y336D02*
X2147Y336D01*
X0Y335D02*
X7Y335D01*
X2140Y335D02*
X2147Y335D01*
X0Y334D02*
X7Y334D01*
X2140Y334D02*
X2147Y334D01*
X0Y333D02*
X7Y333D01*
X2140Y333D02*
X2147Y333D01*
X0Y332D02*
X7Y332D01*
X2140Y332D02*
X2147Y332D01*
X0Y331D02*
X7Y331D01*
X2140Y331D02*
X2147Y331D01*
X0Y330D02*
X7Y330D01*
X2140Y330D02*
X2147Y330D01*
X0Y329D02*
X7Y329D01*
X2140Y329D02*
X2147Y329D01*
X0Y328D02*
X7Y328D01*
X2140Y328D02*
X2147Y328D01*
X0Y327D02*
X7Y327D01*
X2140Y327D02*
X2147Y327D01*
X0Y326D02*
X7Y326D01*
X2140Y326D02*
X2147Y326D01*
X0Y325D02*
X7Y325D01*
X2140Y325D02*
X2147Y325D01*
X0Y324D02*
X7Y324D01*
X2140Y324D02*
X2147Y324D01*
X0Y323D02*
X7Y323D01*
X2140Y323D02*
X2147Y323D01*
X0Y322D02*
X7Y322D01*
X2140Y322D02*
X2147Y322D01*
X0Y321D02*
X7Y321D01*
X2140Y321D02*
X2147Y321D01*
X0Y320D02*
X7Y320D01*
X2140Y320D02*
X2147Y320D01*
X0Y319D02*
X7Y319D01*
X2140Y319D02*
X2147Y319D01*
X0Y318D02*
X7Y318D01*
X2140Y318D02*
X2147Y318D01*
X0Y317D02*
X7Y317D01*
X2140Y317D02*
X2147Y317D01*
X0Y316D02*
X7Y316D01*
X2140Y316D02*
X2147Y316D01*
X0Y315D02*
X7Y315D01*
X2140Y315D02*
X2147Y315D01*
X0Y314D02*
X7Y314D01*
X2140Y314D02*
X2147Y314D01*
X0Y313D02*
X7Y313D01*
X2140Y313D02*
X2147Y313D01*
X0Y312D02*
X7Y312D01*
X2140Y312D02*
X2147Y312D01*
X0Y311D02*
X7Y311D01*
X2140Y311D02*
X2147Y311D01*
X0Y310D02*
X7Y310D01*
X2140Y310D02*
X2147Y310D01*
X0Y309D02*
X7Y309D01*
X2140Y309D02*
X2147Y309D01*
X0Y308D02*
X7Y308D01*
X2140Y308D02*
X2147Y308D01*
X0Y307D02*
X7Y307D01*
X2140Y307D02*
X2147Y307D01*
X0Y306D02*
X7Y306D01*
X2140Y306D02*
X2147Y306D01*
X0Y305D02*
X7Y305D01*
X2140Y305D02*
X2147Y305D01*
X0Y304D02*
X7Y304D01*
X2140Y304D02*
X2147Y304D01*
X0Y303D02*
X7Y303D01*
X2140Y303D02*
X2147Y303D01*
X0Y302D02*
X7Y302D01*
X2140Y302D02*
X2147Y302D01*
X0Y301D02*
X7Y301D01*
X2140Y301D02*
X2147Y301D01*
X0Y300D02*
X7Y300D01*
X2140Y300D02*
X2147Y300D01*
X0Y299D02*
X7Y299D01*
X2140Y299D02*
X2147Y299D01*
X0Y298D02*
X7Y298D01*
X2140Y298D02*
X2147Y298D01*
X0Y297D02*
X7Y297D01*
X2140Y297D02*
X2147Y297D01*
X0Y296D02*
X7Y296D01*
X2140Y296D02*
X2147Y296D01*
X0Y295D02*
X7Y295D01*
X2140Y295D02*
X2147Y295D01*
X0Y294D02*
X7Y294D01*
X2140Y294D02*
X2147Y294D01*
X0Y293D02*
X7Y293D01*
X2140Y293D02*
X2147Y293D01*
X0Y292D02*
X7Y292D01*
X2140Y292D02*
X2147Y292D01*
X0Y291D02*
X7Y291D01*
X2140Y291D02*
X2147Y291D01*
X0Y290D02*
X7Y290D01*
X2140Y290D02*
X2147Y290D01*
X0Y289D02*
X7Y289D01*
X2140Y289D02*
X2147Y289D01*
X0Y288D02*
X7Y288D01*
X2140Y288D02*
X2147Y288D01*
X0Y287D02*
X7Y287D01*
X2140Y287D02*
X2147Y287D01*
X0Y286D02*
X7Y286D01*
X2140Y286D02*
X2147Y286D01*
X0Y285D02*
X7Y285D01*
X2140Y285D02*
X2147Y285D01*
X0Y284D02*
X7Y284D01*
X2140Y284D02*
X2147Y284D01*
X0Y283D02*
X7Y283D01*
X2140Y283D02*
X2147Y283D01*
X0Y282D02*
X7Y282D01*
X2140Y282D02*
X2147Y282D01*
X0Y281D02*
X7Y281D01*
X2140Y281D02*
X2147Y281D01*
X0Y280D02*
X7Y280D01*
X2140Y280D02*
X2147Y280D01*
X0Y279D02*
X7Y279D01*
X2140Y279D02*
X2147Y279D01*
X0Y278D02*
X7Y278D01*
X2140Y278D02*
X2147Y278D01*
X0Y277D02*
X7Y277D01*
X2140Y277D02*
X2147Y277D01*
X0Y276D02*
X7Y276D01*
X2140Y276D02*
X2147Y276D01*
X0Y275D02*
X7Y275D01*
X2140Y275D02*
X2147Y275D01*
X0Y274D02*
X7Y274D01*
X2140Y274D02*
X2147Y274D01*
X0Y273D02*
X7Y273D01*
X2140Y273D02*
X2147Y273D01*
X0Y272D02*
X7Y272D01*
X2140Y272D02*
X2147Y272D01*
X0Y271D02*
X7Y271D01*
X2140Y271D02*
X2147Y271D01*
X0Y270D02*
X7Y270D01*
X2140Y270D02*
X2147Y270D01*
X0Y269D02*
X7Y269D01*
X2140Y269D02*
X2147Y269D01*
X0Y268D02*
X7Y268D01*
X2140Y268D02*
X2147Y268D01*
X0Y267D02*
X7Y267D01*
X2140Y267D02*
X2147Y267D01*
X0Y266D02*
X7Y266D01*
X2140Y266D02*
X2147Y266D01*
X0Y265D02*
X7Y265D01*
X2140Y265D02*
X2147Y265D01*
X0Y264D02*
X7Y264D01*
X2140Y264D02*
X2147Y264D01*
X0Y263D02*
X7Y263D01*
X2140Y263D02*
X2147Y263D01*
X0Y262D02*
X7Y262D01*
X2140Y262D02*
X2147Y262D01*
X0Y261D02*
X7Y261D01*
X2140Y261D02*
X2147Y261D01*
X0Y260D02*
X7Y260D01*
X2140Y260D02*
X2147Y260D01*
X0Y259D02*
X7Y259D01*
X2140Y259D02*
X2147Y259D01*
X0Y258D02*
X7Y258D01*
X2140Y258D02*
X2147Y258D01*
X0Y257D02*
X7Y257D01*
X2140Y257D02*
X2147Y257D01*
X0Y256D02*
X7Y256D01*
X2140Y256D02*
X2147Y256D01*
X0Y255D02*
X7Y255D01*
X2140Y255D02*
X2147Y255D01*
X0Y254D02*
X7Y254D01*
X2140Y254D02*
X2147Y254D01*
X0Y253D02*
X7Y253D01*
X2140Y253D02*
X2147Y253D01*
X0Y252D02*
X7Y252D01*
X2140Y252D02*
X2147Y252D01*
X0Y251D02*
X7Y251D01*
X2140Y251D02*
X2147Y251D01*
X0Y250D02*
X7Y250D01*
X2140Y250D02*
X2147Y250D01*
X0Y249D02*
X7Y249D01*
X2140Y249D02*
X2147Y249D01*
X0Y248D02*
X7Y248D01*
X2140Y248D02*
X2147Y248D01*
X0Y247D02*
X7Y247D01*
X2140Y247D02*
X2147Y247D01*
X0Y246D02*
X7Y246D01*
X2140Y246D02*
X2147Y246D01*
X0Y245D02*
X7Y245D01*
X2140Y245D02*
X2147Y245D01*
X0Y244D02*
X7Y244D01*
X2140Y244D02*
X2147Y244D01*
X0Y243D02*
X7Y243D01*
X2140Y243D02*
X2147Y243D01*
X0Y242D02*
X7Y242D01*
X2140Y242D02*
X2147Y242D01*
X0Y241D02*
X7Y241D01*
X2140Y241D02*
X2147Y241D01*
X0Y240D02*
X7Y240D01*
X2140Y240D02*
X2147Y240D01*
X0Y239D02*
X7Y239D01*
X2140Y239D02*
X2147Y239D01*
X0Y238D02*
X7Y238D01*
X2140Y238D02*
X2147Y238D01*
X0Y237D02*
X7Y237D01*
X2140Y237D02*
X2147Y237D01*
X0Y236D02*
X7Y236D01*
X2140Y236D02*
X2147Y236D01*
X0Y235D02*
X7Y235D01*
X2140Y235D02*
X2147Y235D01*
X0Y234D02*
X7Y234D01*
X2140Y234D02*
X2147Y234D01*
X0Y233D02*
X7Y233D01*
X2140Y233D02*
X2147Y233D01*
X0Y232D02*
X7Y232D01*
X2140Y232D02*
X2147Y232D01*
X0Y231D02*
X7Y231D01*
X2140Y231D02*
X2147Y231D01*
X0Y230D02*
X7Y230D01*
X2140Y230D02*
X2147Y230D01*
X0Y229D02*
X7Y229D01*
X2140Y229D02*
X2147Y229D01*
X0Y228D02*
X7Y228D01*
X2140Y228D02*
X2147Y228D01*
X0Y227D02*
X7Y227D01*
X2140Y227D02*
X2147Y227D01*
X0Y226D02*
X7Y226D01*
X2140Y226D02*
X2147Y226D01*
X0Y225D02*
X7Y225D01*
X278Y225D02*
X285Y225D01*
X2140Y225D02*
X2147Y225D01*
X0Y224D02*
X7Y224D01*
X277Y224D02*
X286Y224D01*
X2140Y224D02*
X2147Y224D01*
X0Y223D02*
X7Y223D01*
X277Y223D02*
X286Y223D01*
X2140Y223D02*
X2147Y223D01*
X0Y222D02*
X7Y222D01*
X218Y222D02*
X236Y222D01*
X277Y222D02*
X286Y222D01*
X421Y222D02*
X435Y222D01*
X2140Y222D02*
X2147Y222D01*
X0Y221D02*
X7Y221D01*
X217Y221D02*
X238Y221D01*
X277Y221D02*
X286Y221D01*
X420Y221D02*
X436Y221D01*
X2140Y221D02*
X2147Y221D01*
X0Y220D02*
X7Y220D01*
X217Y220D02*
X239Y220D01*
X277Y220D02*
X286Y220D01*
X420Y220D02*
X436Y220D01*
X2140Y220D02*
X2147Y220D01*
X0Y219D02*
X7Y219D01*
X217Y219D02*
X240Y219D01*
X277Y219D02*
X286Y219D01*
X420Y219D02*
X436Y219D01*
X2140Y219D02*
X2147Y219D01*
X0Y218D02*
X7Y218D01*
X217Y218D02*
X241Y218D01*
X277Y218D02*
X286Y218D01*
X420Y218D02*
X436Y218D01*
X2140Y218D02*
X2147Y218D01*
X0Y217D02*
X7Y217D01*
X217Y217D02*
X241Y217D01*
X278Y217D02*
X285Y217D01*
X421Y217D02*
X436Y217D01*
X2140Y217D02*
X2147Y217D01*
X0Y216D02*
X7Y216D01*
X219Y216D02*
X242Y216D01*
X279Y216D02*
X284Y216D01*
X422Y216D02*
X436Y216D01*
X2140Y216D02*
X2147Y216D01*
X0Y215D02*
X7Y215D01*
X223Y215D02*
X229Y215D01*
X235Y215D02*
X242Y215D01*
X430Y215D02*
X436Y215D01*
X2140Y215D02*
X2147Y215D01*
X0Y214D02*
X7Y214D01*
X223Y214D02*
X229Y214D01*
X236Y214D02*
X243Y214D01*
X430Y214D02*
X436Y214D01*
X2140Y214D02*
X2147Y214D01*
X0Y213D02*
X7Y213D01*
X223Y213D02*
X229Y213D01*
X236Y213D02*
X243Y213D01*
X430Y213D02*
X436Y213D01*
X2140Y213D02*
X2147Y213D01*
X0Y212D02*
X7Y212D01*
X223Y212D02*
X229Y212D01*
X237Y212D02*
X244Y212D01*
X430Y212D02*
X436Y212D01*
X2140Y212D02*
X2147Y212D01*
X0Y211D02*
X7Y211D01*
X223Y211D02*
X229Y211D01*
X237Y211D02*
X244Y211D01*
X430Y211D02*
X436Y211D01*
X2140Y211D02*
X2147Y211D01*
X0Y210D02*
X7Y210D01*
X223Y210D02*
X229Y210D01*
X238Y210D02*
X245Y210D01*
X430Y210D02*
X436Y210D01*
X2140Y210D02*
X2147Y210D01*
X0Y209D02*
X7Y209D01*
X223Y209D02*
X229Y209D01*
X238Y209D02*
X245Y209D01*
X368Y209D02*
X371Y209D01*
X380Y209D02*
X387Y209D01*
X430Y209D02*
X436Y209D01*
X2140Y209D02*
X2147Y209D01*
X0Y208D02*
X7Y208D01*
X223Y208D02*
X229Y208D01*
X239Y208D02*
X246Y208D01*
X273Y208D02*
X283Y208D01*
X325Y208D02*
X341Y208D01*
X367Y208D02*
X372Y208D01*
X378Y208D02*
X389Y208D01*
X430Y208D02*
X436Y208D01*
X476Y208D02*
X490Y208D01*
X519Y208D02*
X520Y208D01*
X547Y208D02*
X547Y208D01*
X2140Y208D02*
X2147Y208D01*
X0Y207D02*
X7Y207D01*
X223Y207D02*
X229Y207D01*
X239Y207D02*
X246Y207D01*
X271Y207D02*
X285Y207D01*
X322Y207D02*
X345Y207D01*
X367Y207D02*
X372Y207D01*
X376Y207D02*
X391Y207D01*
X430Y207D02*
X436Y207D01*
X474Y207D02*
X493Y207D01*
X518Y207D02*
X521Y207D01*
X545Y207D02*
X549Y207D01*
X2140Y207D02*
X2147Y207D01*
X0Y206D02*
X7Y206D01*
X223Y206D02*
X229Y206D01*
X240Y206D02*
X247Y206D01*
X270Y206D02*
X286Y206D01*
X321Y206D02*
X346Y206D01*
X367Y206D02*
X373Y206D01*
X375Y206D02*
X392Y206D01*
X430Y206D02*
X436Y206D01*
X474Y206D02*
X495Y206D01*
X517Y206D02*
X522Y206D01*
X544Y206D02*
X550Y206D01*
X2140Y206D02*
X2147Y206D01*
X0Y205D02*
X7Y205D01*
X223Y205D02*
X229Y205D01*
X240Y205D02*
X247Y205D01*
X270Y205D02*
X286Y205D01*
X320Y205D02*
X347Y205D01*
X367Y205D02*
X393Y205D01*
X430Y205D02*
X436Y205D01*
X473Y205D02*
X496Y205D01*
X517Y205D02*
X522Y205D01*
X544Y205D02*
X550Y205D01*
X2140Y205D02*
X2147Y205D01*
X0Y204D02*
X7Y204D01*
X223Y204D02*
X229Y204D01*
X241Y204D02*
X248Y204D01*
X270Y204D02*
X286Y204D01*
X319Y204D02*
X348Y204D01*
X367Y204D02*
X394Y204D01*
X430Y204D02*
X436Y204D01*
X474Y204D02*
X497Y204D01*
X517Y204D02*
X523Y204D01*
X544Y204D02*
X550Y204D01*
X2140Y204D02*
X2147Y204D01*
X0Y203D02*
X7Y203D01*
X223Y203D02*
X229Y203D01*
X241Y203D02*
X248Y203D01*
X270Y203D02*
X286Y203D01*
X318Y203D02*
X349Y203D01*
X367Y203D02*
X395Y203D01*
X430Y203D02*
X436Y203D01*
X474Y203D02*
X498Y203D01*
X517Y203D02*
X523Y203D01*
X544Y203D02*
X550Y203D01*
X2140Y203D02*
X2147Y203D01*
X0Y202D02*
X7Y202D01*
X223Y202D02*
X229Y202D01*
X242Y202D02*
X249Y202D01*
X271Y202D02*
X286Y202D01*
X318Y202D02*
X349Y202D01*
X367Y202D02*
X380Y202D01*
X386Y202D02*
X396Y202D01*
X430Y202D02*
X436Y202D01*
X475Y202D02*
X498Y202D01*
X517Y202D02*
X523Y202D01*
X544Y202D02*
X550Y202D01*
X2140Y202D02*
X2147Y202D01*
X0Y201D02*
X7Y201D01*
X223Y201D02*
X229Y201D01*
X242Y201D02*
X249Y201D01*
X280Y201D02*
X286Y201D01*
X318Y201D02*
X325Y201D01*
X341Y201D02*
X349Y201D01*
X367Y201D02*
X379Y201D01*
X388Y201D02*
X397Y201D01*
X430Y201D02*
X436Y201D01*
X490Y201D02*
X499Y201D01*
X517Y201D02*
X523Y201D01*
X544Y201D02*
X550Y201D01*
X2140Y201D02*
X2147Y201D01*
X0Y200D02*
X7Y200D01*
X223Y200D02*
X229Y200D01*
X243Y200D02*
X249Y200D01*
X280Y200D02*
X286Y200D01*
X317Y200D02*
X324Y200D01*
X343Y200D02*
X349Y200D01*
X367Y200D02*
X378Y200D01*
X389Y200D02*
X398Y200D01*
X430Y200D02*
X436Y200D01*
X492Y200D02*
X499Y200D01*
X517Y200D02*
X523Y200D01*
X544Y200D02*
X550Y200D01*
X2140Y200D02*
X2147Y200D01*
X0Y199D02*
X7Y199D01*
X223Y199D02*
X229Y199D01*
X243Y199D02*
X250Y199D01*
X280Y199D02*
X286Y199D01*
X317Y199D02*
X323Y199D01*
X345Y199D02*
X348Y199D01*
X367Y199D02*
X377Y199D01*
X390Y199D02*
X399Y199D01*
X430Y199D02*
X436Y199D01*
X493Y199D02*
X499Y199D01*
X517Y199D02*
X523Y199D01*
X544Y199D02*
X550Y199D01*
X2140Y199D02*
X2147Y199D01*
X0Y198D02*
X7Y198D01*
X223Y198D02*
X229Y198D01*
X244Y198D02*
X250Y198D01*
X280Y198D02*
X286Y198D01*
X318Y198D02*
X324Y198D01*
X367Y198D02*
X376Y198D01*
X391Y198D02*
X399Y198D01*
X430Y198D02*
X436Y198D01*
X493Y198D02*
X499Y198D01*
X517Y198D02*
X523Y198D01*
X543Y198D02*
X550Y198D01*
X2140Y198D02*
X2147Y198D01*
X0Y197D02*
X7Y197D01*
X223Y197D02*
X229Y197D01*
X244Y197D02*
X250Y197D01*
X280Y197D02*
X286Y197D01*
X318Y197D02*
X325Y197D01*
X367Y197D02*
X375Y197D01*
X392Y197D02*
X400Y197D01*
X430Y197D02*
X436Y197D01*
X493Y197D02*
X499Y197D01*
X517Y197D02*
X524Y197D01*
X543Y197D02*
X550Y197D01*
X2140Y197D02*
X2147Y197D01*
X0Y196D02*
X7Y196D01*
X223Y196D02*
X229Y196D01*
X244Y196D02*
X250Y196D01*
X280Y196D02*
X286Y196D01*
X318Y196D02*
X328Y196D01*
X367Y196D02*
X374Y196D01*
X393Y196D02*
X400Y196D01*
X430Y196D02*
X436Y196D01*
X493Y196D02*
X499Y196D01*
X517Y196D02*
X524Y196D01*
X543Y196D02*
X549Y196D01*
X2140Y196D02*
X2147Y196D01*
X0Y195D02*
X7Y195D01*
X223Y195D02*
X229Y195D01*
X244Y195D02*
X250Y195D01*
X280Y195D02*
X286Y195D01*
X319Y195D02*
X330Y195D01*
X367Y195D02*
X373Y195D01*
X394Y195D02*
X400Y195D01*
X430Y195D02*
X436Y195D01*
X493Y195D02*
X499Y195D01*
X518Y195D02*
X524Y195D01*
X542Y195D02*
X549Y195D01*
X2140Y195D02*
X2147Y195D01*
X0Y194D02*
X7Y194D01*
X223Y194D02*
X229Y194D01*
X244Y194D02*
X250Y194D01*
X280Y194D02*
X286Y194D01*
X319Y194D02*
X332Y194D01*
X367Y194D02*
X373Y194D01*
X394Y194D02*
X400Y194D01*
X430Y194D02*
X436Y194D01*
X493Y194D02*
X499Y194D01*
X518Y194D02*
X525Y194D01*
X542Y194D02*
X548Y194D01*
X2140Y194D02*
X2147Y194D01*
X0Y193D02*
X7Y193D01*
X223Y193D02*
X229Y193D01*
X244Y193D02*
X250Y193D01*
X280Y193D02*
X286Y193D01*
X320Y193D02*
X335Y193D01*
X367Y193D02*
X373Y193D01*
X394Y193D02*
X400Y193D01*
X430Y193D02*
X436Y193D01*
X474Y193D02*
X499Y193D01*
X519Y193D02*
X525Y193D01*
X541Y193D02*
X548Y193D01*
X2140Y193D02*
X2147Y193D01*
X0Y192D02*
X7Y192D01*
X223Y192D02*
X229Y192D01*
X243Y192D02*
X250Y192D01*
X280Y192D02*
X286Y192D01*
X321Y192D02*
X337Y192D01*
X367Y192D02*
X373Y192D01*
X394Y192D02*
X400Y192D01*
X430Y192D02*
X436Y192D01*
X472Y192D02*
X499Y192D01*
X519Y192D02*
X526Y192D01*
X541Y192D02*
X547Y192D01*
X2140Y192D02*
X2147Y192D01*
X0Y191D02*
X7Y191D01*
X223Y191D02*
X229Y191D01*
X243Y191D02*
X249Y191D01*
X280Y191D02*
X286Y191D01*
X323Y191D02*
X339Y191D01*
X367Y191D02*
X373Y191D01*
X394Y191D02*
X400Y191D01*
X430Y191D02*
X436Y191D01*
X470Y191D02*
X499Y191D01*
X520Y191D02*
X526Y191D01*
X540Y191D02*
X547Y191D01*
X2140Y191D02*
X2147Y191D01*
X0Y190D02*
X7Y190D01*
X223Y190D02*
X229Y190D01*
X242Y190D02*
X249Y190D01*
X280Y190D02*
X286Y190D01*
X325Y190D02*
X342Y190D01*
X367Y190D02*
X373Y190D01*
X394Y190D02*
X400Y190D01*
X430Y190D02*
X436Y190D01*
X469Y190D02*
X499Y190D01*
X520Y190D02*
X527Y190D01*
X540Y190D02*
X547Y190D01*
X2140Y190D02*
X2147Y190D01*
X0Y189D02*
X7Y189D01*
X223Y189D02*
X229Y189D01*
X242Y189D02*
X249Y189D01*
X280Y189D02*
X286Y189D01*
X327Y189D02*
X344Y189D01*
X367Y189D02*
X373Y189D01*
X394Y189D02*
X400Y189D01*
X430Y189D02*
X436Y189D01*
X468Y189D02*
X500Y189D01*
X520Y189D02*
X527Y189D01*
X539Y189D02*
X546Y189D01*
X2140Y189D02*
X2147Y189D01*
X0Y188D02*
X7Y188D01*
X223Y188D02*
X229Y188D01*
X241Y188D02*
X248Y188D01*
X280Y188D02*
X286Y188D01*
X330Y188D02*
X345Y188D01*
X367Y188D02*
X373Y188D01*
X394Y188D02*
X400Y188D01*
X430Y188D02*
X436Y188D01*
X468Y188D02*
X500Y188D01*
X521Y188D02*
X528Y188D01*
X539Y188D02*
X546Y188D01*
X2140Y188D02*
X2147Y188D01*
X0Y187D02*
X7Y187D01*
X223Y187D02*
X229Y187D01*
X241Y187D02*
X248Y187D01*
X280Y187D02*
X286Y187D01*
X332Y187D02*
X347Y187D01*
X367Y187D02*
X373Y187D01*
X394Y187D02*
X400Y187D01*
X430Y187D02*
X436Y187D01*
X467Y187D02*
X500Y187D01*
X521Y187D02*
X528Y187D01*
X539Y187D02*
X545Y187D01*
X2140Y187D02*
X2147Y187D01*
X0Y186D02*
X7Y186D01*
X223Y186D02*
X229Y186D01*
X240Y186D02*
X247Y186D01*
X280Y186D02*
X286Y186D01*
X334Y186D02*
X348Y186D01*
X367Y186D02*
X373Y186D01*
X394Y186D02*
X400Y186D01*
X430Y186D02*
X436Y186D01*
X467Y186D02*
X475Y186D01*
X492Y186D02*
X500Y186D01*
X522Y186D02*
X528Y186D01*
X538Y186D02*
X545Y186D01*
X2140Y186D02*
X2147Y186D01*
X0Y185D02*
X7Y185D01*
X223Y185D02*
X229Y185D01*
X240Y185D02*
X247Y185D01*
X280Y185D02*
X286Y185D01*
X337Y185D02*
X348Y185D01*
X367Y185D02*
X373Y185D01*
X394Y185D02*
X400Y185D01*
X430Y185D02*
X436Y185D01*
X467Y185D02*
X473Y185D01*
X493Y185D02*
X500Y185D01*
X522Y185D02*
X529Y185D01*
X538Y185D02*
X544Y185D01*
X2140Y185D02*
X2147Y185D01*
X0Y184D02*
X7Y184D01*
X223Y184D02*
X229Y184D01*
X239Y184D02*
X246Y184D01*
X280Y184D02*
X286Y184D01*
X339Y184D02*
X349Y184D01*
X367Y184D02*
X373Y184D01*
X394Y184D02*
X400Y184D01*
X430Y184D02*
X436Y184D01*
X467Y184D02*
X473Y184D01*
X493Y184D02*
X500Y184D01*
X523Y184D02*
X529Y184D01*
X537Y184D02*
X544Y184D01*
X2140Y184D02*
X2147Y184D01*
X0Y183D02*
X7Y183D01*
X223Y183D02*
X229Y183D01*
X239Y183D02*
X246Y183D01*
X280Y183D02*
X286Y183D01*
X341Y183D02*
X349Y183D01*
X367Y183D02*
X373Y183D01*
X394Y183D02*
X400Y183D01*
X430Y183D02*
X436Y183D01*
X467Y183D02*
X473Y183D01*
X494Y183D02*
X500Y183D01*
X523Y183D02*
X530Y183D01*
X537Y183D02*
X544Y183D01*
X2140Y183D02*
X2147Y183D01*
X0Y182D02*
X7Y182D01*
X223Y182D02*
X229Y182D01*
X238Y182D02*
X245Y182D01*
X280Y182D02*
X286Y182D01*
X343Y182D02*
X350Y182D01*
X367Y182D02*
X373Y182D01*
X394Y182D02*
X400Y182D01*
X430Y182D02*
X436Y182D01*
X467Y182D02*
X473Y182D01*
X494Y182D02*
X500Y182D01*
X524Y182D02*
X530Y182D01*
X536Y182D02*
X543Y182D01*
X2140Y182D02*
X2147Y182D01*
X0Y181D02*
X7Y181D01*
X223Y181D02*
X229Y181D01*
X238Y181D02*
X245Y181D01*
X280Y181D02*
X286Y181D01*
X344Y181D02*
X350Y181D01*
X367Y181D02*
X374Y181D01*
X394Y181D02*
X400Y181D01*
X430Y181D02*
X436Y181D01*
X467Y181D02*
X473Y181D01*
X494Y181D02*
X500Y181D01*
X524Y181D02*
X531Y181D01*
X536Y181D02*
X543Y181D01*
X2140Y181D02*
X2147Y181D01*
X0Y180D02*
X7Y180D01*
X223Y180D02*
X229Y180D01*
X237Y180D02*
X244Y180D01*
X280Y180D02*
X286Y180D01*
X344Y180D02*
X350Y180D01*
X367Y180D02*
X375Y180D01*
X393Y180D02*
X400Y180D01*
X430Y180D02*
X436Y180D01*
X467Y180D02*
X473Y180D01*
X493Y180D02*
X500Y180D01*
X524Y180D02*
X531Y180D01*
X535Y180D02*
X542Y180D01*
X2140Y180D02*
X2147Y180D01*
X0Y179D02*
X7Y179D01*
X223Y179D02*
X229Y179D01*
X237Y179D02*
X244Y179D01*
X280Y179D02*
X286Y179D01*
X344Y179D02*
X350Y179D01*
X367Y179D02*
X376Y179D01*
X392Y179D02*
X399Y179D01*
X430Y179D02*
X436Y179D01*
X467Y179D02*
X473Y179D01*
X492Y179D02*
X500Y179D01*
X525Y179D02*
X531Y179D01*
X535Y179D02*
X542Y179D01*
X2140Y179D02*
X2147Y179D01*
X0Y178D02*
X7Y178D01*
X223Y178D02*
X229Y178D01*
X236Y178D02*
X243Y178D01*
X280Y178D02*
X286Y178D01*
X318Y178D02*
X321Y178D01*
X344Y178D02*
X350Y178D01*
X367Y178D02*
X377Y178D01*
X390Y178D02*
X399Y178D01*
X430Y178D02*
X436Y178D01*
X467Y178D02*
X473Y178D01*
X490Y178D02*
X500Y178D01*
X525Y178D02*
X541Y178D01*
X2140Y178D02*
X2147Y178D01*
X0Y177D02*
X7Y177D01*
X223Y177D02*
X229Y177D01*
X236Y177D02*
X243Y177D01*
X280Y177D02*
X286Y177D01*
X317Y177D02*
X322Y177D01*
X343Y177D02*
X350Y177D01*
X367Y177D02*
X378Y177D01*
X389Y177D02*
X398Y177D01*
X430Y177D02*
X436Y177D01*
X467Y177D02*
X473Y177D01*
X488Y177D02*
X500Y177D01*
X526Y177D02*
X541Y177D01*
X2140Y177D02*
X2147Y177D01*
X0Y176D02*
X7Y176D01*
X223Y176D02*
X230Y176D01*
X234Y176D02*
X242Y176D01*
X280Y176D02*
X286Y176D01*
X317Y176D02*
X324Y176D01*
X342Y176D02*
X349Y176D01*
X367Y176D02*
X379Y176D01*
X388Y176D02*
X398Y176D01*
X430Y176D02*
X436Y176D01*
X467Y176D02*
X475Y176D01*
X487Y176D02*
X500Y176D01*
X526Y176D02*
X540Y176D01*
X2140Y176D02*
X2147Y176D01*
X0Y175D02*
X7Y175D01*
X218Y175D02*
X242Y175D01*
X272Y175D02*
X295Y175D01*
X317Y175D02*
X349Y175D01*
X367Y175D02*
X380Y175D01*
X387Y175D02*
X397Y175D01*
X421Y175D02*
X445Y175D01*
X467Y175D02*
X500Y175D01*
X527Y175D02*
X540Y175D01*
X2140Y175D02*
X2147Y175D01*
X0Y174D02*
X7Y174D01*
X217Y174D02*
X241Y174D01*
X271Y174D02*
X296Y174D01*
X317Y174D02*
X349Y174D01*
X367Y174D02*
X395Y174D01*
X421Y174D02*
X446Y174D01*
X468Y174D02*
X500Y174D01*
X527Y174D02*
X540Y174D01*
X2140Y174D02*
X2147Y174D01*
X0Y173D02*
X7Y173D01*
X217Y173D02*
X240Y173D01*
X270Y173D02*
X296Y173D01*
X317Y173D02*
X348Y173D01*
X367Y173D02*
X394Y173D01*
X420Y173D02*
X446Y173D01*
X469Y173D02*
X500Y173D01*
X528Y173D02*
X539Y173D01*
X2140Y173D02*
X2147Y173D01*
X0Y172D02*
X7Y172D01*
X217Y172D02*
X240Y172D01*
X270Y172D02*
X297Y172D01*
X318Y172D02*
X347Y172D01*
X367Y172D02*
X393Y172D01*
X420Y172D02*
X447Y172D01*
X469Y172D02*
X500Y172D01*
X529Y172D02*
X539Y172D01*
X2140Y172D02*
X2147Y172D01*
X0Y171D02*
X7Y171D01*
X217Y171D02*
X238Y171D01*
X270Y171D02*
X296Y171D01*
X320Y171D02*
X346Y171D01*
X367Y171D02*
X373Y171D01*
X375Y171D02*
X392Y171D01*
X420Y171D02*
X446Y171D01*
X470Y171D02*
X491Y171D01*
X494Y171D02*
X500Y171D01*
X532Y171D02*
X538Y171D01*
X2140Y171D02*
X2147Y171D01*
X0Y170D02*
X7Y170D01*
X217Y170D02*
X237Y170D01*
X271Y170D02*
X296Y170D01*
X322Y170D02*
X344Y170D01*
X367Y170D02*
X373Y170D01*
X376Y170D02*
X391Y170D01*
X421Y170D02*
X446Y170D01*
X472Y170D02*
X489Y170D01*
X495Y170D02*
X499Y170D01*
X531Y170D02*
X538Y170D01*
X2140Y170D02*
X2147Y170D01*
X0Y169D02*
X7Y169D01*
X219Y169D02*
X234Y169D01*
X272Y169D02*
X294Y169D01*
X324Y169D02*
X342Y169D01*
X367Y169D02*
X373Y169D01*
X377Y169D02*
X389Y169D01*
X422Y169D02*
X444Y169D01*
X474Y169D02*
X488Y169D01*
X496Y169D02*
X498Y169D01*
X531Y169D02*
X537Y169D01*
X2140Y169D02*
X2147Y169D01*
X0Y168D02*
X7Y168D01*
X367Y168D02*
X373Y168D01*
X379Y168D02*
X388Y168D01*
X530Y168D02*
X537Y168D01*
X2140Y168D02*
X2147Y168D01*
X0Y167D02*
X7Y167D01*
X367Y167D02*
X373Y167D01*
X530Y167D02*
X536Y167D01*
X2140Y167D02*
X2147Y167D01*
X0Y166D02*
X7Y166D01*
X367Y166D02*
X373Y166D01*
X529Y166D02*
X536Y166D01*
X2140Y166D02*
X2147Y166D01*
X0Y165D02*
X7Y165D01*
X367Y165D02*
X373Y165D01*
X529Y165D02*
X536Y165D01*
X2140Y165D02*
X2147Y165D01*
X0Y164D02*
X7Y164D01*
X367Y164D02*
X373Y164D01*
X528Y164D02*
X535Y164D01*
X2140Y164D02*
X2147Y164D01*
X0Y163D02*
X7Y163D01*
X367Y163D02*
X373Y163D01*
X528Y163D02*
X535Y163D01*
X2140Y163D02*
X2147Y163D01*
X0Y162D02*
X7Y162D01*
X367Y162D02*
X373Y162D01*
X528Y162D02*
X534Y162D01*
X2140Y162D02*
X2147Y162D01*
X0Y161D02*
X7Y161D01*
X367Y161D02*
X373Y161D01*
X527Y161D02*
X534Y161D01*
X2140Y161D02*
X2147Y161D01*
X0Y160D02*
X7Y160D01*
X367Y160D02*
X373Y160D01*
X518Y160D02*
X533Y160D01*
X2140Y160D02*
X2147Y160D01*
X0Y159D02*
X7Y159D01*
X367Y159D02*
X373Y159D01*
X517Y159D02*
X533Y159D01*
X2140Y159D02*
X2147Y159D01*
X0Y158D02*
X7Y158D01*
X367Y158D02*
X373Y158D01*
X517Y158D02*
X533Y158D01*
X2140Y158D02*
X2147Y158D01*
X0Y157D02*
X7Y157D01*
X367Y157D02*
X372Y157D01*
X517Y157D02*
X532Y157D01*
X2140Y157D02*
X2147Y157D01*
X0Y156D02*
X7Y156D01*
X367Y156D02*
X372Y156D01*
X517Y156D02*
X532Y156D01*
X2140Y156D02*
X2147Y156D01*
X0Y155D02*
X7Y155D01*
X368Y155D02*
X371Y155D01*
X518Y155D02*
X531Y155D01*
X2140Y155D02*
X2147Y155D01*
X0Y154D02*
X7Y154D01*
X520Y154D02*
X529Y154D01*
X2140Y154D02*
X2147Y154D01*
X0Y153D02*
X7Y153D01*
X2140Y153D02*
X2147Y153D01*
X0Y152D02*
X7Y152D01*
X2140Y152D02*
X2147Y152D01*
X0Y151D02*
X7Y151D01*
X2140Y151D02*
X2147Y151D01*
X0Y150D02*
X7Y150D01*
X2140Y150D02*
X2147Y150D01*
X0Y149D02*
X7Y149D01*
X2140Y149D02*
X2147Y149D01*
X0Y148D02*
X7Y148D01*
X2140Y148D02*
X2147Y148D01*
X0Y147D02*
X7Y147D01*
X2140Y147D02*
X2147Y147D01*
X0Y146D02*
X7Y146D01*
X2140Y146D02*
X2147Y146D01*
X0Y145D02*
X7Y145D01*
X2140Y145D02*
X2147Y145D01*
X0Y144D02*
X7Y144D01*
X2140Y144D02*
X2147Y144D01*
X0Y143D02*
X7Y143D01*
X2140Y143D02*
X2147Y143D01*
X0Y142D02*
X7Y142D01*
X2140Y142D02*
X2147Y142D01*
X0Y141D02*
X7Y141D01*
X2140Y141D02*
X2147Y141D01*
X0Y140D02*
X7Y140D01*
X2140Y140D02*
X2147Y140D01*
X0Y139D02*
X7Y139D01*
X2140Y139D02*
X2147Y139D01*
X0Y138D02*
X7Y138D01*
X2140Y138D02*
X2147Y138D01*
X0Y137D02*
X7Y137D01*
X2140Y137D02*
X2147Y137D01*
X0Y136D02*
X7Y136D01*
X2140Y136D02*
X2147Y136D01*
X0Y135D02*
X7Y135D01*
X2140Y135D02*
X2147Y135D01*
X0Y134D02*
X7Y134D01*
X2140Y134D02*
X2147Y134D01*
X0Y133D02*
X7Y133D01*
X2140Y133D02*
X2147Y133D01*
X0Y132D02*
X7Y132D01*
X2140Y132D02*
X2147Y132D01*
X0Y131D02*
X7Y131D01*
X2140Y131D02*
X2147Y131D01*
X0Y130D02*
X7Y130D01*
X2140Y130D02*
X2147Y130D01*
X0Y129D02*
X7Y129D01*
X2140Y129D02*
X2147Y129D01*
X0Y128D02*
X7Y128D01*
X2140Y128D02*
X2147Y128D01*
X0Y127D02*
X7Y127D01*
X2140Y127D02*
X2147Y127D01*
X0Y126D02*
X7Y126D01*
X2140Y126D02*
X2147Y126D01*
X0Y125D02*
X7Y125D01*
X2140Y125D02*
X2147Y125D01*
X0Y124D02*
X7Y124D01*
X2140Y124D02*
X2147Y124D01*
X0Y123D02*
X7Y123D01*
X2140Y123D02*
X2147Y123D01*
X0Y122D02*
X7Y122D01*
X2140Y122D02*
X2147Y122D01*
X0Y121D02*
X7Y121D01*
X2140Y121D02*
X2147Y121D01*
X0Y120D02*
X7Y120D01*
X2140Y120D02*
X2147Y120D01*
X0Y119D02*
X7Y119D01*
X2140Y119D02*
X2147Y119D01*
X0Y118D02*
X7Y118D01*
X2140Y118D02*
X2147Y118D01*
X0Y117D02*
X7Y117D01*
X2140Y117D02*
X2147Y117D01*
X0Y116D02*
X7Y116D01*
X2140Y116D02*
X2147Y116D01*
X0Y115D02*
X7Y115D01*
X2140Y115D02*
X2147Y115D01*
X0Y114D02*
X7Y114D01*
X2140Y114D02*
X2147Y114D01*
X0Y113D02*
X7Y113D01*
X2140Y113D02*
X2147Y113D01*
X0Y112D02*
X7Y112D01*
X2140Y112D02*
X2147Y112D01*
X0Y111D02*
X7Y111D01*
X2140Y111D02*
X2147Y111D01*
X0Y110D02*
X7Y110D01*
X2140Y110D02*
X2147Y110D01*
X0Y109D02*
X7Y109D01*
X2140Y109D02*
X2147Y109D01*
X0Y108D02*
X7Y108D01*
X2140Y108D02*
X2147Y108D01*
X0Y107D02*
X7Y107D01*
X2140Y107D02*
X2147Y107D01*
X0Y106D02*
X7Y106D01*
X2140Y106D02*
X2147Y106D01*
X0Y105D02*
X7Y105D01*
X2140Y105D02*
X2147Y105D01*
X0Y104D02*
X7Y104D01*
X2140Y104D02*
X2147Y104D01*
X0Y103D02*
X7Y103D01*
X2140Y103D02*
X2147Y103D01*
X0Y102D02*
X7Y102D01*
X2140Y102D02*
X2147Y102D01*
X0Y101D02*
X7Y101D01*
X2140Y101D02*
X2147Y101D01*
X0Y100D02*
X7Y100D01*
X2140Y100D02*
X2147Y100D01*
X0Y99D02*
X7Y99D01*
X2140Y99D02*
X2147Y99D01*
X0Y98D02*
X7Y98D01*
X2140Y98D02*
X2147Y98D01*
X0Y97D02*
X7Y97D01*
X2140Y97D02*
X2147Y97D01*
X0Y96D02*
X7Y96D01*
X2140Y96D02*
X2147Y96D01*
X0Y95D02*
X7Y95D01*
X2140Y95D02*
X2147Y95D01*
X0Y94D02*
X7Y94D01*
X2140Y94D02*
X2147Y94D01*
X0Y93D02*
X7Y93D01*
X2140Y93D02*
X2147Y93D01*
X0Y92D02*
X7Y92D01*
X2140Y92D02*
X2147Y92D01*
X0Y91D02*
X7Y91D01*
X2140Y91D02*
X2147Y91D01*
X0Y90D02*
X7Y90D01*
X2140Y90D02*
X2147Y90D01*
X0Y89D02*
X7Y89D01*
X2140Y89D02*
X2147Y89D01*
X0Y88D02*
X7Y88D01*
X2140Y88D02*
X2147Y88D01*
X0Y87D02*
X7Y87D01*
X2140Y87D02*
X2147Y87D01*
X0Y86D02*
X7Y86D01*
X2140Y86D02*
X2147Y86D01*
X0Y85D02*
X7Y85D01*
X2140Y85D02*
X2147Y85D01*
X0Y84D02*
X7Y84D01*
X2140Y84D02*
X2147Y84D01*
X0Y83D02*
X7Y83D01*
X2140Y83D02*
X2147Y83D01*
X0Y82D02*
X7Y82D01*
X2140Y82D02*
X2147Y82D01*
X0Y81D02*
X7Y81D01*
X2140Y81D02*
X2147Y81D01*
X0Y80D02*
X7Y80D01*
X2140Y80D02*
X2147Y80D01*
X0Y79D02*
X7Y79D01*
X2140Y79D02*
X2147Y79D01*
X0Y78D02*
X7Y78D01*
X2140Y78D02*
X2147Y78D01*
X0Y77D02*
X7Y77D01*
X2140Y77D02*
X2147Y77D01*
X0Y76D02*
X7Y76D01*
X2140Y76D02*
X2147Y76D01*
X0Y75D02*
X7Y75D01*
X2140Y75D02*
X2147Y75D01*
X0Y74D02*
X7Y74D01*
X2140Y74D02*
X2147Y74D01*
X0Y73D02*
X7Y73D01*
X2140Y73D02*
X2147Y73D01*
X0Y72D02*
X7Y72D01*
X2140Y72D02*
X2147Y72D01*
X0Y71D02*
X7Y71D01*
X2140Y71D02*
X2147Y71D01*
X0Y70D02*
X7Y70D01*
X2140Y70D02*
X2147Y70D01*
X0Y69D02*
X7Y69D01*
X2140Y69D02*
X2147Y69D01*
X0Y68D02*
X7Y68D01*
X2140Y68D02*
X2147Y68D01*
X0Y67D02*
X7Y67D01*
X2140Y67D02*
X2147Y67D01*
X0Y66D02*
X7Y66D01*
X2140Y66D02*
X2147Y66D01*
X0Y65D02*
X7Y65D01*
X2140Y65D02*
X2147Y65D01*
X0Y64D02*
X7Y64D01*
X2140Y64D02*
X2147Y64D01*
X0Y63D02*
X7Y63D01*
X2140Y63D02*
X2147Y63D01*
X0Y62D02*
X7Y62D01*
X2140Y62D02*
X2147Y62D01*
X0Y61D02*
X7Y61D01*
X2140Y61D02*
X2147Y61D01*
X0Y60D02*
X7Y60D01*
X2140Y60D02*
X2147Y60D01*
X0Y59D02*
X7Y59D01*
X2140Y59D02*
X2147Y59D01*
X0Y58D02*
X7Y58D01*
X2140Y58D02*
X2147Y58D01*
X0Y57D02*
X7Y57D01*
X2140Y57D02*
X2147Y57D01*
X0Y56D02*
X7Y56D01*
X2140Y56D02*
X2147Y56D01*
X0Y55D02*
X7Y55D01*
X2140Y55D02*
X2147Y55D01*
X0Y54D02*
X7Y54D01*
X2140Y54D02*
X2147Y54D01*
X0Y53D02*
X7Y53D01*
X2140Y53D02*
X2147Y53D01*
X0Y52D02*
X7Y52D01*
X2140Y52D02*
X2147Y52D01*
X0Y51D02*
X7Y51D01*
X2140Y51D02*
X2147Y51D01*
X0Y50D02*
X7Y50D01*
X2140Y50D02*
X2147Y50D01*
X0Y49D02*
X7Y49D01*
X2140Y49D02*
X2147Y49D01*
X0Y48D02*
X7Y48D01*
X2140Y48D02*
X2147Y48D01*
X0Y47D02*
X7Y47D01*
X2140Y47D02*
X2147Y47D01*
X0Y46D02*
X7Y46D01*
X2140Y46D02*
X2147Y46D01*
X0Y45D02*
X7Y45D01*
X2140Y45D02*
X2147Y45D01*
X0Y44D02*
X7Y44D01*
X2140Y44D02*
X2147Y44D01*
X0Y43D02*
X7Y43D01*
X2140Y43D02*
X2147Y43D01*
X0Y42D02*
X7Y42D01*
X2140Y42D02*
X2147Y42D01*
X0Y41D02*
X7Y41D01*
X2140Y41D02*
X2147Y41D01*
X0Y40D02*
X7Y40D01*
X2140Y40D02*
X2147Y40D01*
X0Y39D02*
X7Y39D01*
X2140Y39D02*
X2147Y39D01*
X0Y38D02*
X7Y38D01*
X2140Y38D02*
X2147Y38D01*
X0Y37D02*
X7Y37D01*
X2140Y37D02*
X2147Y37D01*
X0Y36D02*
X7Y36D01*
X2140Y36D02*
X2147Y36D01*
X0Y35D02*
X7Y35D01*
X2140Y35D02*
X2147Y35D01*
X0Y34D02*
X7Y34D01*
X2140Y34D02*
X2147Y34D01*
X0Y33D02*
X7Y33D01*
X2140Y33D02*
X2147Y33D01*
X0Y32D02*
X7Y32D01*
X2140Y32D02*
X2147Y32D01*
X0Y31D02*
X7Y31D01*
X2140Y31D02*
X2147Y31D01*
X0Y30D02*
X7Y30D01*
X2140Y30D02*
X2147Y30D01*
X0Y29D02*
X7Y29D01*
X2140Y29D02*
X2147Y29D01*
X0Y28D02*
X7Y28D01*
X2140Y28D02*
X2147Y28D01*
X0Y27D02*
X7Y27D01*
X2140Y27D02*
X2147Y27D01*
X0Y26D02*
X7Y26D01*
X2140Y26D02*
X2147Y26D01*
X0Y25D02*
X7Y25D01*
X2140Y25D02*
X2147Y25D01*
X0Y24D02*
X7Y24D01*
X2140Y24D02*
X2147Y24D01*
X0Y23D02*
X7Y23D01*
X2140Y23D02*
X2147Y23D01*
X0Y22D02*
X7Y22D01*
X2140Y22D02*
X2147Y22D01*
X0Y21D02*
X7Y21D01*
X2140Y21D02*
X2147Y21D01*
X0Y20D02*
X7Y20D01*
X2140Y20D02*
X2147Y20D01*
X0Y19D02*
X7Y19D01*
X2140Y19D02*
X2147Y19D01*
X0Y18D02*
X7Y18D01*
X2140Y18D02*
X2147Y18D01*
X0Y17D02*
X7Y17D01*
X2140Y17D02*
X2147Y17D01*
X0Y16D02*
X7Y16D01*
X2140Y16D02*
X2147Y16D01*
X0Y15D02*
X7Y15D01*
X2140Y15D02*
X2147Y15D01*
X0Y14D02*
X7Y14D01*
X2140Y14D02*
X2147Y14D01*
X0Y13D02*
X7Y13D01*
X2140Y13D02*
X2147Y13D01*
X0Y12D02*
X7Y12D01*
X2140Y12D02*
X2147Y12D01*
X0Y11D02*
X7Y11D01*
X2140Y11D02*
X2147Y11D01*
X0Y10D02*
X7Y10D01*
X2140Y10D02*
X2147Y10D01*
X0Y9D02*
X2147Y9D01*
X0Y8D02*
X2147Y8D01*
X0Y7D02*
X2147Y7D01*
X0Y6D02*
X2147Y6D01*
X0Y5D02*
X2147Y5D01*
X0Y4D02*
X2147Y4D01*
X0Y3D02*
X2147Y3D01*
X0Y2D02*
X2147Y2D01*
D02*
G04 End of Silk1*
M02*