G04 MADE WITH FRITZING*
G04 WWW.FRITZING.ORG*
G04 DOUBLE SIDED*
G04 HOLES PLATED*
G04 CONTOUR ON CENTER OF CONTOUR VECTOR*
%ASAXBY*%
%FSLAX23Y23*%
%MOIN*%
%OFA0B0*%
%SFA1.0B1.0*%
%ADD10C,0.075361*%
%ADD11C,0.094488*%
%ADD12C,0.078000*%
%ADD13R,0.078000X0.078000*%
%ADD14C,0.024000*%
%LNCOPPER0*%
G90*
G70*
G54D10*
X144Y909D03*
X244Y909D03*
X344Y909D03*
X444Y909D03*
X544Y909D03*
X644Y909D03*
X744Y909D03*
X844Y909D03*
X944Y909D03*
X1044Y909D03*
X1144Y909D03*
X1244Y909D03*
X1344Y909D03*
X1444Y909D03*
X1544Y909D03*
X1644Y909D03*
X1744Y909D03*
X1844Y909D03*
X1944Y909D03*
X2044Y909D03*
X2044Y1009D03*
X1944Y1009D03*
X1844Y1009D03*
X1744Y1009D03*
X1644Y1009D03*
X1544Y1009D03*
X1444Y1009D03*
X1344Y1009D03*
X1244Y1009D03*
X1144Y1009D03*
X1044Y1009D03*
X944Y1009D03*
X844Y1009D03*
X744Y1009D03*
X644Y1009D03*
X544Y1009D03*
X444Y1009D03*
X344Y1009D03*
X244Y1009D03*
X144Y1009D03*
G54D11*
X344Y509D03*
X244Y609D03*
X144Y709D03*
X344Y309D03*
G54D12*
X644Y709D03*
X644Y609D03*
X644Y509D03*
X644Y409D03*
X644Y309D03*
X644Y209D03*
G54D13*
X644Y709D03*
G54D14*
X614Y709D02*
X171Y709D01*
D02*
X645Y610D02*
X271Y609D01*
D02*
X674Y614D02*
X645Y610D01*
D02*
X645Y508D02*
X371Y509D01*
D02*
X665Y488D02*
X645Y508D01*
D02*
X645Y309D02*
X371Y309D01*
D02*
X670Y295D02*
X645Y309D01*
G04 End of Copper0*
M02*