; NON-PLATED HOLES START AT T1
; THROUGH (PLATED) HOLES START AT T100
M48
INCH
T100C0.038000
T101C0.040639
T102C0.031496
%
T100
X007898Y001420
X006898Y001420
X004898Y001420
X005898Y001420
X008898Y001420
T101
X003898Y009420
X010898Y009420
X007898Y008420
X004898Y008420
X002898Y009420
X009898Y009420
X001898Y008420
X016898Y009420
X014898Y008420
X007898Y009420
X008898Y009420
X005898Y008420
X013898Y008420
X009898Y008420
X012898Y008420
X006898Y009420
X012898Y009420
X015899Y009420
X020899Y009420
X011898Y009420
X011898Y008420
X018898Y008420
X019898Y009420
X001898Y009420
X006898Y008420
X003898Y008420
X019898Y008420
X002898Y008420
X017898Y009420
X015899Y008420
X020899Y008420
X016898Y008420
X010898Y008420
X013898Y009420
X005898Y009420
X017898Y008420
X008898Y008420
X004898Y009420
X014898Y009420
X018898Y009420
T102
X008898Y004420
X005898Y003420
X007898Y005420
X006898Y006420
T00
M30
