G04 MADE WITH FRITZING*
G04 WWW.FRITZING.ORG*
G04 DOUBLE SIDED*
G04 HOLES PLATED*
G04 CONTOUR ON CENTER OF CONTOUR VECTOR*
%ASAXBY*%
%FSLAX23Y23*%
%MOIN*%
%OFA0B0*%
%SFA1.0B1.0*%
%ADD10C,0.094488*%
%ADD11C,0.078000*%
%ADD12C,0.075361*%
%ADD13R,0.078000X0.078000*%
%ADD14C,0.024000*%
%ADD15R,0.001000X0.001000*%
%LNCOPPER1*%
G90*
G70*
G54D10*
X890Y442D03*
X790Y542D03*
G54D11*
X890Y142D03*
X790Y142D03*
X690Y142D03*
X590Y142D03*
X490Y142D03*
G54D10*
X690Y642D03*
X590Y342D03*
G54D12*
X190Y842D03*
X290Y842D03*
X390Y842D03*
X490Y842D03*
X590Y842D03*
X690Y842D03*
X790Y842D03*
X890Y842D03*
X990Y842D03*
X1090Y842D03*
X1190Y842D03*
X1290Y842D03*
X1390Y842D03*
X1490Y842D03*
X1590Y842D03*
X1690Y842D03*
X1790Y842D03*
X1890Y842D03*
X1990Y842D03*
X2090Y842D03*
X2090Y942D03*
X1990Y942D03*
X1890Y942D03*
X1790Y942D03*
X1690Y942D03*
X1590Y942D03*
X1490Y942D03*
X1390Y942D03*
X1290Y942D03*
X1190Y942D03*
X1090Y942D03*
X990Y942D03*
X890Y942D03*
X790Y942D03*
X690Y942D03*
X590Y942D03*
X490Y942D03*
X390Y942D03*
X290Y942D03*
X190Y942D03*
G54D13*
X890Y142D03*
G54D14*
X590Y315D02*
X590Y172D01*
D02*
X690Y615D02*
X690Y172D01*
D02*
X790Y515D02*
X790Y172D01*
D02*
X890Y415D02*
X890Y172D01*
G54D15*
X1368Y189D02*
X1373Y189D01*
X1622Y189D02*
X1626Y189D01*
X1766Y189D02*
X1770Y189D01*
X1949Y189D02*
X1954Y189D01*
X1367Y188D02*
X1374Y188D01*
X1621Y188D02*
X1627Y188D01*
X1764Y188D02*
X1771Y188D01*
X1948Y188D02*
X1955Y188D01*
X1367Y187D02*
X1375Y187D01*
X1620Y187D02*
X1628Y187D01*
X1764Y187D02*
X1772Y187D01*
X1948Y187D02*
X1956Y187D01*
X1366Y186D02*
X1375Y186D01*
X1620Y186D02*
X1628Y186D01*
X1764Y186D02*
X1772Y186D01*
X1947Y186D02*
X1956Y186D01*
X1366Y185D02*
X1375Y185D01*
X1619Y185D02*
X1628Y185D01*
X1763Y185D02*
X1772Y185D01*
X1947Y185D02*
X1956Y185D01*
X1366Y184D02*
X1375Y184D01*
X1619Y184D02*
X1628Y184D01*
X1763Y184D02*
X1772Y184D01*
X1947Y184D02*
X1956Y184D01*
X1366Y183D02*
X1375Y183D01*
X1619Y183D02*
X1628Y183D01*
X1763Y183D02*
X1772Y183D01*
X1947Y183D02*
X1956Y183D01*
X1366Y182D02*
X1375Y182D01*
X1619Y182D02*
X1628Y182D01*
X1763Y182D02*
X1772Y182D01*
X1947Y182D02*
X1956Y182D01*
X1366Y181D02*
X1375Y181D01*
X1619Y181D02*
X1628Y181D01*
X1763Y181D02*
X1772Y181D01*
X1947Y181D02*
X1956Y181D01*
X1366Y180D02*
X1375Y180D01*
X1619Y180D02*
X1628Y180D01*
X1763Y180D02*
X1772Y180D01*
X1947Y180D02*
X1956Y180D01*
X1366Y179D02*
X1375Y179D01*
X1619Y179D02*
X1628Y179D01*
X1763Y179D02*
X1772Y179D01*
X1947Y179D02*
X1956Y179D01*
X1366Y178D02*
X1375Y178D01*
X1619Y178D02*
X1628Y178D01*
X1763Y178D02*
X1772Y178D01*
X1947Y178D02*
X1956Y178D01*
X1366Y177D02*
X1375Y177D01*
X1619Y177D02*
X1628Y177D01*
X1763Y177D02*
X1772Y177D01*
X1947Y177D02*
X1956Y177D01*
X1366Y176D02*
X1375Y176D01*
X1619Y176D02*
X1628Y176D01*
X1763Y176D02*
X1772Y176D01*
X1947Y176D02*
X1956Y176D01*
X1366Y175D02*
X1375Y175D01*
X1619Y175D02*
X1628Y175D01*
X1763Y175D02*
X1772Y175D01*
X1947Y175D02*
X1956Y175D01*
X1366Y174D02*
X1375Y174D01*
X1619Y174D02*
X1628Y174D01*
X1763Y174D02*
X1772Y174D01*
X1947Y174D02*
X1956Y174D01*
X1366Y173D02*
X1375Y173D01*
X1619Y173D02*
X1628Y173D01*
X1763Y173D02*
X1772Y173D01*
X1947Y173D02*
X1956Y173D01*
X1366Y172D02*
X1375Y172D01*
X1619Y172D02*
X1628Y172D01*
X1763Y172D02*
X1772Y172D01*
X1947Y172D02*
X1956Y172D01*
X1366Y171D02*
X1375Y171D01*
X1619Y171D02*
X1628Y171D01*
X1763Y171D02*
X1772Y171D01*
X1947Y171D02*
X1956Y171D01*
X1366Y170D02*
X1375Y170D01*
X1619Y170D02*
X1628Y170D01*
X1763Y170D02*
X1772Y170D01*
X1947Y170D02*
X1956Y170D01*
X1366Y169D02*
X1375Y169D01*
X1619Y169D02*
X1628Y169D01*
X1763Y169D02*
X1772Y169D01*
X1947Y169D02*
X1956Y169D01*
X1366Y168D02*
X1375Y168D01*
X1416Y168D02*
X1440Y168D01*
X1495Y168D02*
X1522Y168D01*
X1561Y168D02*
X1582Y168D01*
X1619Y168D02*
X1628Y168D01*
X1639Y168D02*
X1654Y168D01*
X1763Y168D02*
X1772Y168D01*
X1848Y168D02*
X1872Y168D01*
X1921Y168D02*
X1937Y168D01*
X1947Y168D02*
X1956Y168D01*
X1992Y168D02*
X2016Y168D01*
X2054Y168D02*
X2058Y168D01*
X2075Y168D02*
X2088Y168D01*
X1366Y167D02*
X1375Y167D01*
X1415Y167D02*
X1443Y167D01*
X1492Y167D02*
X1523Y167D01*
X1559Y167D02*
X1584Y167D01*
X1619Y167D02*
X1628Y167D01*
X1636Y167D02*
X1656Y167D01*
X1763Y167D02*
X1772Y167D01*
X1847Y167D02*
X1875Y167D01*
X1919Y167D02*
X1939Y167D01*
X1947Y167D02*
X1956Y167D01*
X1991Y167D02*
X2019Y167D01*
X2053Y167D02*
X2059Y167D01*
X2072Y167D02*
X2091Y167D01*
X1366Y166D02*
X1375Y166D01*
X1414Y166D02*
X1444Y166D01*
X1490Y166D02*
X1523Y166D01*
X1557Y166D02*
X1586Y166D01*
X1619Y166D02*
X1628Y166D01*
X1634Y166D02*
X1658Y166D01*
X1763Y166D02*
X1772Y166D01*
X1846Y166D02*
X1876Y166D01*
X1917Y166D02*
X1941Y166D01*
X1947Y166D02*
X1956Y166D01*
X1990Y166D02*
X2020Y166D01*
X2052Y166D02*
X2060Y166D01*
X2070Y166D02*
X2092Y166D01*
X1366Y165D02*
X1375Y165D01*
X1414Y165D02*
X1446Y165D01*
X1489Y165D02*
X1524Y165D01*
X1556Y165D02*
X1587Y165D01*
X1619Y165D02*
X1628Y165D01*
X1633Y165D02*
X1659Y165D01*
X1763Y165D02*
X1772Y165D01*
X1845Y165D02*
X1878Y165D01*
X1916Y165D02*
X1942Y165D01*
X1947Y165D02*
X1956Y165D01*
X1989Y165D02*
X2022Y165D01*
X2052Y165D02*
X2060Y165D01*
X2069Y165D02*
X2094Y165D01*
X1366Y164D02*
X1375Y164D01*
X1413Y164D02*
X1447Y164D01*
X1487Y164D02*
X1524Y164D01*
X1555Y164D02*
X1589Y164D01*
X1619Y164D02*
X1628Y164D01*
X1631Y164D02*
X1660Y164D01*
X1763Y164D02*
X1772Y164D01*
X1845Y164D02*
X1879Y164D01*
X1915Y164D02*
X1943Y164D01*
X1947Y164D02*
X1956Y164D01*
X1989Y164D02*
X2023Y164D01*
X2051Y164D02*
X2060Y164D01*
X2067Y164D02*
X2095Y164D01*
X1366Y163D02*
X1375Y163D01*
X1413Y163D02*
X1448Y163D01*
X1486Y163D02*
X1524Y163D01*
X1554Y163D02*
X1590Y163D01*
X1619Y163D02*
X1628Y163D01*
X1630Y163D02*
X1662Y163D01*
X1763Y163D02*
X1772Y163D01*
X1845Y163D02*
X1879Y163D01*
X1914Y163D02*
X1945Y163D01*
X1947Y163D02*
X1956Y163D01*
X1989Y163D02*
X2023Y163D01*
X2051Y163D02*
X2060Y163D01*
X2066Y163D02*
X2095Y163D01*
X1366Y162D02*
X1375Y162D01*
X1414Y162D02*
X1448Y162D01*
X1485Y162D02*
X1524Y162D01*
X1553Y162D02*
X1591Y162D01*
X1619Y162D02*
X1663Y162D01*
X1763Y162D02*
X1772Y162D01*
X1846Y162D02*
X1880Y162D01*
X1913Y162D02*
X1956Y162D01*
X1989Y162D02*
X2024Y162D01*
X2051Y162D02*
X2060Y162D01*
X2064Y162D02*
X2096Y162D01*
X1366Y161D02*
X1375Y161D01*
X1414Y161D02*
X1449Y161D01*
X1484Y161D02*
X1523Y161D01*
X1552Y161D02*
X1592Y161D01*
X1619Y161D02*
X1664Y161D01*
X1763Y161D02*
X1772Y161D01*
X1846Y161D02*
X1881Y161D01*
X1912Y161D02*
X1956Y161D01*
X1990Y161D02*
X2025Y161D01*
X2051Y161D02*
X2060Y161D01*
X2063Y161D02*
X2097Y161D01*
X1366Y160D02*
X1375Y160D01*
X1415Y160D02*
X1449Y160D01*
X1483Y160D02*
X1522Y160D01*
X1551Y160D02*
X1593Y160D01*
X1619Y160D02*
X1665Y160D01*
X1763Y160D02*
X1772Y160D01*
X1847Y160D02*
X1881Y160D01*
X1911Y160D02*
X1956Y160D01*
X1991Y160D02*
X2025Y160D01*
X2051Y160D02*
X2097Y160D01*
X1366Y159D02*
X1375Y159D01*
X1416Y159D02*
X1450Y159D01*
X1482Y159D02*
X1521Y159D01*
X1550Y159D02*
X1594Y159D01*
X1619Y159D02*
X1666Y159D01*
X1763Y159D02*
X1772Y159D01*
X1848Y159D02*
X1882Y159D01*
X1910Y159D02*
X1956Y159D01*
X1992Y159D02*
X2026Y159D01*
X2051Y159D02*
X2098Y159D01*
X1366Y158D02*
X1375Y158D01*
X1439Y158D02*
X1450Y158D01*
X1481Y158D02*
X1496Y158D01*
X1549Y158D02*
X1562Y158D01*
X1581Y158D02*
X1594Y158D01*
X1619Y158D02*
X1640Y158D01*
X1653Y158D02*
X1666Y158D01*
X1763Y158D02*
X1772Y158D01*
X1871Y158D02*
X1882Y158D01*
X1909Y158D02*
X1922Y158D01*
X1936Y158D02*
X1956Y158D01*
X2015Y158D02*
X2026Y158D01*
X2051Y158D02*
X2076Y158D01*
X2087Y158D02*
X2098Y158D01*
X1366Y157D02*
X1375Y157D01*
X1440Y157D02*
X1451Y157D01*
X1480Y157D02*
X1494Y157D01*
X1549Y157D02*
X1561Y157D01*
X1583Y157D02*
X1595Y157D01*
X1619Y157D02*
X1638Y157D01*
X1654Y157D02*
X1667Y157D01*
X1763Y157D02*
X1772Y157D01*
X1872Y157D02*
X1882Y157D01*
X1909Y157D02*
X1921Y157D01*
X1937Y157D02*
X1956Y157D01*
X2016Y157D02*
X2026Y157D01*
X2051Y157D02*
X2074Y157D01*
X2088Y157D02*
X2098Y157D01*
X1366Y156D02*
X1375Y156D01*
X1441Y156D02*
X1451Y156D01*
X1479Y156D02*
X1493Y156D01*
X1549Y156D02*
X1560Y156D01*
X1584Y156D02*
X1595Y156D01*
X1619Y156D02*
X1637Y156D01*
X1655Y156D02*
X1667Y156D01*
X1763Y156D02*
X1772Y156D01*
X1873Y156D02*
X1883Y156D01*
X1908Y156D02*
X1920Y156D01*
X1938Y156D02*
X1956Y156D01*
X2017Y156D02*
X2027Y156D01*
X2051Y156D02*
X2073Y156D01*
X2089Y156D02*
X2099Y156D01*
X1366Y155D02*
X1375Y155D01*
X1441Y155D02*
X1451Y155D01*
X1478Y155D02*
X1492Y155D01*
X1548Y155D02*
X1559Y155D01*
X1585Y155D02*
X1595Y155D01*
X1619Y155D02*
X1636Y155D01*
X1656Y155D02*
X1667Y155D01*
X1763Y155D02*
X1772Y155D01*
X1873Y155D02*
X1883Y155D01*
X1908Y155D02*
X1919Y155D01*
X1939Y155D02*
X1956Y155D01*
X2017Y155D02*
X2027Y155D01*
X2051Y155D02*
X2071Y155D01*
X2089Y155D02*
X2099Y155D01*
X1366Y154D02*
X1375Y154D01*
X1442Y154D02*
X1451Y154D01*
X1477Y154D02*
X1491Y154D01*
X1548Y154D02*
X1558Y154D01*
X1586Y154D02*
X1596Y154D01*
X1619Y154D02*
X1635Y154D01*
X1657Y154D02*
X1668Y154D01*
X1763Y154D02*
X1772Y154D01*
X1873Y154D02*
X1883Y154D01*
X1908Y154D02*
X1918Y154D01*
X1941Y154D02*
X1956Y154D01*
X2017Y154D02*
X2027Y154D01*
X2051Y154D02*
X2069Y154D01*
X2090Y154D02*
X2099Y154D01*
X1366Y153D02*
X1375Y153D01*
X1442Y153D02*
X1451Y153D01*
X1477Y153D02*
X1490Y153D01*
X1548Y153D02*
X1557Y153D01*
X1586Y153D02*
X1596Y153D01*
X1619Y153D02*
X1634Y153D01*
X1658Y153D02*
X1668Y153D01*
X1763Y153D02*
X1772Y153D01*
X1874Y153D02*
X1883Y153D01*
X1907Y153D02*
X1917Y153D01*
X1942Y153D02*
X1956Y153D01*
X2018Y153D02*
X2027Y153D01*
X2051Y153D02*
X2068Y153D01*
X2090Y153D02*
X2099Y153D01*
X1366Y152D02*
X1375Y152D01*
X1442Y152D02*
X1451Y152D01*
X1476Y152D02*
X1488Y152D01*
X1548Y152D02*
X1557Y152D01*
X1587Y152D02*
X1596Y152D01*
X1619Y152D02*
X1632Y152D01*
X1659Y152D02*
X1668Y152D01*
X1763Y152D02*
X1772Y152D01*
X1874Y152D02*
X1883Y152D01*
X1907Y152D02*
X1917Y152D01*
X1943Y152D02*
X1956Y152D01*
X2018Y152D02*
X2027Y152D01*
X2051Y152D02*
X2066Y152D01*
X2090Y152D02*
X2099Y152D01*
X1366Y151D02*
X1375Y151D01*
X1442Y151D02*
X1451Y151D01*
X1476Y151D02*
X1487Y151D01*
X1547Y151D02*
X1556Y151D01*
X1587Y151D02*
X1596Y151D01*
X1619Y151D02*
X1631Y151D01*
X1659Y151D02*
X1668Y151D01*
X1763Y151D02*
X1772Y151D01*
X1874Y151D02*
X1883Y151D01*
X1907Y151D02*
X1916Y151D01*
X1944Y151D02*
X1956Y151D01*
X2018Y151D02*
X2027Y151D01*
X2051Y151D02*
X2065Y151D01*
X2090Y151D02*
X2099Y151D01*
X1366Y150D02*
X1375Y150D01*
X1442Y150D02*
X1451Y150D01*
X1476Y150D02*
X1486Y150D01*
X1547Y150D02*
X1556Y150D01*
X1587Y150D02*
X1596Y150D01*
X1619Y150D02*
X1630Y150D01*
X1659Y150D02*
X1668Y150D01*
X1763Y150D02*
X1772Y150D01*
X1874Y150D02*
X1883Y150D01*
X1907Y150D02*
X1916Y150D01*
X1945Y150D02*
X1956Y150D01*
X2018Y150D02*
X2027Y150D01*
X2051Y150D02*
X2063Y150D01*
X2090Y150D02*
X2099Y150D01*
X1366Y149D02*
X1375Y149D01*
X1442Y149D02*
X1451Y149D01*
X1476Y149D02*
X1485Y149D01*
X1547Y149D02*
X1556Y149D01*
X1587Y149D02*
X1596Y149D01*
X1619Y149D02*
X1629Y149D01*
X1659Y149D02*
X1668Y149D01*
X1763Y149D02*
X1772Y149D01*
X1874Y149D02*
X1883Y149D01*
X1907Y149D02*
X1916Y149D01*
X1946Y149D02*
X1956Y149D01*
X2018Y149D02*
X2027Y149D01*
X2051Y149D02*
X2062Y149D01*
X2090Y149D02*
X2099Y149D01*
X1366Y148D02*
X1375Y148D01*
X1442Y148D02*
X1451Y148D01*
X1476Y148D02*
X1485Y148D01*
X1547Y148D02*
X1556Y148D01*
X1587Y148D02*
X1596Y148D01*
X1619Y148D02*
X1629Y148D01*
X1659Y148D02*
X1668Y148D01*
X1763Y148D02*
X1772Y148D01*
X1874Y148D02*
X1883Y148D01*
X1907Y148D02*
X1916Y148D01*
X1947Y148D02*
X1956Y148D01*
X2018Y148D02*
X2027Y148D01*
X2051Y148D02*
X2060Y148D01*
X2090Y148D02*
X2099Y148D01*
X1339Y147D02*
X1343Y147D01*
X1366Y147D02*
X1375Y147D01*
X1414Y147D02*
X1440Y147D01*
X1442Y147D02*
X1451Y147D01*
X1475Y147D02*
X1485Y147D01*
X1547Y147D02*
X1556Y147D01*
X1587Y147D02*
X1596Y147D01*
X1619Y147D02*
X1628Y147D01*
X1659Y147D02*
X1668Y147D01*
X1763Y147D02*
X1772Y147D01*
X1846Y147D02*
X1883Y147D01*
X1907Y147D02*
X1916Y147D01*
X1947Y147D02*
X1956Y147D01*
X1990Y147D02*
X2027Y147D01*
X2051Y147D02*
X2060Y147D01*
X2090Y147D02*
X2099Y147D01*
X1338Y146D02*
X1344Y146D01*
X1366Y146D02*
X1375Y146D01*
X1412Y146D02*
X1451Y146D01*
X1475Y146D02*
X1484Y146D01*
X1547Y146D02*
X1556Y146D01*
X1587Y146D02*
X1596Y146D01*
X1619Y146D02*
X1628Y146D01*
X1659Y146D02*
X1668Y146D01*
X1763Y146D02*
X1772Y146D01*
X1844Y146D02*
X1883Y146D01*
X1907Y146D02*
X1916Y146D01*
X1947Y146D02*
X1956Y146D01*
X1988Y146D02*
X2027Y146D01*
X2051Y146D02*
X2060Y146D01*
X2090Y146D02*
X2099Y146D01*
X1337Y145D02*
X1345Y145D01*
X1366Y145D02*
X1375Y145D01*
X1410Y145D02*
X1451Y145D01*
X1475Y145D02*
X1484Y145D01*
X1547Y145D02*
X1556Y145D01*
X1587Y145D02*
X1596Y145D01*
X1619Y145D02*
X1628Y145D01*
X1659Y145D02*
X1668Y145D01*
X1763Y145D02*
X1772Y145D01*
X1842Y145D02*
X1883Y145D01*
X1907Y145D02*
X1916Y145D01*
X1947Y145D02*
X1956Y145D01*
X1986Y145D02*
X2027Y145D01*
X2051Y145D02*
X2060Y145D01*
X2090Y145D02*
X2099Y145D01*
X1337Y144D02*
X1345Y144D01*
X1366Y144D02*
X1375Y144D01*
X1409Y144D02*
X1451Y144D01*
X1475Y144D02*
X1484Y144D01*
X1547Y144D02*
X1556Y144D01*
X1587Y144D02*
X1596Y144D01*
X1619Y144D02*
X1628Y144D01*
X1659Y144D02*
X1668Y144D01*
X1763Y144D02*
X1772Y144D01*
X1841Y144D02*
X1883Y144D01*
X1907Y144D02*
X1916Y144D01*
X1947Y144D02*
X1956Y144D01*
X1985Y144D02*
X2027Y144D01*
X2051Y144D02*
X2060Y144D01*
X2090Y144D02*
X2099Y144D01*
X1336Y143D02*
X1345Y143D01*
X1366Y143D02*
X1375Y143D01*
X1408Y143D02*
X1451Y143D01*
X1475Y143D02*
X1484Y143D01*
X1547Y143D02*
X1556Y143D01*
X1587Y143D02*
X1596Y143D01*
X1619Y143D02*
X1628Y143D01*
X1659Y143D02*
X1668Y143D01*
X1763Y143D02*
X1772Y143D01*
X1840Y143D02*
X1883Y143D01*
X1907Y143D02*
X1916Y143D01*
X1947Y143D02*
X1956Y143D01*
X1984Y143D02*
X2027Y143D01*
X2051Y143D02*
X2060Y143D01*
X2090Y143D02*
X2099Y143D01*
X1336Y142D02*
X1345Y142D01*
X1366Y142D02*
X1375Y142D01*
X1407Y142D02*
X1451Y142D01*
X1475Y142D02*
X1484Y142D01*
X1547Y142D02*
X1556Y142D01*
X1587Y142D02*
X1596Y142D01*
X1619Y142D02*
X1628Y142D01*
X1659Y142D02*
X1668Y142D01*
X1763Y142D02*
X1772Y142D01*
X1839Y142D02*
X1883Y142D01*
X1907Y142D02*
X1916Y142D01*
X1947Y142D02*
X1956Y142D01*
X1983Y142D02*
X2027Y142D01*
X2051Y142D02*
X2060Y142D01*
X2090Y142D02*
X2099Y142D01*
X1336Y141D02*
X1345Y141D01*
X1366Y141D02*
X1375Y141D01*
X1406Y141D02*
X1451Y141D01*
X1475Y141D02*
X1484Y141D01*
X1547Y141D02*
X1556Y141D01*
X1587Y141D02*
X1596Y141D01*
X1619Y141D02*
X1628Y141D01*
X1659Y141D02*
X1668Y141D01*
X1763Y141D02*
X1772Y141D01*
X1838Y141D02*
X1883Y141D01*
X1907Y141D02*
X1916Y141D01*
X1947Y141D02*
X1956Y141D01*
X1982Y141D02*
X2027Y141D01*
X2051Y141D02*
X2060Y141D01*
X2090Y141D02*
X2099Y141D01*
X1336Y140D02*
X1345Y140D01*
X1366Y140D02*
X1375Y140D01*
X1405Y140D02*
X1451Y140D01*
X1475Y140D02*
X1484Y140D01*
X1547Y140D02*
X1556Y140D01*
X1587Y140D02*
X1596Y140D01*
X1619Y140D02*
X1628Y140D01*
X1659Y140D02*
X1668Y140D01*
X1763Y140D02*
X1772Y140D01*
X1837Y140D02*
X1883Y140D01*
X1907Y140D02*
X1916Y140D01*
X1947Y140D02*
X1956Y140D01*
X1981Y140D02*
X2027Y140D01*
X2051Y140D02*
X2060Y140D01*
X2090Y140D02*
X2099Y140D01*
X1336Y139D02*
X1345Y139D01*
X1366Y139D02*
X1375Y139D01*
X1405Y139D02*
X1451Y139D01*
X1475Y139D02*
X1484Y139D01*
X1547Y139D02*
X1556Y139D01*
X1587Y139D02*
X1596Y139D01*
X1619Y139D02*
X1628Y139D01*
X1659Y139D02*
X1668Y139D01*
X1763Y139D02*
X1772Y139D01*
X1837Y139D02*
X1883Y139D01*
X1907Y139D02*
X1916Y139D01*
X1947Y139D02*
X1956Y139D01*
X1981Y139D02*
X2027Y139D01*
X2051Y139D02*
X2060Y139D01*
X2090Y139D02*
X2099Y139D01*
X1336Y138D02*
X1345Y138D01*
X1366Y138D02*
X1375Y138D01*
X1404Y138D02*
X1451Y138D01*
X1475Y138D02*
X1484Y138D01*
X1547Y138D02*
X1556Y138D01*
X1587Y138D02*
X1596Y138D01*
X1619Y138D02*
X1628Y138D01*
X1659Y138D02*
X1668Y138D01*
X1763Y138D02*
X1772Y138D01*
X1836Y138D02*
X1883Y138D01*
X1907Y138D02*
X1916Y138D01*
X1947Y138D02*
X1956Y138D01*
X1980Y138D02*
X2027Y138D01*
X2051Y138D02*
X2060Y138D01*
X2090Y138D02*
X2099Y138D01*
X1336Y137D02*
X1345Y137D01*
X1366Y137D02*
X1375Y137D01*
X1404Y137D02*
X1415Y137D01*
X1439Y137D02*
X1451Y137D01*
X1475Y137D02*
X1484Y137D01*
X1547Y137D02*
X1556Y137D01*
X1587Y137D02*
X1596Y137D01*
X1619Y137D02*
X1628Y137D01*
X1659Y137D02*
X1668Y137D01*
X1763Y137D02*
X1772Y137D01*
X1836Y137D02*
X1847Y137D01*
X1871Y137D02*
X1883Y137D01*
X1907Y137D02*
X1916Y137D01*
X1947Y137D02*
X1956Y137D01*
X1980Y137D02*
X1991Y137D01*
X2015Y137D02*
X2027Y137D01*
X2051Y137D02*
X2060Y137D01*
X2090Y137D02*
X2099Y137D01*
X1336Y136D02*
X1345Y136D01*
X1366Y136D02*
X1375Y136D01*
X1404Y136D02*
X1414Y136D01*
X1441Y136D02*
X1452Y136D01*
X1475Y136D02*
X1484Y136D01*
X1547Y136D02*
X1556Y136D01*
X1587Y136D02*
X1596Y136D01*
X1619Y136D02*
X1628Y136D01*
X1659Y136D02*
X1668Y136D01*
X1763Y136D02*
X1772Y136D01*
X1836Y136D02*
X1846Y136D01*
X1873Y136D02*
X1883Y136D01*
X1907Y136D02*
X1916Y136D01*
X1947Y136D02*
X1956Y136D01*
X1980Y136D02*
X1990Y136D01*
X2017Y136D02*
X2027Y136D01*
X2051Y136D02*
X2060Y136D01*
X2090Y136D02*
X2099Y136D01*
X1336Y135D02*
X1345Y135D01*
X1366Y135D02*
X1375Y135D01*
X1404Y135D02*
X1413Y135D01*
X1442Y135D02*
X1452Y135D01*
X1475Y135D02*
X1484Y135D01*
X1547Y135D02*
X1556Y135D01*
X1587Y135D02*
X1596Y135D01*
X1619Y135D02*
X1628Y135D01*
X1659Y135D02*
X1668Y135D01*
X1763Y135D02*
X1772Y135D01*
X1836Y135D02*
X1845Y135D01*
X1874Y135D02*
X1883Y135D01*
X1907Y135D02*
X1916Y135D01*
X1947Y135D02*
X1956Y135D01*
X1979Y135D02*
X1989Y135D01*
X2018Y135D02*
X2027Y135D01*
X2051Y135D02*
X2060Y135D01*
X2090Y135D02*
X2099Y135D01*
X1336Y134D02*
X1345Y134D01*
X1366Y134D02*
X1375Y134D01*
X1404Y134D02*
X1413Y134D01*
X1442Y134D02*
X1452Y134D01*
X1475Y134D02*
X1485Y134D01*
X1547Y134D02*
X1556Y134D01*
X1587Y134D02*
X1596Y134D01*
X1619Y134D02*
X1628Y134D01*
X1659Y134D02*
X1668Y134D01*
X1763Y134D02*
X1772Y134D01*
X1835Y134D02*
X1845Y134D01*
X1874Y134D02*
X1883Y134D01*
X1907Y134D02*
X1916Y134D01*
X1947Y134D02*
X1956Y134D01*
X1979Y134D02*
X1989Y134D01*
X2018Y134D02*
X2027Y134D01*
X2051Y134D02*
X2060Y134D01*
X2090Y134D02*
X2099Y134D01*
X1336Y133D02*
X1345Y133D01*
X1366Y133D02*
X1375Y133D01*
X1403Y133D02*
X1413Y133D01*
X1442Y133D02*
X1452Y133D01*
X1475Y133D02*
X1485Y133D01*
X1547Y133D02*
X1556Y133D01*
X1587Y133D02*
X1596Y133D01*
X1619Y133D02*
X1629Y133D01*
X1659Y133D02*
X1668Y133D01*
X1763Y133D02*
X1772Y133D01*
X1835Y133D02*
X1844Y133D01*
X1874Y133D02*
X1884Y133D01*
X1907Y133D02*
X1916Y133D01*
X1947Y133D02*
X1956Y133D01*
X1979Y133D02*
X1988Y133D01*
X2018Y133D02*
X2028Y133D01*
X2051Y133D02*
X2060Y133D01*
X2090Y133D02*
X2099Y133D01*
X1336Y132D02*
X1345Y132D01*
X1366Y132D02*
X1375Y132D01*
X1403Y132D02*
X1412Y132D01*
X1442Y132D02*
X1452Y132D01*
X1476Y132D02*
X1485Y132D01*
X1547Y132D02*
X1556Y132D01*
X1587Y132D02*
X1596Y132D01*
X1619Y132D02*
X1629Y132D01*
X1659Y132D02*
X1668Y132D01*
X1763Y132D02*
X1772Y132D01*
X1835Y132D02*
X1844Y132D01*
X1874Y132D02*
X1884Y132D01*
X1907Y132D02*
X1916Y132D01*
X1946Y132D02*
X1956Y132D01*
X1979Y132D02*
X1988Y132D01*
X2018Y132D02*
X2028Y132D01*
X2051Y132D02*
X2060Y132D01*
X2090Y132D02*
X2099Y132D01*
X1336Y131D02*
X1345Y131D01*
X1366Y131D02*
X1375Y131D01*
X1403Y131D02*
X1412Y131D01*
X1442Y131D02*
X1452Y131D01*
X1476Y131D02*
X1486Y131D01*
X1547Y131D02*
X1556Y131D01*
X1587Y131D02*
X1596Y131D01*
X1619Y131D02*
X1630Y131D01*
X1659Y131D02*
X1668Y131D01*
X1763Y131D02*
X1772Y131D01*
X1835Y131D02*
X1844Y131D01*
X1874Y131D02*
X1884Y131D01*
X1907Y131D02*
X1916Y131D01*
X1945Y131D02*
X1956Y131D01*
X1979Y131D02*
X1988Y131D01*
X2018Y131D02*
X2028Y131D01*
X2051Y131D02*
X2060Y131D01*
X2090Y131D02*
X2100Y131D01*
X1336Y130D02*
X1345Y130D01*
X1366Y130D02*
X1375Y130D01*
X1403Y130D02*
X1412Y130D01*
X1442Y130D02*
X1452Y130D01*
X1476Y130D02*
X1487Y130D01*
X1547Y130D02*
X1556Y130D01*
X1587Y130D02*
X1596Y130D01*
X1619Y130D02*
X1631Y130D01*
X1659Y130D02*
X1668Y130D01*
X1763Y130D02*
X1772Y130D01*
X1835Y130D02*
X1844Y130D01*
X1874Y130D02*
X1884Y130D01*
X1907Y130D02*
X1916Y130D01*
X1944Y130D02*
X1956Y130D01*
X1979Y130D02*
X1988Y130D01*
X2018Y130D02*
X2028Y130D01*
X2051Y130D02*
X2060Y130D01*
X2090Y130D02*
X2100Y130D01*
X1336Y129D02*
X1345Y129D01*
X1366Y129D02*
X1375Y129D01*
X1403Y129D02*
X1412Y129D01*
X1442Y129D02*
X1452Y129D01*
X1476Y129D02*
X1488Y129D01*
X1547Y129D02*
X1557Y129D01*
X1587Y129D02*
X1596Y129D01*
X1619Y129D02*
X1632Y129D01*
X1659Y129D02*
X1668Y129D01*
X1763Y129D02*
X1772Y129D01*
X1835Y129D02*
X1844Y129D01*
X1874Y129D02*
X1884Y129D01*
X1907Y129D02*
X1917Y129D01*
X1943Y129D02*
X1956Y129D01*
X1979Y129D02*
X1988Y129D01*
X2018Y129D02*
X2028Y129D01*
X2051Y129D02*
X2060Y129D01*
X2091Y129D02*
X2100Y129D01*
X1336Y128D02*
X1345Y128D01*
X1366Y128D02*
X1375Y128D01*
X1403Y128D02*
X1412Y128D01*
X1442Y128D02*
X1452Y128D01*
X1477Y128D02*
X1489Y128D01*
X1548Y128D02*
X1557Y128D01*
X1587Y128D02*
X1596Y128D01*
X1619Y128D02*
X1633Y128D01*
X1659Y128D02*
X1668Y128D01*
X1763Y128D02*
X1772Y128D01*
X1835Y128D02*
X1844Y128D01*
X1874Y128D02*
X1884Y128D01*
X1907Y128D02*
X1917Y128D01*
X1942Y128D02*
X1956Y128D01*
X1979Y128D02*
X1988Y128D01*
X2018Y128D02*
X2028Y128D01*
X2051Y128D02*
X2060Y128D01*
X2091Y128D02*
X2100Y128D01*
X1336Y127D02*
X1345Y127D01*
X1366Y127D02*
X1375Y127D01*
X1403Y127D02*
X1413Y127D01*
X1440Y127D02*
X1452Y127D01*
X1477Y127D02*
X1490Y127D01*
X1548Y127D02*
X1558Y127D01*
X1586Y127D02*
X1596Y127D01*
X1619Y127D02*
X1634Y127D01*
X1658Y127D02*
X1668Y127D01*
X1763Y127D02*
X1772Y127D01*
X1835Y127D02*
X1844Y127D01*
X1872Y127D02*
X1884Y127D01*
X1908Y127D02*
X1918Y127D01*
X1941Y127D02*
X1956Y127D01*
X1979Y127D02*
X1988Y127D01*
X2016Y127D02*
X2028Y127D01*
X2051Y127D02*
X2060Y127D01*
X2091Y127D02*
X2100Y127D01*
X1336Y126D02*
X1346Y126D01*
X1366Y126D02*
X1375Y126D01*
X1403Y126D02*
X1413Y126D01*
X1438Y126D02*
X1452Y126D01*
X1478Y126D02*
X1492Y126D01*
X1548Y126D02*
X1558Y126D01*
X1585Y126D02*
X1596Y126D01*
X1619Y126D02*
X1636Y126D01*
X1657Y126D02*
X1668Y126D01*
X1763Y126D02*
X1772Y126D01*
X1835Y126D02*
X1845Y126D01*
X1870Y126D02*
X1884Y126D01*
X1908Y126D02*
X1918Y126D01*
X1940Y126D02*
X1956Y126D01*
X1979Y126D02*
X1989Y126D01*
X2014Y126D02*
X2028Y126D01*
X2051Y126D02*
X2060Y126D01*
X2091Y126D02*
X2100Y126D01*
X1336Y125D02*
X1346Y125D01*
X1366Y125D02*
X1375Y125D01*
X1404Y125D02*
X1413Y125D01*
X1437Y125D02*
X1452Y125D01*
X1479Y125D02*
X1493Y125D01*
X1548Y125D02*
X1560Y125D01*
X1584Y125D02*
X1595Y125D01*
X1619Y125D02*
X1637Y125D01*
X1656Y125D02*
X1667Y125D01*
X1763Y125D02*
X1772Y125D01*
X1835Y125D02*
X1845Y125D01*
X1869Y125D02*
X1884Y125D01*
X1908Y125D02*
X1919Y125D01*
X1939Y125D02*
X1956Y125D01*
X1979Y125D02*
X1989Y125D01*
X2013Y125D02*
X2028Y125D01*
X2051Y125D02*
X2060Y125D01*
X2091Y125D02*
X2100Y125D01*
X1337Y124D02*
X1347Y124D01*
X1365Y124D02*
X1375Y124D01*
X1404Y124D02*
X1414Y124D01*
X1435Y124D02*
X1452Y124D01*
X1480Y124D02*
X1494Y124D01*
X1549Y124D02*
X1561Y124D01*
X1583Y124D02*
X1595Y124D01*
X1619Y124D02*
X1638Y124D01*
X1655Y124D02*
X1667Y124D01*
X1763Y124D02*
X1772Y124D01*
X1836Y124D02*
X1845Y124D01*
X1867Y124D02*
X1884Y124D01*
X1908Y124D02*
X1921Y124D01*
X1937Y124D02*
X1956Y124D01*
X1980Y124D02*
X1989Y124D01*
X2011Y124D02*
X2028Y124D01*
X2051Y124D02*
X2060Y124D01*
X2091Y124D02*
X2100Y124D01*
X1337Y123D02*
X1348Y123D01*
X1364Y123D02*
X1375Y123D01*
X1404Y123D02*
X1415Y123D01*
X1433Y123D02*
X1452Y123D01*
X1481Y123D02*
X1495Y123D01*
X1549Y123D02*
X1562Y123D01*
X1581Y123D02*
X1594Y123D01*
X1619Y123D02*
X1639Y123D01*
X1653Y123D02*
X1666Y123D01*
X1763Y123D02*
X1772Y123D01*
X1836Y123D02*
X1847Y123D01*
X1865Y123D02*
X1884Y123D01*
X1909Y123D02*
X1922Y123D01*
X1936Y123D02*
X1956Y123D01*
X1980Y123D02*
X1990Y123D01*
X2009Y123D02*
X2028Y123D01*
X2051Y123D02*
X2060Y123D01*
X2091Y123D02*
X2100Y123D01*
X1337Y122D02*
X1374Y122D01*
X1404Y122D02*
X1452Y122D01*
X1482Y122D02*
X1519Y122D01*
X1550Y122D02*
X1594Y122D01*
X1619Y122D02*
X1666Y122D01*
X1763Y122D02*
X1807Y122D01*
X1836Y122D02*
X1884Y122D01*
X1910Y122D02*
X1956Y122D01*
X1980Y122D02*
X2028Y122D01*
X2051Y122D02*
X2060Y122D01*
X2091Y122D02*
X2100Y122D01*
X1338Y121D02*
X1374Y121D01*
X1405Y121D02*
X1452Y121D01*
X1483Y121D02*
X1522Y121D01*
X1550Y121D02*
X1593Y121D01*
X1619Y121D02*
X1665Y121D01*
X1763Y121D02*
X1810Y121D01*
X1837Y121D02*
X1884Y121D01*
X1910Y121D02*
X1956Y121D01*
X1980Y121D02*
X2028Y121D01*
X2051Y121D02*
X2060Y121D01*
X2091Y121D02*
X2100Y121D01*
X1338Y120D02*
X1373Y120D01*
X1405Y120D02*
X1452Y120D01*
X1484Y120D02*
X1523Y120D01*
X1551Y120D02*
X1592Y120D01*
X1619Y120D02*
X1664Y120D01*
X1763Y120D02*
X1811Y120D01*
X1837Y120D02*
X1884Y120D01*
X1911Y120D02*
X1956Y120D01*
X1981Y120D02*
X2028Y120D01*
X2051Y120D02*
X2060Y120D01*
X2091Y120D02*
X2100Y120D01*
X1339Y119D02*
X1373Y119D01*
X1406Y119D02*
X1452Y119D01*
X1485Y119D02*
X1524Y119D01*
X1552Y119D02*
X1591Y119D01*
X1619Y119D02*
X1663Y119D01*
X1763Y119D02*
X1812Y119D01*
X1838Y119D02*
X1884Y119D01*
X1912Y119D02*
X1956Y119D01*
X1982Y119D02*
X2028Y119D01*
X2051Y119D02*
X2060Y119D01*
X2091Y119D02*
X2100Y119D01*
X1339Y118D02*
X1372Y118D01*
X1406Y118D02*
X1452Y118D01*
X1486Y118D02*
X1524Y118D01*
X1553Y118D02*
X1590Y118D01*
X1619Y118D02*
X1662Y118D01*
X1763Y118D02*
X1812Y118D01*
X1838Y118D02*
X1884Y118D01*
X1913Y118D02*
X1945Y118D01*
X1947Y118D02*
X1956Y118D01*
X1982Y118D02*
X2028Y118D01*
X2051Y118D02*
X2060Y118D01*
X2091Y118D02*
X2100Y118D01*
X1340Y117D02*
X1371Y117D01*
X1407Y117D02*
X1452Y117D01*
X1487Y117D02*
X1524Y117D01*
X1554Y117D02*
X1589Y117D01*
X1619Y117D02*
X1628Y117D01*
X1631Y117D02*
X1661Y117D01*
X1763Y117D02*
X1812Y117D01*
X1839Y117D02*
X1884Y117D01*
X1914Y117D02*
X1944Y117D01*
X1947Y117D02*
X1956Y117D01*
X1983Y117D02*
X2028Y117D01*
X2051Y117D02*
X2060Y117D01*
X2091Y117D02*
X2100Y117D01*
X1341Y116D02*
X1370Y116D01*
X1408Y116D02*
X1440Y116D01*
X1443Y116D02*
X1452Y116D01*
X1489Y116D02*
X1524Y116D01*
X1556Y116D02*
X1588Y116D01*
X1620Y116D02*
X1628Y116D01*
X1632Y116D02*
X1660Y116D01*
X1763Y116D02*
X1812Y116D01*
X1840Y116D02*
X1872Y116D01*
X1875Y116D02*
X1884Y116D01*
X1916Y116D02*
X1943Y116D01*
X1947Y116D02*
X1956Y116D01*
X1984Y116D02*
X2016Y116D01*
X2019Y116D02*
X2028Y116D01*
X2051Y116D02*
X2060Y116D01*
X2091Y116D02*
X2100Y116D01*
X1342Y115D02*
X1369Y115D01*
X1409Y115D02*
X1439Y115D01*
X1444Y115D02*
X1452Y115D01*
X1490Y115D02*
X1524Y115D01*
X1557Y115D02*
X1586Y115D01*
X1620Y115D02*
X1628Y115D01*
X1634Y115D02*
X1658Y115D01*
X1763Y115D02*
X1812Y115D01*
X1841Y115D02*
X1871Y115D01*
X1875Y115D02*
X1884Y115D01*
X1917Y115D02*
X1942Y115D01*
X1947Y115D02*
X1956Y115D01*
X1985Y115D02*
X2015Y115D01*
X2019Y115D02*
X2028Y115D01*
X2052Y115D02*
X2060Y115D01*
X2091Y115D02*
X2099Y115D01*
X1344Y114D02*
X1367Y114D01*
X1411Y114D02*
X1437Y114D01*
X1444Y114D02*
X1451Y114D01*
X1491Y114D02*
X1523Y114D01*
X1559Y114D02*
X1585Y114D01*
X1620Y114D02*
X1627Y114D01*
X1635Y114D02*
X1657Y114D01*
X1763Y114D02*
X1811Y114D01*
X1843Y114D02*
X1869Y114D01*
X1876Y114D02*
X1883Y114D01*
X1918Y114D02*
X1940Y114D01*
X1948Y114D02*
X1955Y114D01*
X1987Y114D02*
X2013Y114D01*
X2020Y114D02*
X2027Y114D01*
X2052Y114D02*
X2059Y114D01*
X2092Y114D02*
X2099Y114D01*
X1346Y113D02*
X1365Y113D01*
X1413Y113D02*
X1435Y113D01*
X1445Y113D02*
X1450Y113D01*
X1493Y113D02*
X1522Y113D01*
X1561Y113D02*
X1583Y113D01*
X1621Y113D02*
X1626Y113D01*
X1638Y113D02*
X1655Y113D01*
X1763Y113D02*
X1810Y113D01*
X1845Y113D02*
X1867Y113D01*
X1877Y113D02*
X1882Y113D01*
X1920Y113D02*
X1938Y113D01*
X1949Y113D02*
X1954Y113D01*
X1989Y113D02*
X2011Y113D01*
X2021Y113D02*
X2026Y113D01*
X2053Y113D02*
X2058Y113D01*
X2093Y113D02*
X2098Y113D01*
X1351Y112D02*
X1360Y112D01*
X1418Y112D02*
X1432Y112D01*
X1499Y112D02*
X1519Y112D01*
X1566Y112D02*
X1578Y112D01*
X1643Y112D02*
X1650Y112D01*
X1764Y112D02*
X1807Y112D01*
X1850Y112D02*
X1864Y112D01*
X1925Y112D02*
X1933Y112D01*
X1994Y112D02*
X2008Y112D01*
D02*
G04 End of Copper1*
M02*