G04 MADE WITH FRITZING*
G04 WWW.FRITZING.ORG*
G04 DOUBLE SIDED*
G04 HOLES PLATED*
G04 CONTOUR ON CENTER OF CONTOUR VECTOR*
%ASAXBY*%
%FSLAX23Y23*%
%MOIN*%
%OFA0B0*%
%SFA1.0B1.0*%
%ADD10C,0.075361*%
%ADD11C,0.078000*%
%ADD12C,0.094488*%
%ADD13R,0.078000X0.078000*%
%ADD14C,0.024000*%
%LNCOPPER0*%
G90*
G70*
G54D10*
X190Y842D03*
X290Y842D03*
X390Y842D03*
X490Y842D03*
X590Y842D03*
X690Y842D03*
X790Y842D03*
X890Y842D03*
X990Y842D03*
X1090Y842D03*
X1190Y842D03*
X1290Y842D03*
X1390Y842D03*
X1490Y842D03*
X1590Y842D03*
X1690Y842D03*
X1790Y842D03*
X1890Y842D03*
X1990Y842D03*
X2090Y842D03*
X2090Y942D03*
X1990Y942D03*
X1890Y942D03*
X1790Y942D03*
X1690Y942D03*
X1590Y942D03*
X1490Y942D03*
X1390Y942D03*
X1290Y942D03*
X1190Y942D03*
X1090Y942D03*
X990Y942D03*
X890Y942D03*
X790Y942D03*
X690Y942D03*
X590Y942D03*
X490Y942D03*
X390Y942D03*
X290Y942D03*
X190Y942D03*
G54D11*
X890Y142D03*
X790Y142D03*
X690Y142D03*
X590Y142D03*
X490Y142D03*
G54D12*
X890Y442D03*
X790Y542D03*
X690Y642D03*
X590Y342D03*
G54D13*
X890Y142D03*
G54D14*
X863Y442D02*
X190Y442D01*
D02*
X190Y442D02*
X190Y811D01*
D02*
X763Y542D02*
X288Y544D01*
D02*
X288Y544D02*
X290Y811D01*
D02*
X390Y642D02*
X390Y811D01*
D02*
X663Y642D02*
X390Y642D01*
D02*
X89Y1043D02*
X390Y1043D01*
D02*
X563Y342D02*
X89Y341D01*
D02*
X89Y341D02*
X89Y1043D01*
D02*
X390Y1043D02*
X390Y973D01*
G04 End of Copper0*
M02*